<svg width="122" height="38" viewBox="0 0 122 38" fill="none" xmlns="http://www.w3.org/2000/svg">
<path fill-rule="evenodd" clip-rule="evenodd" d="M76.0035 29.1562C68.3339 34.2931 59.274 37.0281 50.0062 37.0042C38.2788 37.0634 26.9519 32.796 18.2457 25.0387C17.586 24.4501 18.1767 23.649 18.9661 24.1068C28.6426 29.5677 39.5972 32.4357 50.7431 32.4262C59.0713 32.3843 67.3089 30.7173 74.9823 27.5212C76.1719 27.0225 77.1683 28.2896 76.0035 29.1562Z" fill="white"/>
<path fill-rule="evenodd" clip-rule="evenodd" d="M78.9266 25.8508C78.0296 24.7172 72.9868 25.3057 70.7208 25.5782C70.0308 25.6627 69.9259 25.0687 70.547 24.6436C74.5657 21.8504 81.1594 22.6571 81.9295 23.5945C82.6996 24.5319 81.7281 31.0609 77.9523 34.1756C77.3726 34.6552 76.8206 34.3991 77.0773 33.7641C77.9246 31.6741 79.8375 26.9898 78.9266 25.8617" fill="white"/>
<path fill-rule="evenodd" clip-rule="evenodd" d="M70.8781 4.93099V2.20599C70.8758 2.1152 70.8921 2.0249 70.9263 1.94057C70.9604 1.85624 71.0116 1.77965 71.0767 1.71543C71.1417 1.65121 71.2192 1.60071 71.3046 1.56699C71.39 1.53328 71.4815 1.51705 71.5735 1.51929H83.8836C83.9767 1.51557 84.0697 1.53066 84.1567 1.56364C84.2437 1.59662 84.323 1.64679 84.3897 1.71109C84.4563 1.77538 84.5089 1.85244 84.5443 1.93754C84.5798 2.02264 84.5973 2.11399 84.5957 2.20599V4.53042C84.4403 5.16831 84.1209 5.75584 83.6683 6.23627L77.2898 15.2288C79.7231 15.0943 82.1482 15.6082 84.3113 16.7166C84.5045 16.8203 84.6667 16.9723 84.7815 17.1574C84.8963 17.3425 84.9597 17.5542 84.9655 17.7712V20.6679C84.9655 21.063 84.524 21.5263 84.0603 21.2865C82.048 20.2653 79.8173 19.7345 77.5548 19.7383C75.2922 19.7421 73.0634 20.2804 71.0546 21.3083C70.6268 21.5372 70.1796 21.0794 70.1796 20.6842V17.9429C70.138 17.29 70.2957 16.6397 70.6323 16.0763L78.0211 5.61497H71.5902C71.4974 5.61906 71.4047 5.6044 71.3179 5.5719C71.2311 5.53939 71.152 5.48972 71.0853 5.42594C71.0186 5.36215 70.9658 5.28559 70.9301 5.20095C70.8945 5.11631 70.8769 5.02537 70.8781 4.93372" fill="white"/>
<path fill-rule="evenodd" clip-rule="evenodd" d="M25.9767 21.8696H22.223C22.0537 21.8612 21.8931 21.7931 21.7705 21.6775C21.6478 21.5619 21.5714 21.4067 21.555 21.2401V2.26595C21.5568 2.17446 21.5769 2.08422 21.6141 2.00041C21.6513 1.9166 21.705 1.84087 21.7719 1.77757C21.8388 1.71427 21.9178 1.66465 22.0042 1.63155C22.0906 1.59845 22.1828 1.58253 22.2754 1.5847H25.767C25.9391 1.59066 26.103 1.65848 26.2281 1.77539C26.3531 1.89231 26.4306 2.05028 26.4459 2.21963V4.69938H26.515C26.8497 3.67774 27.5038 2.78713 28.3833 2.15543C29.2628 1.52374 30.3224 1.18345 31.41 1.18345C32.4976 1.18345 33.5572 1.52374 34.4367 2.15543C35.3162 2.78713 35.9703 3.67774 36.305 4.69938C36.6506 3.7955 37.2334 2.99857 37.9936 2.39023C38.7538 1.78188 39.6642 1.38399 40.6314 1.23731C41.5987 1.09063 42.588 1.20044 43.4981 1.55548C44.4082 1.91053 45.2064 2.49804 45.8108 3.25785C46.7308 5.09985 47.0601 7.175 46.7548 9.20653V21.1829C46.7533 21.2748 46.7335 21.3654 46.6965 21.4497C46.6595 21.534 46.606 21.6102 46.539 21.674C46.4721 21.7378 46.3931 21.7879 46.3065 21.8215C46.2199 21.8551 46.1274 21.8714 46.0344 21.8696H42.2944C42.1152 21.86 41.9462 21.784 41.8213 21.6566C41.6964 21.5293 41.6249 21.3601 41.621 21.1829V11.1249C41.6761 9.93863 41.6411 8.74992 41.5161 7.5688C41.4799 7.31829 41.3941 7.07728 41.2635 6.85952C41.1329 6.64177 40.9602 6.45154 40.7551 6.29971C40.5501 6.14788 40.3167 6.03742 40.0684 5.97464C39.8201 5.91185 39.5617 5.89798 39.308 5.9338C38.8215 5.94815 38.35 6.10326 37.9521 6.37988C37.5541 6.65651 37.2473 7.04245 37.0696 7.48978C36.7581 8.67544 36.6407 9.90266 36.7218 11.1249V21.1829C36.7204 21.2748 36.7006 21.3654 36.6636 21.4497C36.6265 21.534 36.573 21.6102 36.5061 21.674C36.4392 21.7378 36.3601 21.7879 36.2735 21.8215C36.1869 21.8551 36.0944 21.8714 36.0014 21.8696H32.2615C32.082 21.8607 31.9127 21.7848 31.7877 21.6573C31.6626 21.5299 31.5913 21.3603 31.588 21.1829V11.1249C31.588 9.00761 31.9413 5.89293 29.2806 5.89293C26.6199 5.89293 26.6944 8.92858 26.6944 11.1249V21.1829C26.6929 21.2748 26.6731 21.3654 26.6361 21.4497C26.5991 21.534 26.5456 21.6102 26.4787 21.674C26.4117 21.7378 26.3327 21.7879 26.2461 21.8215C26.1595 21.8551 26.067 21.8714 25.974 21.8696" fill="white"/>
<path fill-rule="evenodd" clip-rule="evenodd" d="M95.1918 1.18414C100.748 1.18414 103.748 5.89567 103.748 11.8852C103.748 17.6731 100.436 22.2648 95.1918 22.2648C89.7351 22.2648 86.7651 17.5532 86.7651 11.6836C86.7651 5.81392 89.7737 1.18414 95.1918 1.18414ZM95.2221 5.0591C92.462 5.0591 92.2882 8.77327 92.2882 11.0868C92.2882 13.4003 92.2522 18.3571 95.189 18.3571C98.1257 18.3571 98.2252 14.3623 98.2252 11.9288C98.2886 10.2336 98.1026 8.53827 97.6731 6.89575C97.5579 6.34965 97.2466 5.86304 96.7968 5.52555C96.3469 5.18806 95.7886 5.0224 95.2248 5.0591" fill="white"/>
<path fill-rule="evenodd" clip-rule="evenodd" d="M110.96 21.8696H107.239C107.06 21.86 106.891 21.7839 106.766 21.6566C106.642 21.5293 106.57 21.3601 106.566 21.1829V2.20322C106.587 2.0301 106.672 1.87076 106.805 1.75637C106.938 1.64198 107.11 1.58075 107.286 1.58465H110.759C110.913 1.59039 111.062 1.64522 111.182 1.74096C111.302 1.8367 111.388 1.96825 111.427 2.11602V5.01542H111.496C111.773 3.89637 112.432 2.9053 113.36 2.20793C114.289 1.51055 115.433 1.14912 116.599 1.18407C117.463 1.14418 118.322 1.33003 119.09 1.72285C119.857 2.11567 120.506 2.70155 120.971 3.4213C121.796 5.27794 122.132 7.30983 121.951 9.3291V21.2837C121.923 21.4523 121.835 21.6054 121.702 21.715C121.569 21.8246 121.401 21.8833 121.228 21.8805H117.452C117.289 21.8715 117.134 21.8073 117.013 21.6985C116.892 21.5898 116.813 21.4433 116.789 21.2837V10.9641C116.789 8.89038 117.032 5.852 114.446 5.852C113.976 5.8728 113.522 6.02704 113.138 6.29624C112.754 6.56545 112.457 6.9382 112.282 7.36983C111.82 8.51042 111.616 9.73738 111.686 10.9641V21.1829C111.68 21.3691 111.599 21.5454 111.463 21.6738C111.326 21.8022 111.143 21.8725 110.955 21.8696" fill="white"/>
<path fill-rule="evenodd" clip-rule="evenodd" d="M61.0659 12.8062C61.2084 14.1523 60.9655 15.5109 60.3648 16.7275C60.1254 17.2113 59.7584 17.6226 59.3023 17.9179C58.8463 18.2133 58.318 18.382 57.7731 18.4061C56.3351 18.4061 55.4933 17.3161 55.4933 15.7274C55.4933 12.5773 58.3527 12.0051 61.0659 12.0051V12.8062ZM64.8335 21.8178C64.7124 21.9197 64.5626 21.9827 64.4043 21.9982C64.246 22.0138 64.0865 21.9813 63.9474 21.905C63.0864 21.2226 62.358 20.3916 61.7973 19.4525C61.057 20.351 60.1113 21.0633 59.038 21.5308C57.9647 21.9984 56.7943 22.2079 55.623 22.1421C54.8552 22.1873 54.0865 22.0674 53.3702 21.7906C52.6539 21.5138 52.007 21.0868 51.4742 20.539C50.9414 19.9913 50.5355 19.3358 50.2844 18.618C50.0333 17.9002 49.9431 17.1371 50.02 16.3814C49.974 15.0912 50.3328 13.8185 51.0471 12.7371C51.7615 11.6558 52.7966 10.8187 54.0111 10.3401C56.2867 9.59306 58.6563 9.16112 61.0521 9.05662V8.5634C61.1688 7.64546 61.0094 6.71393 60.5939 5.88472C60.3492 5.56804 60.0301 5.31497 59.6642 5.14737C59.2982 4.97977 58.8964 4.90269 58.4935 4.92279C57.8045 4.86963 57.1194 5.06561 56.5659 5.47421C56.0124 5.88281 55.6283 6.47615 55.485 7.14367C55.4655 7.31132 55.391 7.46809 55.2729 7.59009C55.1548 7.71209 54.9996 7.79264 54.8309 7.81947L51.2014 7.43525C51.1125 7.42255 51.0273 7.3921 50.9508 7.34575C50.8743 7.2994 50.8081 7.23812 50.7564 7.16568C50.7048 7.09323 50.6687 7.01114 50.6502 6.92442C50.6318 6.8377 50.6315 6.74819 50.6493 6.66134C51.4911 2.31224 55.4712 1.00151 59.0372 1.00151C61.0811 0.924563 63.0845 1.57869 64.6789 2.84362C66.5006 4.52222 66.335 6.76489 66.335 9.20377V14.9644C66.3497 16.242 66.8535 17.4667 67.7454 18.3925C67.8741 18.5257 67.9446 18.7036 67.9415 18.8877C67.9384 19.0718 67.862 19.2473 67.7288 19.3762C66.9642 20.0057 65.6063 21.1747 64.8583 21.8287" fill="white"/>
<path fill-rule="evenodd" clip-rule="evenodd" d="M11.9772 12.806C12.1198 14.1521 11.8769 15.5107 11.2761 16.7273C11.0367 17.2111 10.6697 17.6223 10.2136 17.9177C9.75753 18.2131 9.22929 18.3817 8.6844 18.4059C7.24639 18.4059 6.41008 17.3159 6.41008 15.7272C6.40456 12.5771 9.26402 12.0048 11.9772 12.0048V12.806ZM15.7475 21.8176C15.6264 21.9195 15.4767 21.9824 15.3183 21.998C15.16 22.0136 15.0006 21.9811 14.8615 21.9048C14.0018 21.221 13.2736 20.3903 12.7114 19.4523C11.9713 20.3511 11.0257 21.0636 9.9523 21.5312C8.87889 21.9988 7.70838 22.2081 6.53705 22.1418C5.76814 22.1869 4.9985 22.0664 4.28145 21.7887C3.5644 21.5109 2.9171 21.0826 2.38438 20.5333C1.85167 19.9841 1.44629 19.327 1.19633 18.6077C0.946379 17.8884 0.857823 17.124 0.936805 16.3676C0.892844 15.0777 1.25237 13.8059 1.96648 12.7249C2.68058 11.644 3.71461 10.8064 4.92791 10.3262C7.20607 9.57752 9.57847 9.14466 11.9772 9.04003V8.56315C12.0931 7.6458 11.9358 6.71499 11.5245 5.88447C11.2786 5.56919 10.9592 5.31713 10.5936 5.14967C10.2279 4.98222 9.82676 4.9043 9.42411 4.92255C8.73442 4.86919 8.04857 5.06498 7.49415 5.4735C6.93974 5.88202 6.55449 6.47546 6.41008 7.14342C6.39088 7.3103 6.31722 7.46648 6.20021 7.58839C6.08321 7.7103 5.9292 7.79132 5.76146 7.81923L2.12089 7.435C2.03224 7.42194 1.94719 7.39125 1.87091 7.34479C1.79462 7.29833 1.72868 7.23708 1.67707 7.16472C1.62546 7.09237 1.58926 7.01043 1.57066 6.92387C1.55206 6.8373 1.55145 6.74791 1.56887 6.6611C2.39966 2.312 6.37696 1.00127 9.93749 1.00127C11.9814 0.924319 13.9847 1.57845 15.5791 2.84337C17.4008 4.52197 17.2352 6.76465 17.2352 9.20353V14.9642C17.2499 16.2417 17.7538 17.4664 18.6456 18.3922C18.7111 18.4568 18.7631 18.5334 18.7985 18.6178C18.834 18.7022 18.8523 18.7927 18.8523 18.8841C18.8523 18.9755 18.834 19.0659 18.7985 19.1503C18.7631 19.2347 18.7111 19.3114 18.6456 19.376C17.8811 20.0054 16.5231 21.1745 15.7751 21.8285" fill="white"/>
<path fill-rule="evenodd" clip-rule="evenodd" d="M76.0035 29.1562C68.3339 34.2931 59.274 37.0281 50.0062 37.0042C38.2788 37.0634 26.9519 32.796 18.2457 25.0387C17.586 24.4501 18.1767 23.649 18.9661 24.1068C28.6426 29.5677 39.5972 32.4357 50.7431 32.4262C59.0713 32.3843 67.3089 30.7173 74.9823 27.5212C76.1719 27.0225 77.1683 28.2896 76.0035 29.1562Z" fill="white"/>
<path fill-rule="evenodd" clip-rule="evenodd" d="M78.9266 25.8508C78.0296 24.7172 72.9868 25.3057 70.7208 25.5782C70.0308 25.6627 69.9259 25.0687 70.547 24.6436C74.5657 21.8504 81.1594 22.6571 81.9295 23.5945C82.6996 24.5319 81.7281 31.0609 77.9523 34.1756C77.3726 34.6552 76.8206 34.3991 77.0773 33.7641C77.9246 31.6741 79.8375 26.9898 78.9266 25.8617" fill="white"/>
<path fill-rule="evenodd" clip-rule="evenodd" d="M70.8781 4.93099V2.20599C70.8758 2.1152 70.8921 2.0249 70.9263 1.94057C70.9604 1.85624 71.0116 1.77965 71.0767 1.71543C71.1417 1.65121 71.2192 1.60071 71.3046 1.56699C71.39 1.53328 71.4815 1.51705 71.5735 1.51929H83.8836C83.9767 1.51557 84.0697 1.53066 84.1567 1.56364C84.2437 1.59662 84.323 1.64679 84.3897 1.71109C84.4563 1.77538 84.5089 1.85244 84.5443 1.93754C84.5798 2.02264 84.5973 2.11399 84.5957 2.20599V4.53042C84.4403 5.16831 84.1209 5.75584 83.6683 6.23627L77.2898 15.2288C79.7231 15.0943 82.1482 15.6082 84.3113 16.7166C84.5045 16.8203 84.6667 16.9723 84.7815 17.1574C84.8963 17.3425 84.9597 17.5542 84.9655 17.7712V20.6679C84.9655 21.063 84.524 21.5263 84.0603 21.2865C82.048 20.2653 79.8173 19.7345 77.5548 19.7383C75.2922 19.7421 73.0634 20.2804 71.0546 21.3083C70.6268 21.5372 70.1796 21.0794 70.1796 20.6842V17.9429C70.138 17.29 70.2957 16.6397 70.6323 16.0763L78.0211 5.61497H71.5902C71.4974 5.61906 71.4047 5.6044 71.3179 5.5719C71.2311 5.53939 71.152 5.48972 71.0853 5.42594C71.0186 5.36215 70.9658 5.28559 70.9301 5.20095C70.8945 5.11631 70.8769 5.02537 70.8781 4.93372" fill="white"/>
<path fill-rule="evenodd" clip-rule="evenodd" d="M25.9767 21.8696H22.223C22.0537 21.8612 21.8931 21.7931 21.7705 21.6775C21.6478 21.5619 21.5714 21.4067 21.555 21.2401V2.26595C21.5568 2.17446 21.5769 2.08422 21.6141 2.00041C21.6513 1.9166 21.705 1.84087 21.7719 1.77757C21.8388 1.71427 21.9178 1.66465 22.0042 1.63155C22.0906 1.59845 22.1828 1.58253 22.2754 1.5847H25.767C25.9391 1.59066 26.103 1.65848 26.2281 1.77539C26.3531 1.89231 26.4306 2.05028 26.4459 2.21963V4.69938H26.515C26.8497 3.67774 27.5038 2.78713 28.3833 2.15543C29.2628 1.52374 30.3224 1.18345 31.41 1.18345C32.4976 1.18345 33.5572 1.52374 34.4367 2.15543C35.3162 2.78713 35.9703 3.67774 36.305 4.69938C36.6506 3.7955 37.2334 2.99857 37.9936 2.39023C38.7538 1.78188 39.6642 1.38399 40.6314 1.23731C41.5987 1.09063 42.588 1.20044 43.4981 1.55548C44.4082 1.91053 45.2064 2.49804 45.8108 3.25785C46.7308 5.09985 47.0601 7.175 46.7548 9.20653V21.1829C46.7533 21.2748 46.7335 21.3654 46.6965 21.4497C46.6595 21.534 46.606 21.6102 46.539 21.674C46.4721 21.7378 46.3931 21.7879 46.3065 21.8215C46.2199 21.8551 46.1274 21.8714 46.0344 21.8696H42.2944C42.1152 21.86 41.9462 21.784 41.8213 21.6566C41.6964 21.5293 41.6249 21.3601 41.621 21.1829V11.1249C41.6761 9.93863 41.6411 8.74992 41.5161 7.5688C41.4799 7.31829 41.3941 7.07728 41.2635 6.85952C41.1329 6.64177 40.9602 6.45154 40.7551 6.29971C40.5501 6.14788 40.3167 6.03742 40.0684 5.97464C39.8201 5.91185 39.5617 5.89798 39.308 5.9338C38.8215 5.94815 38.35 6.10326 37.9521 6.37988C37.5541 6.65651 37.2473 7.04245 37.0696 7.48978C36.7581 8.67544 36.6407 9.90266 36.7218 11.1249V21.1829C36.7204 21.2748 36.7006 21.3654 36.6636 21.4497C36.6265 21.534 36.573 21.6102 36.5061 21.674C36.4392 21.7378 36.3601 21.7879 36.2735 21.8215C36.1869 21.8551 36.0944 21.8714 36.0014 21.8696H32.2615C32.082 21.8607 31.9127 21.7848 31.7877 21.6573C31.6626 21.5299 31.5913 21.3603 31.588 21.1829V11.1249C31.588 9.00761 31.9413 5.89293 29.2806 5.89293C26.6199 5.89293 26.6944 8.92858 26.6944 11.1249V21.1829C26.6929 21.2748 26.6731 21.3654 26.6361 21.4497C26.5991 21.534 26.5456 21.6102 26.4787 21.674C26.4117 21.7378 26.3327 21.7879 26.2461 21.8215C26.1595 21.8551 26.067 21.8714 25.974 21.8696" fill="white"/>
<path fill-rule="evenodd" clip-rule="evenodd" d="M95.1918 1.18414C100.748 1.18414 103.748 5.89567 103.748 11.8852C103.748 17.6731 100.436 22.2648 95.1918 22.2648C89.7351 22.2648 86.7651 17.5532 86.7651 11.6836C86.7651 5.81392 89.7737 1.18414 95.1918 1.18414ZM95.2221 5.0591C92.462 5.0591 92.2882 8.77327 92.2882 11.0868C92.2882 13.4003 92.2522 18.3571 95.189 18.3571C98.1257 18.3571 98.2252 14.3623 98.2252 11.9288C98.2886 10.2336 98.1026 8.53827 97.6731 6.89575C97.5579 6.34965 97.2466 5.86304 96.7968 5.52555C96.3469 5.18806 95.7886 5.0224 95.2248 5.0591" fill="white"/>
<path fill-rule="evenodd" clip-rule="evenodd" d="M110.96 21.8696H107.239C107.06 21.86 106.891 21.7839 106.766 21.6566C106.642 21.5293 106.57 21.3601 106.566 21.1829V2.20322C106.587 2.0301 106.672 1.87076 106.805 1.75637C106.938 1.64198 107.11 1.58075 107.286 1.58465H110.759C110.913 1.59039 111.062 1.64522 111.182 1.74096C111.302 1.8367 111.388 1.96825 111.427 2.11602V5.01542H111.496C111.773 3.89637 112.432 2.9053 113.36 2.20793C114.289 1.51055 115.433 1.14912 116.599 1.18407C117.463 1.14418 118.322 1.33003 119.09 1.72285C119.857 2.11567 120.506 2.70155 120.971 3.4213C121.796 5.27794 122.132 7.30983 121.951 9.3291V21.2837C121.923 21.4523 121.835 21.6054 121.702 21.715C121.569 21.8246 121.401 21.8833 121.228 21.8805H117.452C117.289 21.8715 117.134 21.8073 117.013 21.6985C116.892 21.5898 116.813 21.4433 116.789 21.2837V10.9641C116.789 8.89038 117.032 5.852 114.446 5.852C113.976 5.8728 113.522 6.02704 113.138 6.29624C112.754 6.56545 112.457 6.9382 112.282 7.36983C111.82 8.51042 111.616 9.73738 111.686 10.9641V21.1829C111.68 21.3691 111.599 21.5454 111.463 21.6738C111.326 21.8022 111.143 21.8725 110.955 21.8696" fill="white"/>
<path fill-rule="evenodd" clip-rule="evenodd" d="M61.0659 12.8062C61.2084 14.1523 60.9655 15.5109 60.3648 16.7275C60.1254 17.2113 59.7584 17.6226 59.3023 17.9179C58.8463 18.2133 58.318 18.382 57.7731 18.4061C56.3351 18.4061 55.4933 17.3161 55.4933 15.7274C55.4933 12.5773 58.3527 12.0051 61.0659 12.0051V12.8062ZM64.8335 21.8178C64.7124 21.9197 64.5626 21.9827 64.4043 21.9982C64.246 22.0138 64.0865 21.9813 63.9474 21.905C63.0864 21.2226 62.358 20.3916 61.7973 19.4525C61.057 20.351 60.1113 21.0633 59.038 21.5308C57.9647 21.9984 56.7943 22.2079 55.623 22.1421C54.8552 22.1873 54.0865 22.0674 53.3702 21.7906C52.6539 21.5138 52.007 21.0868 51.4742 20.539C50.9414 19.9913 50.5355 19.3358 50.2844 18.618C50.0333 17.9002 49.9431 17.1371 50.02 16.3814C49.974 15.0912 50.3328 13.8185 51.0471 12.7371C51.7615 11.6558 52.7966 10.8187 54.0111 10.3401C56.2867 9.59306 58.6563 9.16112 61.0521 9.05662V8.5634C61.1688 7.64546 61.0094 6.71393 60.5939 5.88472C60.3492 5.56804 60.0301 5.31497 59.6642 5.14737C59.2982 4.97977 58.8964 4.90269 58.4935 4.92279C57.8045 4.86963 57.1194 5.06561 56.5659 5.47421C56.0124 5.88281 55.6283 6.47615 55.485 7.14367C55.4655 7.31132 55.391 7.46809 55.2729 7.59009C55.1548 7.71209 54.9996 7.79264 54.8309 7.81947L51.2014 7.43525C51.1125 7.42255 51.0273 7.3921 50.9508 7.34575C50.8743 7.2994 50.8081 7.23812 50.7564 7.16568C50.7048 7.09323 50.6687 7.01114 50.6502 6.92442C50.6318 6.8377 50.6315 6.74819 50.6493 6.66134C51.4911 2.31224 55.4712 1.00151 59.0372 1.00151C61.0811 0.924563 63.0845 1.57869 64.6789 2.84362C66.5006 4.52222 66.335 6.76489 66.335 9.20377V14.9644C66.3497 16.242 66.8535 17.4667 67.7454 18.3925C67.8741 18.5257 67.9446 18.7036 67.9415 18.8877C67.9384 19.0718 67.862 19.2473 67.7288 19.3762C66.9642 20.0057 65.6063 21.1747 64.8583 21.8287" fill="white"/>
<path fill-rule="evenodd" clip-rule="evenodd" d="M11.9772 12.806C12.1198 14.1521 11.8769 15.5107 11.2761 16.7273C11.0367 17.2111 10.6697 17.6223 10.2136 17.9177C9.75753 18.2131 9.22929 18.3817 8.6844 18.4059C7.24639 18.4059 6.41008 17.3159 6.41008 15.7272C6.40456 12.5771 9.26402 12.0048 11.9772 12.0048V12.806ZM15.7475 21.8176C15.6264 21.9195 15.4767 21.9824 15.3183 21.998C15.16 22.0136 15.0006 21.9811 14.8615 21.9048C14.0018 21.221 13.2736 20.3903 12.7114 19.4523C11.9713 20.3511 11.0257 21.0636 9.9523 21.5312C8.87889 21.9988 7.70838 22.2081 6.53705 22.1418C5.76814 22.1869 4.9985 22.0664 4.28145 21.7887C3.5644 21.5109 2.9171 21.0826 2.38438 20.5333C1.85167 19.9841 1.44629 19.327 1.19633 18.6077C0.946379 17.8884 0.857823 17.124 0.936805 16.3676C0.892844 15.0777 1.25237 13.8059 1.96648 12.7249C2.68058 11.644 3.71461 10.8064 4.92791 10.3262C7.20607 9.57752 9.57847 9.14466 11.9772 9.04003V8.56315C12.0931 7.6458 11.9358 6.71499 11.5245 5.88447C11.2786 5.56919 10.9592 5.31713 10.5936 5.14967C10.2279 4.98222 9.82676 4.9043 9.42411 4.92255C8.73442 4.86919 8.04857 5.06498 7.49415 5.4735C6.93974 5.88202 6.55449 6.47546 6.41008 7.14342C6.39088 7.3103 6.31722 7.46648 6.20021 7.58839C6.08321 7.7103 5.9292 7.79132 5.76146 7.81923L2.12089 7.435C2.03224 7.42194 1.94719 7.39125 1.87091 7.34479C1.79462 7.29833 1.72868 7.23708 1.67707 7.16472C1.62546 7.09237 1.58926 7.01043 1.57066 6.92387C1.55206 6.8373 1.55145 6.74791 1.56887 6.6611C2.39966 2.312 6.37696 1.00127 9.93749 1.00127C11.9814 0.924319 13.9847 1.57845 15.5791 2.84337C17.4008 4.52197 17.2352 6.76465 17.2352 9.20353V14.9642C17.2499 16.2417 17.7538 17.4664 18.6456 18.3922C18.7111 18.4568 18.7631 18.5334 18.7985 18.6178C18.834 18.7022 18.8523 18.7927 18.8523 18.8841C18.8523 18.9755 18.834 19.0659 18.7985 19.1503C18.7631 19.2347 18.7111 19.3114 18.6456 19.376C17.8811 20.0054 16.5231 21.1745 15.7751 21.8285" fill="white"/>
</svg>
