<svg width="122" height="37" viewBox="0 0 122 37" fill="none" xmlns="http://www.w3.org/2000/svg">
<path fill-rule="evenodd" clip-rule="evenodd" d="M75.0947 28.1707C67.4251 33.3075 58.3652 36.0425 49.0974 36.0187C37.37 36.0778 26.0431 31.8105 17.3369 24.0532C16.6772 23.4646 17.2679 22.6634 18.0573 23.1212C27.7338 28.5822 38.6884 31.4502 49.8343 31.4406C58.1625 31.3987 66.4001 29.7318 74.0735 26.5357C75.2631 26.037 76.2595 27.3041 75.0947 28.1707Z" fill="#E5CC7B"/>
<path fill-rule="evenodd" clip-rule="evenodd" d="M78.0178 24.8652C77.1208 23.7316 72.078 24.3202 69.812 24.5927C69.122 24.6772 69.0171 24.0831 69.6382 23.658C73.6569 20.8649 80.2506 21.6715 81.0207 22.6089C81.7908 23.5463 80.8193 30.0754 77.0435 33.1901C76.4638 33.6697 75.9118 33.4135 76.1685 32.7786C77.0158 30.6885 78.9287 26.0043 78.0178 24.8761" fill="#E5CC7B"/>
<path fill-rule="evenodd" clip-rule="evenodd" d="M69.9693 3.94546V1.22046C69.967 1.12967 69.9833 1.03937 70.0175 0.955038C70.0516 0.87071 70.1028 0.794112 70.1679 0.729893C70.2329 0.665675 70.3104 0.615176 70.3958 0.58146C70.4812 0.547744 70.5727 0.531514 70.6647 0.533757H82.9748C83.0679 0.530033 83.1609 0.545125 83.2479 0.578105C83.3349 0.611085 83.4142 0.661258 83.4809 0.725552C83.5475 0.789846 83.6001 0.866905 83.6355 0.952006C83.671 1.03711 83.6885 1.12846 83.6869 1.22046V3.54488C83.5315 4.18277 83.2121 4.77031 82.7595 5.25074L76.381 14.2432C78.8143 14.1088 81.2394 14.6227 83.4025 15.7311C83.5957 15.8348 83.7579 15.9868 83.8727 16.1719C83.9875 16.357 84.0509 16.5687 84.0567 16.7857V19.6823C84.0567 20.0775 83.6152 20.5407 83.1515 20.3009C81.1392 19.2798 78.9085 18.749 76.646 18.7528C74.3834 18.7566 72.1546 19.2949 70.1458 20.3227C69.718 20.5516 69.2708 20.0938 69.2708 19.6987V16.9573C69.2292 16.3044 69.3869 15.6542 69.7235 15.0907L77.1123 4.62944H70.6814C70.5886 4.63353 70.4959 4.61887 70.4091 4.58636C70.3223 4.55386 70.2432 4.50419 70.1765 4.4404C70.1098 4.37661 70.057 4.30005 70.0213 4.21541C69.9857 4.13077 69.9681 4.03984 69.9693 3.94818" fill="#E5CC7B"/>
<path fill-rule="evenodd" clip-rule="evenodd" d="M25.0679 20.8841H21.3142C21.1449 20.8757 20.9843 20.8075 20.8617 20.692C20.739 20.5764 20.6626 20.4212 20.6462 20.2546V1.28042C20.648 1.18892 20.6681 1.09868 20.7053 1.01487C20.7425 0.931061 20.7962 0.855332 20.8631 0.792033C20.93 0.728734 21.009 0.679111 21.0954 0.646014C21.1818 0.612916 21.274 0.596995 21.3666 0.599165H24.8582C25.0303 0.605129 25.1943 0.67294 25.3193 0.789858C25.4443 0.906775 25.5218 1.06475 25.5371 1.23409V3.71384H25.6062C25.9409 2.69221 26.595 1.80159 27.4745 1.1699C28.354 0.538201 29.4136 0.19792 30.5012 0.19792C31.5888 0.19792 32.6484 0.538201 33.5279 1.1699C34.4074 1.80159 35.0615 2.69221 35.3962 3.71384C35.7418 2.80996 36.3246 2.01303 37.0848 1.40469C37.8451 0.796346 38.7554 0.398455 39.7226 0.251776C40.6899 0.105097 41.6792 0.214904 42.5893 0.569948C43.4994 0.924991 44.2976 1.51251 44.902 2.27232C45.822 4.11432 46.1513 6.18947 45.846 8.221V20.1974C45.8445 20.2892 45.8247 20.3799 45.7877 20.4642C45.7507 20.5484 45.6972 20.6247 45.6302 20.6885C45.5633 20.7523 45.4843 20.8024 45.3977 20.836C45.3111 20.8695 45.2186 20.8859 45.1256 20.8841H41.3856C41.2064 20.8745 41.0374 20.7984 40.9125 20.6711C40.7876 20.5438 40.7161 20.3746 40.7122 20.1974V10.1394C40.7673 8.9531 40.7323 7.76439 40.6073 6.58327C40.5711 6.33276 40.4853 6.09174 40.3547 5.87399C40.2241 5.65623 40.0514 5.46601 39.8463 5.31418C39.6413 5.16235 39.4079 5.05189 39.1596 4.9891C38.9113 4.92632 38.6529 4.91244 38.3992 4.94827C37.9127 4.96261 37.4413 5.11773 37.0433 5.39435C36.6454 5.67097 36.3385 6.05691 36.1608 6.50424C35.8493 7.6899 35.7319 8.91712 35.813 10.1394V20.1974C35.8116 20.2892 35.7918 20.3799 35.7548 20.4642C35.7178 20.5484 35.6642 20.6247 35.5973 20.6885C35.5304 20.7523 35.4513 20.8024 35.3647 20.836C35.2781 20.8695 35.1856 20.8859 35.0926 20.8841H31.3527C31.1732 20.8751 31.0039 20.7993 30.8789 20.6718C30.7538 20.5443 30.6825 20.3748 30.6792 20.1974V10.1394C30.6792 8.02207 31.0325 4.90739 28.3718 4.90739C25.7111 4.90739 25.7856 7.94305 25.7856 10.1394V20.1974C25.7842 20.2892 25.7643 20.3799 25.7273 20.4642C25.6903 20.5484 25.6368 20.6247 25.5699 20.6885C25.5029 20.7523 25.4239 20.8024 25.3373 20.836C25.2507 20.8695 25.1582 20.8859 25.0652 20.8841" fill="#E5CC7B"/>
<path fill-rule="evenodd" clip-rule="evenodd" d="M94.283 0.198608C99.8391 0.198608 102.839 4.91014 102.839 10.8997C102.839 16.6876 99.5272 21.2792 94.283 21.2792C88.8263 21.2792 85.8563 16.5677 85.8563 10.698C85.8563 4.82838 88.8649 0.198608 94.283 0.198608ZM94.3133 4.07356C91.5532 4.07356 91.3794 7.78774 91.3794 10.1013C91.3794 12.4148 91.3434 17.3716 94.2802 17.3716C97.2169 17.3716 97.3164 13.3767 97.3164 10.9433C97.3798 9.24807 97.1938 7.55274 96.7643 5.91021C96.6491 5.36411 96.3378 4.87751 95.888 4.54001C95.4381 4.20252 94.8798 4.03687 94.316 4.07356" fill="#E5CC7B"/>
<path fill-rule="evenodd" clip-rule="evenodd" d="M110.051 20.884H106.331C106.151 20.8744 105.983 20.7984 105.858 20.6711C105.733 20.5437 105.661 20.3745 105.657 20.1973V1.21769C105.678 1.04456 105.763 0.88523 105.896 0.770837C106.029 0.656444 106.201 0.595213 106.378 0.599113H109.85C110.004 0.60486 110.153 0.659682 110.273 0.755425C110.393 0.851168 110.479 0.982713 110.518 1.13049V4.02989H110.587C110.865 2.91083 111.523 1.91977 112.452 1.22239C113.381 0.525015 114.524 0.163589 115.69 0.198538C116.554 0.158644 117.413 0.344494 118.181 0.737315C118.948 1.13014 119.597 1.71601 120.062 2.43576C120.887 4.29241 121.224 6.32429 121.042 8.34357V20.2981C121.014 20.4668 120.926 20.6199 120.793 20.7295C120.66 20.8391 120.492 20.8978 120.319 20.8949H116.543C116.38 20.886 116.225 20.8217 116.104 20.713C115.984 20.6043 115.905 20.4577 115.881 20.2981V9.97857C115.881 7.90484 116.124 4.86647 113.537 4.86647C113.067 4.88726 112.613 5.0415 112.229 5.31071C111.845 5.57991 111.548 5.95266 111.373 6.38429C110.911 7.52488 110.707 8.75184 110.777 9.97857V20.1973C110.771 20.3836 110.691 20.5599 110.554 20.6883C110.417 20.8167 110.235 20.887 110.046 20.884" fill="#E5CC7B"/>
<path fill-rule="evenodd" clip-rule="evenodd" d="M60.1571 11.8207C60.2996 13.1668 60.0567 14.5254 59.456 15.742C59.2166 16.2258 58.8496 16.637 58.3935 16.9324C57.9375 17.2278 57.4092 17.3964 56.8643 17.4206C55.4263 17.4206 54.5845 16.3306 54.5845 14.7419C54.5845 11.5918 57.4439 11.0195 60.1571 11.0195V11.8207ZM63.9247 20.8323C63.8036 20.9342 63.6538 20.9971 63.4955 21.0127C63.3372 21.0283 63.1777 20.9958 63.0386 20.9195C62.1776 20.237 61.4492 19.4061 60.8885 18.467C60.1482 19.3655 59.2025 20.0777 58.1292 20.5453C57.0559 21.0128 55.8855 21.2223 54.7142 21.1565C53.9464 21.2018 53.1777 21.0819 52.4614 20.8051C51.7451 20.5283 51.0982 20.1013 50.5654 19.5535C50.0326 19.0057 49.6267 18.3503 49.3756 17.6325C49.1245 16.9146 49.0343 16.1515 49.1112 15.3959C49.0652 14.1057 49.424 12.8329 50.1383 11.7516C50.8527 10.6703 51.8878 9.83312 53.1023 9.35456C55.3779 8.60752 57.7475 8.17559 60.1433 8.07109V7.57786C60.26 6.65993 60.1006 5.7284 59.6851 4.89918C59.4405 4.58251 59.1213 4.32943 58.7554 4.16183C58.3894 3.99423 57.9876 3.91715 57.5847 3.93726C56.8957 3.8841 56.2106 4.08008 55.6571 4.48867C55.1036 4.89727 54.7195 5.49061 54.5762 6.15813C54.5567 6.32579 54.4822 6.48256 54.3641 6.60456C54.246 6.72656 54.0908 6.80711 53.9221 6.83394L50.2926 6.44971C50.2037 6.43702 50.1185 6.40656 50.042 6.36021C49.9655 6.31386 49.8993 6.25259 49.8476 6.18014C49.796 6.1077 49.7599 6.02561 49.7414 5.93889C49.723 5.85217 49.7227 5.76265 49.7405 5.67581C50.5823 1.32671 54.5624 0.0159802 58.1284 0.0159802C60.1723 -0.0609719 62.1757 0.593156 63.7701 1.85808C65.5918 3.53668 65.4262 5.77936 65.4262 8.21824V13.9789C65.4409 15.2564 65.9447 16.4812 66.8366 17.4069C66.9653 17.5401 67.0358 17.718 67.0327 17.9022C67.0296 18.0863 66.9532 18.2618 66.82 18.3907C66.0554 19.0201 64.6975 20.1892 63.9495 20.8432" fill="#E5CC7B"/>
<path fill-rule="evenodd" clip-rule="evenodd" d="M11.0684 11.8204C11.211 13.1666 10.9681 14.5251 10.3673 15.7417C10.1279 16.2256 9.76085 16.6368 9.30479 16.9322C8.84873 17.2275 8.32049 17.3962 7.7756 17.4203C6.33759 17.4203 5.50128 16.3303 5.50128 14.7416C5.49576 11.5915 8.35523 11.0193 11.0684 11.0193V11.8204ZM14.8387 20.832C14.7176 20.9339 14.5679 20.9969 14.4095 21.0125C14.2512 21.028 14.0918 20.9955 13.9527 20.9192C13.093 20.2354 12.3648 19.4047 11.8026 18.4667C11.0625 19.3656 10.1169 20.0781 9.04351 20.5457C7.9701 21.0132 6.79958 21.2225 5.62825 21.1563C4.85934 21.2014 4.0897 21.0809 3.37265 20.8031C2.65561 20.5254 2.0083 20.0971 1.47559 19.5478C0.942872 18.9985 0.537493 18.3415 0.287536 17.6222C0.0375803 16.9028 -0.0509751 16.1385 0.0280064 15.382C-0.0159541 14.0922 0.34357 12.8203 1.05768 11.7394C1.77178 10.6584 2.80581 9.82091 4.01911 9.34069C6.29727 8.59198 8.66968 8.15912 11.0684 8.05449V7.57762C11.1843 6.66027 11.027 5.72945 10.6157 4.89894C10.3698 4.58366 10.0504 4.33159 9.68479 4.16414C9.31914 3.99668 8.91797 3.91877 8.51531 3.93701C7.82562 3.88366 7.13977 4.07945 6.58536 4.48797C6.03094 4.89649 5.64569 5.48993 5.50128 6.15789C5.48208 6.32477 5.40842 6.48095 5.29141 6.60286C5.17441 6.72476 5.02041 6.80579 4.85266 6.83369L1.21209 6.44947C1.12344 6.4364 1.0384 6.40571 0.962108 6.35926C0.885821 6.3128 0.819877 6.25154 0.768269 6.17919C0.71666 6.10684 0.680461 6.0249 0.661863 5.93833C0.643265 5.85176 0.642655 5.76237 0.660069 5.67556C1.49086 1.32646 5.46816 0.0157361 9.02869 0.0157361C11.0726 -0.061216 13.0759 0.592911 14.6703 1.85784C16.492 3.53644 16.3264 5.77912 16.3264 8.21799V13.9786C16.3411 15.2562 16.845 16.4809 17.7368 17.4067C17.8023 17.4712 17.8543 17.5479 17.8898 17.6323C17.9252 17.7167 17.9435 17.8072 17.9435 17.8986C17.9435 17.9899 17.9252 18.0804 17.8898 18.1648C17.8543 18.2492 17.8023 18.3259 17.7368 18.3904C16.9723 19.0199 15.6143 20.1889 14.8663 20.8429" fill="#E5CC7B"/>
<path fill-rule="evenodd" clip-rule="evenodd" d="M75.0947 28.1707C67.4251 33.3075 58.3652 36.0425 49.0974 36.0187C37.37 36.0778 26.0431 31.8105 17.3369 24.0532C16.6772 23.4646 17.2679 22.6634 18.0573 23.1212C27.7338 28.5822 38.6884 31.4502 49.8343 31.4406C58.1625 31.3987 66.4001 29.7318 74.0735 26.5357C75.2631 26.037 76.2595 27.3041 75.0947 28.1707Z" fill="#E5CC7B"/>
<path fill-rule="evenodd" clip-rule="evenodd" d="M78.0178 24.8652C77.1208 23.7316 72.078 24.3202 69.812 24.5927C69.122 24.6772 69.0171 24.0831 69.6382 23.658C73.6569 20.8649 80.2506 21.6715 81.0207 22.6089C81.7908 23.5463 80.8193 30.0754 77.0435 33.1901C76.4638 33.6697 75.9118 33.4135 76.1685 32.7786C77.0158 30.6885 78.9287 26.0043 78.0178 24.8761" fill="#E5CC7B"/>
<path fill-rule="evenodd" clip-rule="evenodd" d="M69.9693 3.94546V1.22046C69.967 1.12967 69.9833 1.03937 70.0175 0.955038C70.0516 0.87071 70.1028 0.794112 70.1679 0.729893C70.2329 0.665675 70.3104 0.615176 70.3958 0.58146C70.4812 0.547744 70.5727 0.531514 70.6647 0.533757H82.9748C83.0679 0.530033 83.1609 0.545125 83.2479 0.578105C83.3349 0.611085 83.4142 0.661258 83.4809 0.725552C83.5475 0.789846 83.6001 0.866905 83.6355 0.952006C83.671 1.03711 83.6885 1.12846 83.6869 1.22046V3.54488C83.5315 4.18277 83.2121 4.77031 82.7595 5.25074L76.381 14.2432C78.8143 14.1088 81.2394 14.6227 83.4025 15.7311C83.5957 15.8348 83.7579 15.9868 83.8727 16.1719C83.9875 16.357 84.0509 16.5687 84.0567 16.7857V19.6823C84.0567 20.0775 83.6152 20.5407 83.1515 20.3009C81.1392 19.2798 78.9085 18.749 76.646 18.7528C74.3834 18.7566 72.1546 19.2949 70.1458 20.3227C69.718 20.5516 69.2708 20.0938 69.2708 19.6987V16.9573C69.2292 16.3044 69.3869 15.6542 69.7235 15.0907L77.1123 4.62944H70.6814C70.5886 4.63353 70.4959 4.61887 70.4091 4.58636C70.3223 4.55386 70.2432 4.50419 70.1765 4.4404C70.1098 4.37661 70.057 4.30005 70.0213 4.21541C69.9857 4.13077 69.9681 4.03984 69.9693 3.94818" fill="#E5CC7B"/>
<path fill-rule="evenodd" clip-rule="evenodd" d="M25.0679 20.8841H21.3142C21.1449 20.8757 20.9843 20.8075 20.8617 20.692C20.739 20.5764 20.6626 20.4212 20.6462 20.2546V1.28042C20.648 1.18892 20.6681 1.09868 20.7053 1.01487C20.7425 0.931061 20.7962 0.855332 20.8631 0.792033C20.93 0.728734 21.009 0.679111 21.0954 0.646014C21.1818 0.612916 21.274 0.596995 21.3666 0.599165H24.8582C25.0303 0.605129 25.1943 0.67294 25.3193 0.789858C25.4443 0.906775 25.5218 1.06475 25.5371 1.23409V3.71384H25.6062C25.9409 2.69221 26.595 1.80159 27.4745 1.1699C28.354 0.538201 29.4136 0.19792 30.5012 0.19792C31.5888 0.19792 32.6484 0.538201 33.5279 1.1699C34.4074 1.80159 35.0615 2.69221 35.3962 3.71384C35.7418 2.80996 36.3246 2.01303 37.0848 1.40469C37.8451 0.796346 38.7554 0.398455 39.7226 0.251776C40.6899 0.105097 41.6792 0.214904 42.5893 0.569948C43.4994 0.924991 44.2976 1.51251 44.902 2.27232C45.822 4.11432 46.1513 6.18947 45.846 8.221V20.1974C45.8445 20.2892 45.8247 20.3799 45.7877 20.4642C45.7507 20.5484 45.6972 20.6247 45.6302 20.6885C45.5633 20.7523 45.4843 20.8024 45.3977 20.836C45.3111 20.8695 45.2186 20.8859 45.1256 20.8841H41.3856C41.2064 20.8745 41.0374 20.7984 40.9125 20.6711C40.7876 20.5438 40.7161 20.3746 40.7122 20.1974V10.1394C40.7673 8.9531 40.7323 7.76439 40.6073 6.58327C40.5711 6.33276 40.4853 6.09174 40.3547 5.87399C40.2241 5.65623 40.0514 5.46601 39.8463 5.31418C39.6413 5.16235 39.4079 5.05189 39.1596 4.9891C38.9113 4.92632 38.6529 4.91244 38.3992 4.94827C37.9127 4.96261 37.4413 5.11773 37.0433 5.39435C36.6454 5.67097 36.3385 6.05691 36.1608 6.50424C35.8493 7.6899 35.7319 8.91712 35.813 10.1394V20.1974C35.8116 20.2892 35.7918 20.3799 35.7548 20.4642C35.7178 20.5484 35.6642 20.6247 35.5973 20.6885C35.5304 20.7523 35.4513 20.8024 35.3647 20.836C35.2781 20.8695 35.1856 20.8859 35.0926 20.8841H31.3527C31.1732 20.8751 31.0039 20.7993 30.8789 20.6718C30.7538 20.5443 30.6825 20.3748 30.6792 20.1974V10.1394C30.6792 8.02207 31.0325 4.90739 28.3718 4.90739C25.7111 4.90739 25.7856 7.94305 25.7856 10.1394V20.1974C25.7842 20.2892 25.7643 20.3799 25.7273 20.4642C25.6903 20.5484 25.6368 20.6247 25.5699 20.6885C25.5029 20.7523 25.4239 20.8024 25.3373 20.836C25.2507 20.8695 25.1582 20.8859 25.0652 20.8841" fill="#E5CC7B"/>
<path fill-rule="evenodd" clip-rule="evenodd" d="M94.283 0.198608C99.8391 0.198608 102.839 4.91014 102.839 10.8997C102.839 16.6876 99.5272 21.2792 94.283 21.2792C88.8263 21.2792 85.8563 16.5677 85.8563 10.698C85.8563 4.82838 88.8649 0.198608 94.283 0.198608ZM94.3133 4.07356C91.5532 4.07356 91.3794 7.78774 91.3794 10.1013C91.3794 12.4148 91.3434 17.3716 94.2802 17.3716C97.2169 17.3716 97.3164 13.3767 97.3164 10.9433C97.3798 9.24807 97.1938 7.55274 96.7643 5.91021C96.6491 5.36411 96.3378 4.87751 95.888 4.54001C95.4381 4.20252 94.8798 4.03687 94.316 4.07356" fill="#E5CC7B"/>
<path fill-rule="evenodd" clip-rule="evenodd" d="M110.051 20.884H106.331C106.151 20.8744 105.983 20.7984 105.858 20.6711C105.733 20.5437 105.661 20.3745 105.657 20.1973V1.21769C105.678 1.04456 105.763 0.88523 105.896 0.770837C106.029 0.656444 106.201 0.595213 106.378 0.599113H109.85C110.004 0.60486 110.153 0.659682 110.273 0.755425C110.393 0.851168 110.479 0.982713 110.518 1.13049V4.02989H110.587C110.865 2.91083 111.523 1.91977 112.452 1.22239C113.381 0.525015 114.524 0.163589 115.69 0.198538C116.554 0.158644 117.413 0.344494 118.181 0.737315C118.948 1.13014 119.597 1.71601 120.062 2.43576C120.887 4.29241 121.224 6.32429 121.042 8.34357V20.2981C121.014 20.4668 120.926 20.6199 120.793 20.7295C120.66 20.8391 120.492 20.8978 120.319 20.8949H116.543C116.38 20.886 116.225 20.8217 116.104 20.713C115.984 20.6043 115.905 20.4577 115.881 20.2981V9.97857C115.881 7.90484 116.124 4.86647 113.537 4.86647C113.067 4.88726 112.613 5.0415 112.229 5.31071C111.845 5.57991 111.548 5.95266 111.373 6.38429C110.911 7.52488 110.707 8.75184 110.777 9.97857V20.1973C110.771 20.3836 110.691 20.5599 110.554 20.6883C110.417 20.8167 110.235 20.887 110.046 20.884" fill="#E5CC7B"/>
<path fill-rule="evenodd" clip-rule="evenodd" d="M60.1571 11.8207C60.2996 13.1668 60.0567 14.5254 59.456 15.742C59.2166 16.2258 58.8496 16.637 58.3935 16.9324C57.9375 17.2278 57.4092 17.3964 56.8643 17.4206C55.4263 17.4206 54.5845 16.3306 54.5845 14.7419C54.5845 11.5918 57.4439 11.0195 60.1571 11.0195V11.8207ZM63.9247 20.8323C63.8036 20.9342 63.6538 20.9971 63.4955 21.0127C63.3372 21.0283 63.1777 20.9958 63.0386 20.9195C62.1776 20.237 61.4492 19.4061 60.8885 18.467C60.1482 19.3655 59.2025 20.0777 58.1292 20.5453C57.0559 21.0128 55.8855 21.2223 54.7142 21.1565C53.9464 21.2018 53.1777 21.0819 52.4614 20.8051C51.7451 20.5283 51.0982 20.1013 50.5654 19.5535C50.0326 19.0057 49.6267 18.3503 49.3756 17.6325C49.1245 16.9146 49.0343 16.1515 49.1112 15.3959C49.0652 14.1057 49.424 12.8329 50.1383 11.7516C50.8527 10.6703 51.8878 9.83312 53.1023 9.35456C55.3779 8.60752 57.7475 8.17559 60.1433 8.07109V7.57786C60.26 6.65993 60.1006 5.7284 59.6851 4.89918C59.4405 4.58251 59.1213 4.32943 58.7554 4.16183C58.3894 3.99423 57.9876 3.91715 57.5847 3.93726C56.8957 3.8841 56.2106 4.08008 55.6571 4.48867C55.1036 4.89727 54.7195 5.49061 54.5762 6.15813C54.5567 6.32579 54.4822 6.48256 54.3641 6.60456C54.246 6.72656 54.0908 6.80711 53.9221 6.83394L50.2926 6.44971C50.2037 6.43702 50.1185 6.40656 50.042 6.36021C49.9655 6.31386 49.8993 6.25259 49.8476 6.18014C49.796 6.1077 49.7599 6.02561 49.7414 5.93889C49.723 5.85217 49.7227 5.76265 49.7405 5.67581C50.5823 1.32671 54.5624 0.0159802 58.1284 0.0159802C60.1723 -0.0609719 62.1757 0.593156 63.7701 1.85808C65.5918 3.53668 65.4262 5.77936 65.4262 8.21824V13.9789C65.4409 15.2564 65.9447 16.4812 66.8366 17.4069C66.9653 17.5401 67.0358 17.718 67.0327 17.9022C67.0296 18.0863 66.9532 18.2618 66.82 18.3907C66.0554 19.0201 64.6975 20.1892 63.9495 20.8432" fill="#E5CC7B"/>
<path fill-rule="evenodd" clip-rule="evenodd" d="M11.0684 11.8204C11.211 13.1666 10.9681 14.5251 10.3673 15.7417C10.1279 16.2256 9.76085 16.6368 9.30479 16.9322C8.84873 17.2275 8.32049 17.3962 7.7756 17.4203C6.33759 17.4203 5.50128 16.3303 5.50128 14.7416C5.49576 11.5915 8.35523 11.0193 11.0684 11.0193V11.8204ZM14.8387 20.832C14.7176 20.9339 14.5679 20.9969 14.4095 21.0125C14.2512 21.028 14.0918 20.9955 13.9527 20.9192C13.093 20.2354 12.3648 19.4047 11.8026 18.4667C11.0625 19.3656 10.1169 20.0781 9.04351 20.5457C7.9701 21.0132 6.79958 21.2225 5.62825 21.1563C4.85934 21.2014 4.0897 21.0809 3.37265 20.8031C2.65561 20.5254 2.0083 20.0971 1.47559 19.5478C0.942872 18.9985 0.537493 18.3415 0.287536 17.6222C0.0375803 16.9028 -0.0509751 16.1385 0.0280064 15.382C-0.0159541 14.0922 0.34357 12.8203 1.05768 11.7394C1.77178 10.6584 2.80581 9.82091 4.01911 9.34069C6.29727 8.59198 8.66968 8.15912 11.0684 8.05449V7.57762C11.1843 6.66027 11.027 5.72945 10.6157 4.89894C10.3698 4.58366 10.0504 4.33159 9.68479 4.16414C9.31914 3.99668 8.91797 3.91877 8.51531 3.93701C7.82562 3.88366 7.13977 4.07945 6.58536 4.48797C6.03094 4.89649 5.64569 5.48993 5.50128 6.15789C5.48208 6.32477 5.40842 6.48095 5.29141 6.60286C5.17441 6.72476 5.02041 6.80579 4.85266 6.83369L1.21209 6.44947C1.12344 6.4364 1.0384 6.40571 0.962108 6.35926C0.885821 6.3128 0.819877 6.25154 0.768269 6.17919C0.71666 6.10684 0.680461 6.0249 0.661863 5.93833C0.643265 5.85176 0.642655 5.76237 0.660069 5.67556C1.49086 1.32646 5.46816 0.0157361 9.02869 0.0157361C11.0726 -0.061216 13.0759 0.592911 14.6703 1.85784C16.492 3.53644 16.3264 5.77912 16.3264 8.21799V13.9786C16.3411 15.2562 16.845 16.4809 17.7368 17.4067C17.8023 17.4712 17.8543 17.5479 17.8898 17.6323C17.9252 17.7167 17.9435 17.8072 17.9435 17.8986C17.9435 17.9899 17.9252 18.0804 17.8898 18.1648C17.8543 18.2492 17.8023 18.3259 17.7368 18.3904C16.9723 19.0199 15.6143 20.1889 14.8663 20.8429" fill="#E5CC7B"/>
</svg>
