<svg width="19" height="16" viewBox="0 0 19 16" fill="none" xmlns="http://www.w3.org/2000/svg">
<path fill-rule="evenodd" clip-rule="evenodd" d="M0 8C0 7.70163 0.118527 7.41549 0.329505 7.20451C0.540484 6.99353 0.826631 6.875 1.125 6.875H14.1593L9.3285 2.0465C9.11726 1.83526 8.99858 1.54875 8.99858 1.25C8.99858 0.951257 9.11726 0.664747 9.3285 0.453502C9.53974 0.242257 9.82625 0.123581 10.125 0.123581C10.4237 0.123581 10.7103 0.242257 10.9215 0.453502L17.6715 7.2035C17.7763 7.308 17.8594 7.43215 17.9161 7.56883C17.9728 7.7055 18.002 7.85203 18.002 8C18.002 8.14798 17.9728 8.2945 17.9161 8.43118C17.8594 8.56785 17.7763 8.692 17.6715 8.7965L10.9215 15.5465C10.7103 15.7577 10.4237 15.8764 10.125 15.8764C9.82625 15.8764 9.53974 15.7577 9.3285 15.5465C9.11726 15.3353 8.99858 15.0487 8.99858 14.75C8.99858 14.4513 9.11726 14.1647 9.3285 13.9535L14.1593 9.125H1.125C0.826631 9.125 0.540484 9.00648 0.329505 8.7955C0.118527 8.58452 0 8.29837 0 8Z" fill="#495258"/>
</svg>
