<svg width="34" height="22" viewBox="0 0 34 22" fill="none" xmlns="http://www.w3.org/2000/svg">
<path fill-rule="evenodd" clip-rule="evenodd" d="M0.375 11C0.375 10.685 0.500111 10.383 0.722811 10.1603C0.94551 9.93759 1.24756 9.81247 1.5625 9.81247H29.5709L22.0968 2.34072C21.8738 2.11774 21.7485 1.81532 21.7485 1.49997C21.7485 1.18463 21.8738 0.882205 22.0968 0.659224C22.3197 0.436243 22.6222 0.310974 22.9375 0.310974C23.2528 0.310974 23.5553 0.436243 23.7782 0.659224L33.2783 10.1592C33.3888 10.2695 33.4766 10.4006 33.5364 10.5448C33.5963 10.6891 33.6271 10.8438 33.6271 11C33.6271 11.1562 33.5963 11.3108 33.5364 11.4551C33.4766 11.5994 33.3888 11.7304 33.2783 11.8407L23.7782 21.3407C23.5553 21.5637 23.2528 21.689 22.9375 21.689C22.6222 21.689 22.3197 21.5637 22.0968 21.3407C21.8738 21.1177 21.7485 20.8153 21.7485 20.5C21.7485 20.1846 21.8738 19.8822 22.0968 19.6592L29.5709 12.1875H1.5625C1.24756 12.1875 0.94551 12.0624 0.722811 11.8397C0.500111 11.617 0.375 11.3149 0.375 11Z" fill="url(#paint0_linear_72_407)"/>
<defs>
<linearGradient id="paint0_linear_72_407" x1="17.0011" y1="0.310974" x2="17.0011" y2="21.689" gradientUnits="userSpaceOnUse">
<stop stop-color="#F4E69A"/>
<stop offset="1" stop-color="#D1A951"/>
</linearGradient>
</defs>
</svg>
