<svg width="96" height="35" viewBox="0 0 96 35" fill="none" xmlns="http://www.w3.org/2000/svg">
<path d="M0.0214844 0.0470925H11.3329C13.1113 -0.0421286 14.8942 0.0780375 16.6438 0.405052C18.1032 0.689782 19.4299 1.43338 20.4254 2.52455C21.3568 3.678 21.8339 5.12512 21.7686 6.5987C21.7683 7.90501 21.3351 9.17535 20.5351 10.216C19.72 11.1027 18.6616 11.7367 17.4884 12.0411C18.5156 12.3306 19.472 12.8243 20.2989 13.4918C21.3338 14.4175 22.0188 15.6633 22.241 17.0243C22.5212 18.5085 22.2429 20.0426 21.4585 21.3386C20.7453 22.3347 19.7265 23.0778 18.5525 23.4581C16.7924 24.0207 14.9442 24.2664 13.096 24.1835H0.0214844C0.0214844 16.1372 0.0214844 8.09099 0.0214844 0.0447374M8.29327 5.32229C8.29327 6.63167 8.29327 7.94184 8.29327 9.25278C9.30488 9.23866 10.3189 9.28576 11.3305 9.21982C11.663 9.22654 11.991 9.14371 12.2794 8.98023C12.5677 8.81675 12.8055 8.5788 12.9672 8.29195C13.1039 7.96339 13.169 7.61013 13.1583 7.25512C13.1476 6.9001 13.0613 6.55128 12.9051 6.23132C12.6916 5.93806 12.4069 5.7023 12.0773 5.54556C11.7476 5.38882 11.3834 5.31611 11.0179 5.33407C10.1089 5.31052 9.1999 5.33407 8.29327 5.33407M8.29327 15.0602C8.29327 16.3696 8.29327 17.6798 8.29327 18.9907C9.17366 18.9907 10.0564 18.9907 10.9368 18.9907C11.5335 19.0254 12.13 18.9214 12.6785 18.6869C12.8854 18.5725 13.0622 18.4117 13.1944 18.2173C13.3266 18.023 13.4106 17.8006 13.4396 17.5683C13.5187 17.2441 13.5232 16.9066 13.4526 16.5805C13.382 16.2544 13.2381 15.9482 13.0316 15.6843C12.519 15.245 11.8531 15.0202 11.1754 15.0579C10.2163 15.0461 9.24762 15.0484 8.29327 15.0484V15.0602Z" fill="white"/>
<path d="M82.9635 0H92.1851C91.1417 6.09945 90.0965 12.1981 89.0499 18.296H85.9103C84.9305 12.1934 83.9481 6.09474 82.9635 0Z" fill="white"/>
<path d="M94.6448 0.230682C94.8613 0.179049 95.0888 0.195751 95.2952 0.278435C95.5015 0.36112 95.6762 0.505619 95.7949 0.691577C95.9137 0.877534 95.9703 1.09558 95.9569 1.31499C95.9434 1.5344 95.8607 1.74412 95.7201 1.91461C95.5795 2.0851 95.3883 2.20776 95.1734 2.26531C94.9585 2.32287 94.7308 2.31241 94.5222 2.23542C94.3136 2.15843 94.1347 2.01878 94.0108 1.83616C93.8868 1.65353 93.8241 1.43712 93.8314 1.21743C93.8378 0.987417 93.921 0.765943 94.0682 0.587479C94.2153 0.409016 94.4179 0.283575 94.6448 0.230682ZM94.5566 0.447342C94.3667 0.535514 94.2145 0.686731 94.1261 0.874565C94.0378 1.0624 94.0191 1.2749 94.0734 1.47494C94.1277 1.67497 94.2513 1.84981 94.4229 1.9689C94.5945 2.08799 94.8033 2.14376 95.0124 2.12646C95.1436 2.10974 95.2692 2.06443 95.3805 1.9938C95.4918 1.92318 95.5858 1.829 95.6557 1.71809C95.7256 1.60719 95.7698 1.48233 95.7847 1.35256C95.7997 1.2228 95.7851 1.09137 95.7422 0.967797C95.7047 0.852738 95.6432 0.746794 95.5614 0.65688C95.4795 0.566965 95.3791 0.495104 95.2672 0.445988C95.1553 0.396872 95.0344 0.371606 94.9119 0.371839C94.7894 0.372072 94.6683 0.3978 94.5566 0.447342Z" fill="white"/>
<path d="M22.8423 24.3295C27.711 16.3507 32.5806 8.3728 37.451 0.39563H38.2216C43.0967 8.37123 47.9686 16.3492 52.8373 24.3295H43.6828C43.2224 23.371 42.769 22.4078 42.3085 21.4493H33.364L31.9945 24.3295H22.8423ZM37.8231 11.9634C37.1169 13.4612 36.4123 14.9605 35.7093 16.4614H39.9752C39.2578 14.9621 38.5405 13.4627 37.8231 11.9634Z" fill="white"/>
<path d="M54.6626 24.1881C55.0093 16.313 55.3568 8.43711 55.7051 0.560425H56.3875C60.2319 3.63134 64.0763 6.70305 67.9207 9.77554C71.9608 6.70776 75.9978 3.63605 80.0315 0.560425H80.6493C80.8943 8.43554 81.1385 16.3114 81.3818 24.1881H73.3916C73.2325 21.3323 73.0774 18.4757 72.9263 15.6183L67.8874 19.5323C66.0503 18.1601 64.2139 16.7864 62.3784 15.4111C62.2654 18.336 62.1542 21.2617 62.0444 24.1881H54.6626Z" fill="white"/>
<path d="M94.5065 0.645202C94.7676 0.617672 95.0315 0.64006 95.2841 0.711142C95.3378 0.755686 95.3775 0.814673 95.398 0.880946C95.4184 0.947219 95.4189 1.01793 95.3994 1.0845C95.38 1.15107 95.3415 1.21064 95.2885 1.25598C95.2354 1.30132 95.1701 1.33048 95.1006 1.33993C95.2175 1.5142 95.3392 1.69082 95.4466 1.8698C95.1221 1.92397 95.0789 1.52362 94.9096 1.33522H94.6949C94.6949 1.51184 94.6949 1.68611 94.6949 1.86274H94.5065C94.5065 1.45611 94.5065 1.05026 94.5065 0.645202ZM94.6949 0.793567C94.6949 0.923092 94.6949 1.05262 94.6949 1.17979C94.8347 1.18502 94.9748 1.17555 95.1125 1.15153C95.1467 1.13647 95.1753 1.11146 95.1947 1.07984C95.2141 1.04822 95.2232 1.0115 95.2209 0.974611C95.2186 0.93772 95.2048 0.902414 95.1816 0.873424C95.1583 0.844434 95.1268 0.823145 95.091 0.812407C94.9596 0.79716 94.8272 0.790865 94.6949 0.793567Z" fill="white"/>
<path d="M86.9458 20.0904C87.5406 19.9314 88.1735 19.9902 88.7279 20.2558C89.2823 20.5215 89.7205 20.9761 89.9619 21.5357C90.2033 22.0954 90.2314 22.7224 90.0411 23.3009C89.8508 23.8794 89.4549 24.3705 88.9265 24.6834C88.3981 24.9964 87.7727 25.1101 87.166 25.0036C86.5592 24.8971 86.012 24.5776 85.6253 24.104C85.2386 23.6304 85.0386 23.0348 85.062 22.4269C85.0854 21.8191 85.3308 21.2401 85.7529 20.7969C86.0769 20.4573 86.4897 20.2128 86.9458 20.0904Z" fill="white"/>
<path d="M9.96574 27.6924C10.5596 27.5477 11.1773 27.526 11.7801 27.6285C12.3829 27.731 12.9577 27.9557 13.4682 28.2883C13.8959 28.5741 14.2582 28.9451 14.5319 29.3774C14.8055 29.8098 14.9845 30.2939 15.0572 30.7986C15.1243 31.2755 15.0941 31.7608 14.9683 32.2259C14.8425 32.691 14.6237 33.1266 14.3247 33.5069C13.9932 33.9184 13.5823 34.2609 13.1159 34.5148C12.6495 34.7686 12.1367 34.9287 11.6072 34.9859H10.4548C9.7956 34.9126 9.16505 34.6791 8.61962 34.3063C8.07418 33.9336 7.63086 33.4331 7.32935 32.8498C7.0806 32.341 6.95741 31.7813 6.96985 31.2164C6.98229 30.6516 7.13001 30.0976 7.40093 29.5999C7.67017 29.1227 8.03772 28.7064 8.47987 28.3779C8.92203 28.0493 9.429 27.8158 9.96813 27.6924M10.567 29.8826C10.3327 29.9543 10.1201 30.082 9.94816 30.2547C9.7762 30.4273 9.65026 30.6393 9.58161 30.8716C9.50996 31.115 9.50215 31.3724 9.55891 31.6195C9.61567 31.8667 9.73514 32.0956 9.90609 32.2847C10.1268 32.5195 10.4171 32.6794 10.7355 32.7416C11.0539 32.8038 11.3841 32.765 11.6788 32.6309C11.9128 32.5208 12.1142 32.3531 12.2636 32.1439C12.413 31.9348 12.5053 31.6912 12.5316 31.4367C12.558 31.1821 12.5175 30.9251 12.4141 30.6905C12.3107 30.4558 12.1479 30.2514 11.9412 30.0969C11.7441 29.9585 11.5168 29.8679 11.2777 29.8323C11.0385 29.7967 10.7943 29.8171 10.5646 29.892L10.567 29.8826Z" fill="white"/>
<path d="M18.4618 27.69C19.0652 27.5448 19.6928 27.5268 20.3037 27.6372C20.9146 27.7476 21.495 27.9838 22.0072 28.3305C22.7896 28.8737 23.3284 29.695 23.5103 30.622C23.6008 31.0951 23.5947 31.5812 23.4923 32.052C23.3899 32.5227 23.1932 32.9685 22.9139 33.3632C22.5848 33.8132 22.1638 34.19 21.678 34.4695C21.1923 34.749 20.6526 34.9249 20.0938 34.9858H18.939C18.2813 34.9144 17.6518 34.6835 17.1065 34.3137C16.5611 33.9439 16.117 33.4466 15.8135 32.8662C15.566 32.3633 15.4414 31.8101 15.4497 31.2511C15.458 30.692 15.599 30.1426 15.8613 29.647C16.1298 29.159 16.5006 28.733 16.949 28.3976C17.3975 28.0621 17.9132 27.8249 18.4618 27.7017M19.0535 29.8942C18.8185 29.9646 18.6048 30.0917 18.432 30.264C18.2591 30.4363 18.1324 30.6483 18.0634 30.881C17.9771 31.1612 17.9764 31.4602 18.0612 31.7408C18.1461 32.0214 18.3128 32.2712 18.5406 32.4589C18.8118 32.6721 19.1482 32.7882 19.4949 32.7882C19.8416 32.7882 20.1781 32.6721 20.4492 32.4589C20.7214 32.2404 20.9076 31.9348 20.9756 31.5951C21.0435 31.2554 20.9889 30.9029 20.8212 30.5987C20.6536 30.2945 20.3833 30.0578 20.0574 29.9296C19.7316 29.8014 19.3705 29.7897 19.0368 29.8966L19.0535 29.8942Z" fill="white"/>
<path d="M32.0874 28.3401C32.4139 28.0543 32.7946 27.8354 33.2074 27.6959C33.6202 27.5564 34.057 27.4992 34.4924 27.5276C35.1878 27.5089 35.8724 27.7012 36.4536 28.0787C36.776 28.3513 37.0016 28.7185 37.0978 29.1267C36.5275 29.3433 35.9573 29.56 35.3847 29.7743C35.3486 29.6427 35.2855 29.5198 35.1993 29.4133C35.1131 29.3067 35.0057 29.2188 34.8837 29.1549C34.7189 29.09 34.5415 29.0628 34.3646 29.0755C34.1877 29.0881 34.0161 29.1403 33.8626 29.2279C33.804 29.267 33.756 29.3196 33.7228 29.3811C33.6897 29.4427 33.6724 29.5114 33.6724 29.5812C33.6724 29.6509 33.6897 29.7196 33.7228 29.7812C33.756 29.8428 33.804 29.8954 33.8626 29.9344C34.2396 30.0907 34.6469 30.163 35.0555 30.1463C35.4407 30.152 35.8191 30.247 36.1602 30.4238C36.5014 30.6005 36.7956 30.854 37.019 31.1637C37.2693 31.6213 37.3673 32.1451 37.2992 32.6607C37.2311 33.1764 37.0004 33.6578 36.6397 34.0368C36.3124 34.3476 35.9257 34.5909 35.5022 34.7526C35.0786 34.9144 34.6267 34.9913 34.1727 34.9788C33.3451 35.0023 32.5347 34.7418 31.8798 34.2417C31.5964 33.983 31.3818 33.6596 31.2548 33.2997L33.0394 32.652C33.1181 32.8177 33.2312 32.9652 33.3714 33.0848C33.5115 33.2045 33.6756 33.2938 33.853 33.3468C34.019 33.3942 34.1947 33.3974 34.3623 33.3561C34.53 33.3147 34.6835 33.2302 34.8073 33.1113C34.8462 33.055 34.8718 32.9909 34.8821 32.9236C34.8925 32.8563 34.8874 32.7876 34.8673 32.7225C34.8471 32.6574 34.8124 32.5976 34.7657 32.5475C34.719 32.4974 34.6614 32.4583 34.5974 32.4331C34.2404 32.3461 33.8747 32.2987 33.507 32.2918C33.1676 32.262 32.8378 32.1649 32.5373 32.0062C32.2367 31.8476 31.9717 31.6308 31.7582 31.3686C31.4534 30.9029 31.3199 30.3481 31.3798 29.7968C31.4398 29.2456 31.6895 28.7313 32.0874 28.3401Z" fill="white"/>
<path d="M43.4656 27.5534H43.7042C45.1819 29.9728 46.6587 32.3921 48.1347 34.8115H45.36C45.2192 34.5195 45.0833 34.2275 44.9425 33.9355H42.2321L41.8194 34.8091H39.0375L43.4656 27.551M43.5777 31.0577C43.3646 31.5114 43.1515 31.9659 42.9384 32.4212H44.2291L43.5777 31.0577Z" fill="white"/>
<path d="M50.1485 27.5981H50.3465C51.5204 28.526 52.6847 29.4633 53.8514 30.3959C55.0801 29.468 56.3041 28.5284 57.5328 27.5981H57.7118C57.7865 29.9861 57.8604 32.3749 57.9336 34.7644H55.5095C55.4618 33.8978 55.4149 33.0343 55.3687 32.1739L53.8442 33.3514C53.2859 32.9369 52.7324 32.5154 52.1741 32.1032C52.1391 32.9903 52.105 33.8774 52.0716 34.7644H49.8312C49.9362 32.378 50.0419 29.9893 50.1485 27.5981Z" fill="white"/>
<path d="M78.8838 27.6876C79.4777 27.5531 80.0933 27.5414 80.692 27.6533C81.2907 27.7652 81.8595 27.9982 82.3624 28.3376C83.165 28.893 83.7115 29.7399 83.8821 30.6926C83.968 31.1869 83.9487 31.6934 83.8255 32.18C83.7023 32.6665 83.4778 33.1224 83.1664 33.5187C82.835 33.9299 82.4246 34.2725 81.9586 34.5267C81.4927 34.7809 80.9804 34.9417 80.4513 34.9999H79.2965C78.5873 34.923 77.9122 34.6595 77.3414 34.2369C76.7706 33.8144 76.3252 33.2483 76.0518 32.5979C75.8549 32.0984 75.7741 31.5618 75.8154 31.0274C75.8567 30.493 76.0191 29.9746 76.2905 29.5105C76.5717 29.0483 76.9461 28.6483 77.3906 28.3351C77.8351 28.0219 78.3401 27.8023 78.8742 27.69M79.404 29.8943C79.1406 29.9741 78.9047 30.1244 78.7228 30.3285C78.5408 30.5327 78.4199 30.7826 78.3733 31.0506C78.326 31.3184 78.3539 31.5939 78.454 31.8471C78.5541 32.1004 78.7225 32.3218 78.9411 32.4872C79.1794 32.662 79.464 32.7651 79.7603 32.7839C80.0567 32.8027 80.3521 32.7364 80.6112 32.5931C80.8258 32.4706 81.0065 32.2979 81.1375 32.0902C81.2684 31.8824 81.3455 31.646 81.362 31.4019C81.3785 31.1578 81.334 30.9133 81.2321 30.6903C81.1303 30.4672 80.9744 30.2723 80.7782 30.1228C80.5847 29.982 80.3605 29.8876 80.1237 29.8472C79.8868 29.8067 79.6437 29.8212 79.4135 29.8896L79.404 29.8943Z" fill="white"/>
<path d="M84.5574 27.5958C84.6909 27.5798 84.826 27.608 84.9415 27.6758C86.4748 28.6037 88.0066 29.5316 89.5368 30.4595C89.5368 29.5363 89.5368 28.6132 89.5368 27.69H92.0444C92.0444 30.1141 92.0444 32.5389 92.0444 34.9646C91.9437 34.9637 91.8447 34.937 91.7578 34.8869C90.1974 33.9449 88.6348 33.0115 87.0696 32.0868C87.0696 32.9817 87.0696 33.8742 87.0696 34.7691H84.562C84.5573 32.378 84.5558 29.9869 84.5574 27.5958Z" fill="white"/>
<path d="M0 27.69H3.80068C4.51616 27.635 5.23221 27.789 5.85968 28.1328C6.07128 28.2866 6.24594 28.4846 6.37125 28.7127C6.49655 28.9407 6.56943 29.1932 6.58469 29.4522C6.59995 29.7112 6.55722 29.9704 6.45954 30.2112C6.36187 30.452 6.21164 30.6687 6.01953 30.8457C5.80201 31 5.56017 31.1178 5.30378 31.1943C5.56485 31.2545 5.81057 31.3672 6.02565 31.5252C6.24073 31.6832 6.42057 31.8831 6.55397 32.1127C6.75074 32.456 6.8214 32.8558 6.75402 33.2446C6.68664 33.6333 6.48535 33.9872 6.18416 34.2464C5.59291 34.6108 4.90235 34.7867 4.20628 34.7503C2.80578 34.7503 1.40766 34.7503 0.00715764 34.7503C0.00715764 32.3953 0.00715764 30.0364 0.00715764 27.6736M2.5147 29.2184C2.5147 29.6015 2.5147 29.9846 2.5147 30.3677C2.89073 30.3888 3.26796 30.3731 3.64083 30.3206C3.74441 30.2773 3.83277 30.2048 3.89489 30.1122C3.95701 30.0197 3.99014 29.9111 3.99014 29.8001C3.99014 29.6891 3.95701 29.5805 3.89489 29.488C3.83277 29.3954 3.74441 29.3229 3.64083 29.2796C3.2679 29.2129 2.88801 29.1924 2.50993 29.2184M2.50993 32.0703C2.50993 32.4534 2.50993 32.8365 2.50993 33.2196C2.92016 33.2419 3.33162 33.2254 3.73865 33.1701C3.84418 33.1258 3.93378 33.0512 3.99585 32.9559C4.05792 32.8607 4.08959 32.7493 4.08676 32.6361C4.08393 32.523 4.04673 32.4133 3.97999 32.3212C3.91324 32.2291 3.82002 32.1589 3.7124 32.1198C3.31271 32.0714 2.90923 32.0612 2.50754 32.0892L2.50993 32.0703Z" fill="white"/>
<path d="M24.0496 34.7691C24.0496 32.4141 24.0496 30.0552 24.0496 27.6924H26.5571C26.5571 28.6744 26.5571 29.6564 26.5571 30.6408C27.1933 29.6596 27.8335 28.6768 28.4777 27.6924H31.2072L29.0265 30.9376C29.8615 32.2163 30.6966 33.4903 31.5435 34.7715H28.5469C27.8789 33.7682 27.2227 32.7603 26.5571 31.7594C26.5571 32.7627 26.5571 33.7682 26.5571 34.7715L24.0496 34.7691Z" fill="white"/>
<path d="M58.7781 27.6924H61.288C61.288 30.0474 61.288 32.4024 61.288 34.7574H58.7781C58.7781 32.4055 58.7781 30.0505 58.7781 27.6924Z" fill="white"/>
<path d="M62.1637 27.6924H64.6689C64.6689 29.5073 64.6689 31.323 64.6689 33.1395H66.8663C66.8663 33.6811 66.8663 34.2236 66.8663 34.7668H62.1613C62.1613 32.4087 62.1621 30.0505 62.1637 27.6924Z" fill="white"/>
<path d="M67.372 27.6924H69.87C69.87 29.5073 69.87 31.323 69.87 33.1395H72.0673V34.7644H67.3601C67.3665 32.4079 67.3705 30.0505 67.372 27.6924Z" fill="white"/>
<path d="M72.6662 27.6924H75.1738C75.1738 30.0474 75.1738 32.4024 75.1738 34.7574H72.6662C72.6646 32.4055 72.6646 30.0505 72.6662 27.6924Z" fill="white"/>
<path d="M38.4529 30.3724C38.6588 30.3074 38.8797 30.3048 39.0871 30.365C39.2944 30.4251 39.4788 30.5452 39.6162 30.7099C39.7537 30.8745 39.838 31.0761 39.8583 31.2885C39.8785 31.5009 39.8338 31.7144 39.7298 31.9015C39.6259 32.0885 39.4675 32.2405 39.2752 32.3378C39.0829 32.4352 38.8654 32.4733 38.6508 32.4474C38.4363 32.4214 38.2346 32.3326 38.0717 32.1923C37.9088 32.052 37.7923 31.8668 37.7371 31.6605C37.6677 31.3962 37.7031 31.1157 37.8362 30.8763C37.9692 30.6369 38.1898 30.4566 38.4529 30.3724Z" fill="white"/>
<path d="M48.223 30.3489C48.4945 30.286 48.7802 30.3292 49.0202 30.4694C49.2603 30.6096 49.4361 30.8359 49.511 31.1011C49.5858 31.3663 49.554 31.6498 49.422 31.8923C49.29 32.1349 49.0682 32.3176 48.8028 32.4025C48.663 32.4452 48.5158 32.4597 48.3702 32.4452C48.2245 32.4307 48.0833 32.3875 47.9549 32.3181C47.8265 32.2487 47.7134 32.1545 47.6226 32.0412C47.5317 31.9278 47.465 31.7976 47.4261 31.6582C47.3895 31.5206 47.3811 31.3771 47.4015 31.2362C47.4219 31.0953 47.4707 30.9598 47.5449 30.8378C47.6192 30.7158 47.7174 30.6096 47.8339 30.5257C47.9503 30.4417 48.0826 30.3816 48.223 30.3489Z" fill="white"/>
</svg>
