<svg width="189" height="28" viewBox="0 0 189 28" fill="none" xmlns="http://www.w3.org/2000/svg">
<path fill-rule="evenodd" clip-rule="evenodd" d="M23.7192 0.292721H19.1043L19.0993 0.290222C17.8228 9.09418 16.5471 17.8981 15.2723 26.7021H19.3412C19.4642 25.2795 19.5855 23.856 19.7052 22.4317H22.697C22.7945 23.1097 22.8909 23.7877 22.9872 24.4653L22.9875 24.4678C23.0906 25.193 23.1936 25.9179 23.2979 26.6421H28.1546C26.677 17.8598 25.1985 9.07669 23.7192 0.292721ZM21.0707 9.48957L21.0707 9.48899C21.1471 8.65989 21.2236 7.82978 21.2934 6.99689L21.3008 6.99939C21.3729 10.1893 21.7596 13.3575 22.1458 16.5216C22.2672 17.5165 22.3885 18.511 22.5001 19.5057H20.0692C20.1436 18.8708 20.2211 18.2365 20.2987 17.6025C20.4265 16.5572 20.5543 15.5124 20.6676 14.4657C20.7656 12.8017 20.918 11.1477 21.0707 9.48957ZM105.059 0.55831H104.498C103.198 0.649585 101.942 1.07231 100.85 1.78641C99.7574 2.50051 98.8654 3.48233 98.2579 4.63878C97.6901 6.03188 97.4141 7.52711 97.4472 9.0316C97.4802 10.5361 97.8215 12.0177 98.4499 13.3844C95.9673 14.7272 94.0184 16.8815 92.9275 19.4889C92.3368 21.2903 92.4765 23.2521 93.3164 24.9512C93.7518 25.6925 94.3494 26.325 95.0641 26.8011C95.7789 27.2773 96.5922 27.5846 97.4427 27.6998H100.115C101.927 27.3724 103.573 26.4365 104.783 25.0461C105.691 26.2246 106.892 27.1432 108.266 27.7098H110.011C111.352 27.3118 112.537 26.5059 113.402 25.4035L113.231 25.1639C113.096 24.9748 112.961 24.7862 112.828 24.5964C112.226 25.2865 111.444 25.7945 110.569 26.0631C110.123 26.0987 109.675 26.0291 109.261 25.8599C108.847 25.6907 108.478 25.4265 108.183 25.0886C107.446 24.4142 106.853 23.5974 106.438 22.6873C107.2 20.6916 108.07 18.7388 109.044 16.8377C109.352 16.1965 109.844 15.6622 110.457 15.3035C110.68 15.1793 110.938 15.1363 111.189 15.1818C111.439 15.2274 111.666 15.3587 111.831 15.5534C112.003 15.8732 112.048 16.2311 112.094 16.5891C112.139 16.947 112.185 17.305 112.357 17.6248C112.472 17.7553 112.612 17.8611 112.768 17.9358C112.925 18.0106 113.095 18.0527 113.268 18.0597C113.442 18.0667 113.615 18.0384 113.777 17.9766C113.939 17.9147 114.087 17.8206 114.212 17.6998C114.547 17.3087 114.732 16.81 114.732 16.2942C114.732 15.7785 114.547 15.2798 114.212 14.8887C113.805 14.4549 113.291 14.1359 112.722 13.9636C112.153 13.7912 111.549 13.7716 110.971 13.9067C110.404 14.0162 109.869 14.2529 109.406 14.5991C108.943 14.9453 108.564 15.392 108.298 15.9057C107.668 17.0943 107.109 18.3177 106.55 19.5416C106.249 20.2012 105.948 20.8609 105.635 21.5154C104.032 18.8663 102.609 16.1113 101.377 13.2695C103.234 12.3184 105.017 11.2275 106.71 10.0061C107.863 9.13408 108.722 7.9289 109.171 6.55283C109.436 5.87133 109.54 5.13764 109.476 4.40902C109.411 3.6804 109.18 2.97656 108.799 2.35242C108.357 1.78335 107.789 1.32504 107.14 1.01368C106.491 0.702318 105.779 0.546426 105.059 0.55831ZM100.973 11.9976C100.214 9.80269 100.121 7.43133 100.706 5.18351V5.18101C101.06 4.20399 101.765 3.39482 102.684 2.91256C103.602 2.43029 104.668 2.30982 105.67 2.57481C106.223 2.78921 106.686 3.18605 106.983 3.69983C107.281 4.21362 107.394 4.81365 107.306 5.4009C107.245 6.14634 107.029 6.87065 106.67 7.52674C106.312 8.18283 105.82 8.75601 105.226 9.20901C103.857 10.2104 102.437 11.1411 100.973 11.9976ZM95.5794 22.8784C95.34 22.0693 95.3325 21.2091 95.5578 20.396C96.0082 18.2425 97.1909 16.3126 98.9037 14.9362C100.243 18.1502 101.922 21.2112 103.913 24.0666C103.244 24.9746 102.27 25.6086 101.17 25.8507C100.439 26.0254 99.6791 26.0371 98.9433 25.8851C98.2075 25.7331 97.5139 25.4212 96.9116 24.9712C96.2804 24.4126 95.8188 23.6874 95.5794 22.8784ZM138.433 0.438435C140.076 0.120521 141.776 0.316813 143.303 1.00066C143.979 1.52 144.541 2.17343 144.954 2.9202C145.367 3.66696 145.622 4.49104 145.704 5.341C146.137 8.02278 146.331 10.7381 146.282 13.4545C146.336 16.1498 146.17 18.845 145.783 21.513C145.613 23.1929 144.934 24.7806 143.839 26.0632C143.226 26.5451 142.523 26.8993 141.772 27.1049C141.02 27.3104 140.235 27.3632 139.463 27.2601C138.821 27.282 138.182 27.1703 137.585 26.932C136.989 26.6937 136.448 26.3341 135.998 25.8758C135.177 24.8091 134.635 23.5545 134.419 22.2251C133.933 19.4525 133.717 16.6389 133.776 13.8243C133.736 11.3185 133.877 8.81316 134.2 6.32801C134.359 4.79212 134.871 3.31408 135.696 2.01015C136.027 1.58003 136.44 1.2199 136.91 0.950566C137.381 0.681228 137.901 0.508017 138.438 0.440934L138.433 0.438435ZM139.343 3.1221C138.96 3.62223 138.761 4.24061 138.782 4.87123C138.636 7.05217 138.638 9.23822 138.64 11.4239V11.4246C138.641 12.2913 138.641 13.1579 138.633 14.0242C138.56 17.0765 138.656 20.1306 138.922 23.1721C138.997 23.6294 139.146 24.2591 139.697 24.3341C140.126 24.384 140.762 24.4465 140.944 23.9318C141.211 22.9672 141.314 21.9645 141.248 20.9657V6.72281C141.323 5.64655 141.176 4.56631 140.817 3.54939C140.763 3.41081 140.678 3.28654 140.568 3.18617C140.458 3.08579 140.327 3.012 140.184 2.97048C140.042 2.92895 139.892 2.9208 139.745 2.94665C139.599 2.97251 139.461 3.03168 139.341 3.1196L139.343 3.1221ZM3.06061 0.348797C2.37332 0.35074 1.68603 0.352684 0.998734 0.352684V26.5622C1.66968 26.5622 2.33897 26.5638 3.00714 26.5655H3.00759C4.34046 26.5688 5.66892 26.5721 6.99737 26.5622C8.65657 26.6478 10.2885 26.1136 11.5774 25.0629C12.7734 23.7705 13.4462 22.0779 13.4647 20.3153C13.7201 18.3104 13.3792 16.2747 12.4849 14.4632C12.2018 13.9264 11.7848 13.4723 11.2744 13.1451C10.764 12.818 10.1778 12.629 9.57284 12.5966C10.0258 12.5649 10.4654 12.4295 10.8579 12.2008C11.2503 11.9721 11.5852 11.6561 11.8367 11.2773C12.5932 9.84875 12.8984 8.22346 12.7118 6.61707C12.7753 4.90347 12.2469 3.2204 11.2159 1.85194C10.6789 1.34335 10.0451 0.948467 9.35244 0.690871C8.65976 0.433275 7.92238 0.318256 7.18436 0.352684C5.80977 0.341023 4.43519 0.34491 3.06061 0.348797ZM5.55381 3.54106V11.1473C6.12021 11.1858 6.68915 11.1581 7.24918 11.0649C7.83758 10.815 7.99714 10.1253 8.07194 9.56561C8.19051 8.3453 8.19885 7.11674 8.09687 5.89493C8.10662 5.14772 7.86706 4.41865 7.41623 3.82346C7.02424 3.4306 6.47818 3.47473 5.96215 3.51644C5.82263 3.52772 5.6853 3.53882 5.55381 3.54106ZM6.26489 23.5331C6.03954 23.5245 5.81832 23.516 5.61364 23.5312L5.61614 23.5237C5.61447 20.4152 5.61447 17.3059 5.61614 14.1958C6.51369 14.1783 7.70294 14.1833 8.13177 15.1503C8.62655 16.6988 8.79632 18.3331 8.63041 19.9504C8.67988 21.0005 8.48172 22.0475 8.05199 23.0064C7.63458 23.5854 6.93167 23.5585 6.26489 23.5331ZM30.9545 26.5821V0.345167H38.1674C38.8961 0.312562 39.6231 0.439145 40.2982 0.716147C40.9732 0.993149 41.5801 1.41394 42.0767 1.94937C43.1307 3.40374 43.6472 5.18021 43.5377 6.97437C43.6659 8.75536 43.1233 10.5198 42.0169 11.9194C41.3536 12.5974 40.4913 13.0448 39.5561 13.1963C40.0885 13.3719 40.5924 13.6244 41.052 13.9459C41.767 14.5526 42.2773 15.3661 42.513 16.2748C42.8691 17.7098 43.0277 19.1869 42.9843 20.6651C42.9596 22.6854 43.1266 24.7034 43.4829 26.6921H38.6286C38.5915 26.1287 38.5218 25.5697 38.452 25.009L38.4366 24.8855C38.299 23.7322 38.3095 22.572 38.32 21.4118C38.3295 20.365 38.339 19.3181 38.2397 18.2763C38.2262 17.5772 37.9833 16.9022 37.5483 16.3556C37.1134 15.809 36.5107 15.4214 35.8337 15.2528C35.8221 17.7674 35.826 20.281 35.8299 22.7949V22.7952V22.7955V22.7958V22.796V22.7963V22.7966V22.7969C35.8318 24.0543 35.8337 25.3118 35.8337 26.5696H30.9745L30.9545 26.5821ZM35.7739 11.2597V3.77406C36.3897 3.71621 37.0106 3.75052 37.6164 3.87591C38.3319 4.17826 38.5065 5.03534 38.6137 5.72749C38.7786 7.05427 38.7928 8.39551 38.656 9.72551C38.5738 10.2827 38.3768 10.9574 37.7859 11.1623C37.1213 11.2725 36.4461 11.3052 35.7739 11.2597ZM59.387 0.417664H55.1361C55.1086 4.94541 55.1436 9.47816 55.3754 14.0134C55.1556 12.9212 54.8492 11.8496 54.5429 10.7782L54.5428 10.7782L54.5428 10.7781L54.5428 10.7781L54.5428 10.778L54.5428 10.778L54.5428 10.7779C54.4497 10.4523 54.3566 10.1267 54.2659 9.8005C53.8185 8.09632 53.3748 6.39137 52.9311 4.6865L52.9306 4.68424L52.9297 4.68105L52.9288 4.67768L52.9279 4.67413L52.927 4.67077L52.9262 4.66759C52.5681 3.29156 52.2101 1.91558 51.85 0.540102H47.4794V26.7771H51.855C51.8522 25.739 51.8543 24.7005 51.8564 23.6619V23.6617V23.6615V23.6613V23.6611V23.6609V23.6607V23.6605C51.8638 19.9721 51.8712 16.2818 51.663 12.5991C51.8313 13.7265 52.0627 14.8436 52.3562 15.9449C53.1165 18.2326 53.7848 20.5517 54.4532 22.8711L54.4533 22.8712L54.4533 22.8712L54.4533 22.8713L54.4533 22.8713L54.4533 22.8714L54.4534 22.8717L54.4534 22.8717L54.4534 22.8717L54.4535 22.8718L54.4535 22.8718L54.4535 22.8719L54.4535 22.8719C54.8173 24.1344 55.1812 25.397 55.5599 26.6546H59.387V0.417664ZM63.765 0.475037H73.3039V4.44306H68.2627V11.4546H72.7505V15.1178H68.3175V22.734H74.0893V26.6995H63.765V0.475037ZM79.4827 0.806009C78.7304 1.14456 78.0695 1.65813 77.555 2.30408C76.6092 3.83016 76.2568 5.65177 76.5652 7.42153C77.4258 10.1478 78.9273 12.627 80.9433 14.6504C82.5146 16.1752 83.5918 18.1385 84.0348 20.2851C84.1457 21.3791 84.0067 22.4839 83.6284 23.516C83.4417 23.7822 83.1648 23.9715 82.8494 24.0487C82.534 24.1259 82.2013 24.0858 81.9132 23.9358C81.6506 23.791 81.4286 23.5823 81.2674 23.3291C81.1062 23.0759 81.0111 22.7862 80.9907 22.4865C80.7506 20.9624 80.8014 19.4065 81.1403 17.9013H76.8868C76.6427 19.1196 76.5756 20.3669 76.6874 21.6045C76.6959 22.3984 76.8616 23.1827 77.1749 23.9119C77.4882 24.6411 77.9428 25.3006 78.5124 25.8524C79.2269 26.3841 80.0417 26.7646 80.9075 26.9708C81.7733 27.177 82.6719 27.2046 83.5486 27.0518C84.316 26.9691 85.0547 26.7129 85.7089 26.3026C86.3632 25.8922 86.9161 25.3385 87.3259 24.683C88.1785 23.1925 88.5699 21.4817 88.4503 19.7679C87.9875 17.174 86.7595 14.7787 84.9249 12.8913C83.2169 11.2196 81.8953 9.19303 81.053 6.95427C80.8788 5.88593 80.9306 4.79283 81.2051 3.74586C81.2688 3.5954 81.3654 3.4612 81.4878 3.35316C81.6102 3.24512 81.7553 3.166 81.9122 3.12163C82.0692 3.07726 82.2341 3.06878 82.3948 3.09682C82.5555 3.12485 82.7078 3.18867 82.8406 3.28359C83.1402 3.55565 83.3373 3.92265 83.399 4.32307C83.6015 5.63428 83.6192 6.96749 83.4515 8.28361H87.3358C87.6655 7.30487 87.7779 6.26575 87.6651 5.23894C87.5522 4.21214 87.2169 3.22243 86.6826 2.33906C86.1068 1.63813 85.3672 1.09053 84.5295 0.744858C83.6919 0.399188 82.782 0.266146 81.8807 0.357544C81.0572 0.313716 80.2351 0.467462 79.4827 0.806009ZM125.868 0.503357H130.121V26.7403H126.416C126.036 25.4555 125.65 24.1716 125.265 22.8876C124.592 20.6458 123.919 18.4037 123.272 16.1556C123.049 15.3809 122.886 14.5929 122.723 13.8041L122.723 13.8039L122.722 13.8038C122.641 13.4121 122.56 13.0203 122.472 12.6298C122.739 16.1397 122.724 19.6687 122.709 23.1946V23.1947V23.1948V23.1948V23.1953V23.1958V23.1963C122.704 24.4392 122.699 25.6816 122.706 26.9227H118.276V0.685766H122.649C123.482 3.99412 124.324 7.29998 125.227 10.5908C125.558 11.7089 125.793 12.8534 125.93 14.0116C125.888 9.49889 125.853 5.00112 125.868 0.503357ZM155.669 0.560879H149.747V26.7754C150.426 26.7754 151.105 26.7779 151.784 26.7804C153.142 26.7854 154.5 26.7903 155.858 26.7754C156.708 26.8142 157.557 26.6844 158.356 26.3932C159.155 26.102 159.889 25.6553 160.515 25.0787C161.673 23.6562 162.285 21.8661 162.241 20.0312C162.475 18.2128 162.154 16.366 161.321 14.7338C161.039 14.1789 160.615 13.7089 160.092 13.3721C159.57 13.0354 158.967 12.8439 158.346 12.8173C158.846 12.7853 159.33 12.628 159.753 12.36C160.177 12.0919 160.526 11.7216 160.77 11.2831C161.468 9.73671 161.716 8.0246 161.488 6.34301C161.5 4.72429 160.927 3.15591 159.875 1.9277C158.7 0.948331 157.194 0.459002 155.669 0.560879ZM154.362 11.2106V3.60437H154.37C154.425 3.60002 154.482 3.59514 154.539 3.59017C155.21 3.53222 156.01 3.46322 156.409 4.11911C156.888 5.27727 157.084 6.53293 156.983 7.78229C157.08 8.81557 156.908 9.8565 156.484 10.8033C156.115 11.267 155.534 11.2396 154.976 11.2133C154.764 11.2033 154.555 11.1934 154.362 11.2106ZM154.37 14.3441V23.6494C155.007 23.695 155.646 23.6606 156.275 23.547C156.55 23.3901 156.78 23.1655 156.944 22.8944C157.108 22.6232 157.2 22.3146 157.212 21.9977C157.403 20.5576 157.458 19.1028 157.377 17.6524C157.395 16.7132 157.159 15.7865 156.693 14.9712C156.206 14.3572 155.371 14.3517 154.626 14.3468L154.532 14.3461C154.477 14.3457 154.423 14.3451 154.37 14.3441ZM165.607 0.493347H170.469V22.8123H175.936V26.7778H165.607V0.493347ZM188.27 0.560852H178.671V26.7728H188.99V22.8048H183.159V15.1886H187.714V11.5254H183.226V4.52888H188.27V0.560852Z" fill="white"/>
</svg>
