<svg width="188" height="28" viewBox="0 0 188 28" fill="none" xmlns="http://www.w3.org/2000/svg">
<path fill-rule="evenodd" clip-rule="evenodd" d="M22.7205 0.422176H18.1056L18.1006 0.419678C16.8241 9.22364 15.5484 18.0276 14.2736 26.8316H18.3424C18.4654 25.4089 18.5868 23.9855 18.7065 22.5612H21.6983C21.7958 23.2391 21.8921 23.9171 21.9884 24.5948L21.9888 24.5972C22.0918 25.3225 22.1948 26.0474 22.2992 26.7716H27.1559C25.6783 17.9893 24.1998 9.20615 22.7205 0.422176ZM20.072 9.61902L20.072 9.61844C20.1484 8.78935 20.2248 7.95924 20.2946 7.12635L20.3021 7.12885C20.3742 10.3187 20.7609 13.4869 21.147 16.6511C21.2684 17.646 21.3898 18.6405 21.5013 19.6351H19.0705C19.1448 19.0002 19.2224 18.366 19.2999 17.732C19.4278 16.6867 19.5556 15.6419 19.6688 14.5951C19.7669 12.9311 19.9192 11.2771 20.072 9.61902ZM104.061 0.687766H103.5C102.199 0.779041 100.943 1.20177 99.8508 1.91587C98.7587 2.62997 97.8666 3.61179 97.2592 4.76824C96.6914 6.16133 96.4154 7.65656 96.4484 9.16106C96.4815 10.6656 96.8227 12.1472 97.4512 13.5139C94.9686 14.8566 93.0196 17.011 91.9288 19.6184C91.3381 21.4197 91.4778 23.3816 92.3177 25.0806C92.7531 25.8219 93.3506 26.4545 94.0654 26.9306C94.7802 27.4067 95.5934 27.714 96.4439 27.8293H99.1166C100.928 27.5019 102.574 26.5659 103.784 25.1756C104.692 26.354 105.893 27.2726 107.267 27.8393H109.012C110.354 27.4413 111.538 26.6353 112.403 25.5329L112.232 25.2933C112.097 25.1042 111.963 24.9156 111.829 24.7258C111.227 25.416 110.445 25.924 109.571 26.1926C109.125 26.2282 108.676 26.1586 108.262 25.9893C107.848 25.8201 107.479 25.556 107.185 25.2181C106.447 24.5437 105.854 23.7269 105.439 22.8168C106.201 20.821 107.071 18.8683 108.045 16.9672C108.353 16.3259 108.845 15.7916 109.458 15.4329C109.681 15.3087 109.939 15.2657 110.19 15.3113C110.44 15.3569 110.667 15.4882 110.832 15.6828C111.004 16.0027 111.05 16.3606 111.095 16.7186C111.141 17.0765 111.186 17.4344 111.358 17.7543C111.473 17.8847 111.613 17.9905 111.77 18.0653C111.926 18.14 112.096 18.1822 112.27 18.1892C112.443 18.1962 112.616 18.1679 112.778 18.106C112.94 18.0442 113.088 17.95 113.213 17.8292C113.549 17.4381 113.733 16.9394 113.733 16.4237C113.733 15.908 113.549 15.4093 113.213 15.0181C112.806 14.5844 112.292 14.2653 111.724 14.093C111.155 13.9207 110.551 13.9011 109.972 14.0361C109.405 14.1456 108.87 14.3823 108.407 14.7285C107.944 15.0747 107.565 15.5214 107.299 16.0351C106.669 17.2237 106.11 18.4471 105.552 19.6711C105.25 20.3306 104.949 20.9904 104.637 21.6449C103.033 18.9957 101.61 16.2408 100.378 13.3989C102.236 12.4478 104.018 11.3569 105.711 10.1356C106.864 9.26354 107.723 8.05835 108.172 6.68229C108.437 6.00078 108.542 5.26709 108.477 4.53848C108.413 3.80986 108.181 3.10602 107.8 2.48187C107.358 1.91281 106.791 1.4545 106.142 1.14314C105.493 0.831774 104.78 0.675881 104.061 0.687766ZM99.9743 12.1271C99.2149 9.93215 99.122 7.56079 99.7075 5.31297V5.31047C100.061 4.33345 100.766 3.52428 101.685 3.04201C102.603 2.55975 103.669 2.43927 104.671 2.70426C105.224 2.91867 105.687 3.3155 105.985 3.82929C106.282 4.34307 106.396 4.9431 106.307 5.53036C106.246 6.2758 106.03 7.0001 105.672 7.65619C105.313 8.31228 104.822 8.88546 104.228 9.33847C102.858 10.3398 101.438 11.2706 99.9743 12.1271ZM94.5807 23.0078C94.3413 22.1988 94.3337 21.3385 94.5591 20.5254C95.0095 18.3719 96.1922 16.4421 97.905 15.0656C99.2443 18.2797 100.924 21.3407 102.914 24.1961C102.245 25.1041 101.271 25.7381 100.171 25.9802C99.4405 26.1548 98.6804 26.1665 97.9446 26.0146C97.2088 25.8626 96.5152 25.5506 95.9129 25.1006C95.2817 24.5421 94.8201 23.8169 94.5807 23.0078ZM137.435 0.56789C139.077 0.249976 140.777 0.446268 142.304 1.13011C142.98 1.64945 143.542 2.30289 143.955 3.04965C144.368 3.79642 144.624 4.62049 144.705 5.47046C145.139 8.15224 145.332 10.8676 145.283 13.5839C145.338 16.2792 145.171 18.9745 144.785 21.6424C144.614 23.3224 143.936 24.91 142.84 26.1927C142.227 26.6746 141.524 27.0287 140.773 27.2343C140.021 27.4399 139.237 27.4926 138.464 27.3896C137.823 27.4114 137.183 27.2997 136.587 27.0614C135.99 26.8232 135.45 26.4635 134.999 26.0053C134.178 24.9385 133.636 23.6839 133.421 22.3546C132.934 19.5819 132.719 16.7683 132.777 13.9537C132.737 11.448 132.879 8.94262 133.201 6.45746C133.36 4.92158 133.872 3.44353 134.697 2.13961C135.028 1.70949 135.441 1.34936 135.912 1.08002C136.382 0.810683 136.902 0.637473 137.44 0.57039L137.435 0.56789ZM138.345 3.25156C137.961 3.75169 137.763 4.37007 137.784 5.00069C137.637 7.18162 137.639 9.36768 137.641 11.5534V11.554C137.642 12.4207 137.643 13.2874 137.634 14.1536C137.561 17.206 137.658 20.26 137.923 23.3016C137.998 23.7589 138.148 24.3886 138.699 24.4635C139.128 24.5135 139.763 24.576 139.945 24.0612C140.212 23.0967 140.315 22.094 140.249 21.0952V6.85227C140.324 5.776 140.178 4.69576 139.818 3.67885C139.764 3.54026 139.679 3.41599 139.569 3.31562C139.46 3.21525 139.328 3.14146 139.186 3.09993C139.043 3.0584 138.893 3.05025 138.747 3.07611C138.6 3.10197 138.462 3.16114 138.342 3.24906L138.345 3.25156ZM2.06187 0.478252C1.37458 0.480196 0.687292 0.482139 0 0.482139V26.6916C0.670951 26.6916 1.34023 26.6933 2.00841 26.695H2.00886C3.34173 26.6983 4.67018 26.7016 5.99864 26.6916C7.65783 26.7772 9.28974 26.243 10.5786 25.1924C11.7746 23.8999 12.4475 22.2074 12.466 20.4447C12.7213 18.4399 12.3805 16.4041 11.4862 14.5926C11.2031 14.0558 10.786 13.6017 10.2757 13.2746C9.7653 12.9475 9.17906 12.7585 8.57411 12.7261C9.02702 12.6944 9.46664 12.559 9.85912 12.3303C10.2516 12.1015 10.5865 11.7856 10.8379 11.4067C11.5944 9.97821 11.8996 8.35292 11.713 6.74653C11.7765 5.03293 11.2482 3.34985 10.2171 1.98139C9.68014 1.47281 9.04638 1.07792 8.3537 0.820326C7.66103 0.56273 6.92365 0.447711 6.18563 0.482139C4.81104 0.470478 3.43646 0.474365 2.06187 0.478252ZM4.55507 3.67051V11.2768C5.12148 11.3152 5.69042 11.2876 6.25045 11.1943C6.83884 10.9444 6.99841 10.2548 7.0732 9.69506C7.19178 8.47475 7.20012 7.2462 7.09814 6.02439C7.10789 5.27717 6.86833 4.54811 6.41749 3.95291C6.02551 3.56005 5.47945 3.60419 4.96342 3.6459C4.8239 3.65718 4.68657 3.66828 4.55507 3.67051ZM5.26616 23.6625C5.04081 23.6539 4.81959 23.6455 4.61491 23.6606L4.6174 23.6531C4.61574 20.5447 4.61574 17.4354 4.6174 14.3253C5.51496 14.3078 6.70421 14.3128 7.13304 15.2798C7.62781 16.8282 7.79759 18.4625 7.63168 20.0799C7.68115 21.13 7.48298 22.1769 7.05326 23.1359C6.63585 23.7148 5.93293 23.688 5.26616 23.6625ZM29.9558 26.7116V0.474623H37.1686C37.8973 0.442017 38.6244 0.568601 39.2994 0.845602C39.9745 1.1226 40.5813 1.5434 41.078 2.07883C42.132 3.5332 42.6485 5.30967 42.539 7.10383C42.6672 8.88482 42.1245 10.6493 41.0182 12.0489C40.3549 12.7268 39.4926 13.1743 38.5574 13.3257C39.0898 13.5013 39.5937 13.7539 40.0533 14.0754C40.7682 14.6821 41.2785 15.4955 41.5143 16.4042C41.8704 17.8393 42.029 19.3164 41.9855 20.7945C41.9609 22.8148 42.1279 24.8329 42.4842 26.8215H37.6299C37.5927 26.2582 37.5231 25.6992 37.4533 25.1385L37.4379 25.0149C37.3003 23.8617 37.3108 22.7015 37.3213 21.5413C37.3308 20.4944 37.3403 19.4475 37.2409 18.4057C37.2275 17.7067 36.9845 17.0316 36.5496 16.485C36.1146 15.9384 35.512 15.5508 34.835 15.3822C34.8234 17.8969 34.8272 20.4104 34.8311 22.9244V22.9247V22.9249V22.9252V22.9255V22.9258V22.9261V22.9263C34.8331 24.1838 34.835 25.4413 34.835 26.6991H29.9758L29.9558 26.7116ZM34.7752 11.3892V3.90351C35.3909 3.84566 36.0119 3.87998 36.6176 4.00537C37.3332 4.30772 37.5077 5.16479 37.6149 5.85695C37.7798 7.18373 37.794 8.52497 37.6573 9.85496C37.575 10.4122 37.3781 11.0869 36.7872 11.2917C36.1225 11.402 35.4473 11.4347 34.7752 11.3892ZM58.3883 0.547119H54.1373C54.1099 5.07487 54.1448 9.60762 54.3767 14.1429C54.1568 13.0507 53.8504 11.979 53.5441 10.9077L53.5441 10.9076L53.5441 10.9076L53.5441 10.9075L53.5441 10.9075L53.5441 10.9074L53.5441 10.9074C53.451 10.5817 53.3579 10.2561 53.2672 9.92996C52.8197 8.22577 52.3761 6.52083 51.9324 4.81596L51.9318 4.8137L51.931 4.81051L51.9301 4.80714L51.9292 4.80359L51.9283 4.80022L51.9275 4.79704C51.5694 3.42101 51.2114 2.04504 50.8513 0.669558H46.4807V26.9065H50.8563C50.8535 25.8684 50.8556 24.83 50.8577 23.7913V23.7911V23.7909V23.7908V23.7906V23.7904V23.7902V23.79C50.865 20.1016 50.8724 16.4113 50.6643 12.7286C50.8326 13.856 51.064 14.973 51.3574 16.0744C52.1178 18.3621 52.7861 20.6812 53.4545 23.0005L53.4545 23.0006L53.4546 23.0007L53.4546 23.0008L53.4546 23.0008L53.4546 23.0008L53.4547 23.0011L53.4547 23.0012L53.4547 23.0012L53.4547 23.0012L53.4547 23.0013L53.4547 23.0013L53.4548 23.0014C53.8186 24.2639 54.1825 25.5265 54.5612 26.7841H58.3883V0.547119ZM62.7662 0.604492H72.3052V4.57252H67.264V11.584H71.7517V15.2472H67.3188V22.8634H73.0905V26.829H62.7662V0.604492ZM78.484 0.935465C77.7317 1.27401 77.0708 1.78759 76.5563 2.43353C75.6104 3.95962 75.2581 5.78123 75.5665 7.55099C76.4271 10.2773 77.9286 12.7565 79.9445 14.7799C81.5159 16.3046 82.5931 18.268 83.0361 20.4146C83.147 21.5085 83.008 22.6134 82.6297 23.6455C82.4429 23.9117 82.1661 24.101 81.8507 24.1782C81.5352 24.2554 81.2026 24.2153 80.9144 24.0653C80.6519 23.9204 80.4298 23.7118 80.2687 23.4586C80.1075 23.2054 80.0124 22.9157 79.992 22.616C79.7519 21.0919 79.8027 19.5359 80.1415 18.0308H75.8881C75.644 19.2491 75.5768 20.4964 75.6887 21.7339C75.6972 22.5278 75.8629 23.3121 76.1761 24.0413C76.4894 24.7705 76.944 25.4301 77.5137 25.9818C78.2281 26.5136 79.043 26.8941 79.9088 27.1003C80.7746 27.3065 81.6731 27.334 82.5499 27.1812C83.3173 27.0985 84.0559 26.8423 84.7102 26.432C85.3645 26.0217 85.9174 25.4679 86.3271 24.8124C87.1798 23.322 87.5711 21.6112 87.4515 19.8974C86.9888 17.3035 85.7608 14.9082 83.9261 13.0208C82.2182 11.349 80.8966 9.32249 80.0543 7.08372C79.8801 6.01539 79.9319 4.92229 80.2064 3.87532C80.2701 3.72486 80.3667 3.59065 80.4891 3.48262C80.6115 3.37458 80.7565 3.29545 80.9135 3.25109C81.0705 3.20672 81.2354 3.19824 81.396 3.22627C81.5567 3.2543 81.7091 3.31813 81.8418 3.41305C82.1414 3.6851 82.3386 4.0521 82.4003 4.45253C82.6027 5.76374 82.6204 7.09694 82.4527 8.41306H86.3371C86.6668 7.43432 86.7792 6.39521 86.6663 5.3684C86.5535 4.34159 86.2182 3.35189 85.6839 2.46851C85.1081 1.76759 84.3685 1.21998 83.5308 0.874314C82.6931 0.528644 81.7833 0.395602 80.882 0.487C80.0585 0.443171 79.2363 0.596917 78.484 0.935465ZM124.869 0.632812H129.122V26.8698H125.417C125.037 25.5849 124.652 24.301 124.266 23.0171C123.593 20.7753 122.92 18.5332 122.273 16.285C122.05 15.5104 121.887 14.7223 121.724 13.9336L121.724 13.9334L121.724 13.9332C121.643 13.5416 121.562 13.1497 121.473 12.7593C121.74 16.2692 121.726 19.7981 121.711 23.324V23.3241V23.3242V23.3243V23.3248V23.3253V23.3258C121.706 24.5686 121.7 25.8111 121.707 27.0522H117.277V0.815222H121.65C122.483 4.12358 123.326 7.42943 124.228 10.7203C124.559 11.8384 124.795 12.9828 124.931 14.1411C124.889 9.62834 124.854 5.13058 124.869 0.632812ZM154.67 0.690335H148.749V26.9048C149.428 26.9048 150.107 26.9073 150.786 26.9098C152.144 26.9148 153.501 26.9198 154.859 26.9048C155.709 26.9437 156.558 26.8138 157.357 26.5226C158.157 26.2315 158.89 25.7847 159.517 25.2082C160.674 23.7857 161.286 21.9955 161.242 20.1607C161.476 18.3423 161.156 16.4955 160.322 14.8633C160.04 14.3083 159.616 13.8384 159.094 13.5016C158.571 13.1648 157.968 12.9733 157.348 12.9467C157.847 12.9147 158.331 12.7575 158.755 12.4894C159.178 12.2214 159.528 11.8511 159.771 11.4125C160.469 9.86616 160.718 8.15405 160.489 6.47246C160.501 4.85374 159.928 3.28537 158.876 2.05716C157.701 1.07779 156.195 0.588458 154.67 0.690335ZM153.364 11.34V3.73382H153.371C153.426 3.72948 153.483 3.72459 153.541 3.71962C154.212 3.66168 155.011 3.59267 155.41 4.24857C155.889 5.40672 156.085 6.66238 155.984 7.91175C156.081 8.94503 155.91 9.98596 155.485 10.9327C155.117 11.3965 154.536 11.3691 153.977 11.3427C153.765 11.3327 153.556 11.3229 153.364 11.34ZM153.371 14.4736V23.7789C154.008 23.8244 154.648 23.79 155.276 23.6764C155.551 23.5196 155.781 23.2949 155.945 23.0238C156.109 22.7527 156.202 22.4441 156.213 22.1272C156.404 20.6871 156.459 19.2323 156.378 17.7818C156.396 16.8426 156.16 15.916 155.695 15.1007C155.207 14.4867 154.373 14.4812 153.628 14.4762L153.533 14.4756C153.478 14.4751 153.424 14.4745 153.371 14.4736ZM164.608 0.622803H169.47V22.9417H174.937V26.9072H164.608V0.622803ZM187.271 0.690308H177.672V26.9023H187.992V22.9343H182.16V15.318H186.715V11.6549H182.227V4.65833H187.271V0.690308Z" fill="#E5CC7B"/>
</svg>
