<svg width="34" height="34" viewBox="0 0 34 34" fill="none" xmlns="http://www.w3.org/2000/svg">
<path d="M25.75 8H29.25C31.183 8 32.75 9.567 32.75 11.5V22C32.75 23.933 31.183 25.5 29.25 25.5H25.75V32.5L18.75 25.5H11.75C10.7835 25.5 9.90851 25.1082 9.27513 24.4748M9.27513 24.4748L15.25 18.5H22.25C24.183 18.5 25.75 16.933 25.75 15V4.5C25.75 2.567 24.183 1 22.25 1H4.75C2.817 1 1.25 2.567 1.25 4.5V15C1.25 16.933 2.817 18.5 4.75 18.5H8.25V25.5L9.27513 24.4748Z" stroke="url(#paint0_linear_103_400)" stroke-width="2" stroke-linecap="round" stroke-linejoin="round"/>
<defs>
<linearGradient id="paint0_linear_103_400" x1="17" y1="1" x2="17" y2="32.5" gradientUnits="userSpaceOnUse">
<stop stop-color="#E8CB44"/>
<stop offset="1" stop-color="#C79A56"/>
</linearGradient>
</defs>
</svg>
