<svg width="309" height="311" viewBox="0 0 309 311" fill="none" xmlns="http://www.w3.org/2000/svg">
<path d="M268.367 261.114C260.426 269.313 253.321 274.132 247.88 277.77C194.826 313.251 134.179 303.025 115.428 299.529C85.1766 293.89 59.6402 289.912 37.699 270.057C-12.155 224.943 -9.73086 130.829 28.3652 72.5295C32.8818 65.6175 70.9202 9.14213 131.698 1.18386C133.185 0.98949 134.294 0.878418 135.266 0.775122C144.668 -0.222299 202.932 -5.48486 250.44 34.382C257.241 40.0889 268.185 50.3818 278.334 66.0818C315.442 123.486 315.559 212.391 268.367 261.113V261.114Z" fill="#FFFCE3"/>
<path d="M142.817 228.037L136.622 283.694H208.504L199.141 228.037H142.817Z" fill="#41484D"/>
<path d="M22.0687 90.9131V218.38C22.0687 228.866 30.4112 237.441 40.8772 237.711C87.359 238.911 249.932 241.822 294.179 241.169C301.784 241.057 307.945 234.962 308.165 227.347C309.018 197.734 310.404 126.527 305.276 93.4677C304.196 86.5057 298.329 81.2998 291.299 81.0743C252.353 79.8259 80.0157 75.864 35.7884 76.8592C28.1612 77.0302 22.0698 83.2713 22.0698 90.9131H22.0687Z" fill="#41484D"/>
<path d="M30.0541 90.2922V211.394C30.0541 217.517 34.9611 222.505 41.0724 222.597L287.814 225.65C293.873 225.742 298.84 220.859 298.862 214.789L299.275 94.7683C299.291 90.4288 295.839 86.8723 291.507 86.7668L38.89 81.6552C34.0451 81.5375 30.0541 85.4383 30.0541 90.2922Z" fill="#EBEBEB"/>
<path d="M300.72 230.65H300.713L30.0475 226.03C29.8379 226.027 29.6715 225.854 29.6749 225.645C29.6782 225.437 29.8478 225.272 30.0541 225.272H30.0608L300.726 229.891C300.936 229.895 301.102 230.068 301.099 230.277C301.096 230.484 300.926 230.65 300.721 230.65H300.72Z" fill="white"/>
<path d="M223.987 295.081H118.784C115.926 295.081 113.779 293.043 114.332 290.854L115.682 285.507C116.088 283.899 117.854 282.718 119.952 282.652L221.373 279.482C223.564 279.414 225.506 280.579 225.982 282.25L228.417 290.767C229.049 292.98 226.892 295.08 223.987 295.08V295.081Z" fill="#41484D"/>
<path d="M175.417 284.136C175.21 284.136 175.041 283.97 175.038 283.762C175.035 283.552 175.202 283.38 175.412 283.377L179.758 283.313C179.963 283.313 180.139 283.478 180.143 283.688C180.146 283.897 179.979 284.07 179.769 284.073L175.423 284.136H175.418H175.417Z" fill="white"/>
<path d="M118.226 292.169C118.206 292.169 118.186 292.168 118.166 292.164C117.96 292.131 117.819 291.937 117.852 291.73L118.472 287.84C118.808 285.733 120.598 284.181 122.728 284.15L168.824 283.474C169.017 283.466 169.205 283.639 169.209 283.849C169.212 284.059 169.045 284.231 168.835 284.234L122.739 284.909C120.978 284.935 119.498 286.219 119.219 287.96L118.6 291.85C118.57 292.037 118.409 292.17 118.226 292.17V292.169Z" fill="white"/>
<path d="M264.136 91.3685H41.6812C39.6503 91.3685 38.004 93.0175 38.004 95.0516V206.936C38.004 208.97 39.6503 210.619 41.6812 210.619H264.136C266.167 210.619 267.813 208.97 267.813 206.936V95.0516C267.813 93.0175 266.167 91.3685 264.136 91.3685Z" fill="#FAFADF"/>
<path d="M217.65 104.183C217.317 103.153 215.896 103.063 215.435 104.041C213.729 107.665 210.038 113.865 204.276 115.305C203.986 115.378 203.71 115.453 203.442 115.533C203.324 114.761 203.466 113.913 204.2 113.121C206.302 110.857 203.892 106.858 203.892 106.858C203.892 106.858 203.168 109.892 200.509 111.424C198.219 112.745 196.623 116.282 197.472 119.553C198.441 131.333 200.228 147 181.443 155.005C162.66 163.011 144.226 127.453 144.226 127.453L149.621 167.024C149.621 167.024 165.562 183.639 190.039 168.305C214.515 152.971 205.172 122.96 205.172 122.96C205.172 122.96 222.484 119.19 217.649 104.181L217.65 104.183Z" fill="url(#paint0_linear_72_339)"/>
<path d="M141.691 71.7744C141.691 71.7744 146.663 49.4334 121.114 55.348C121.114 55.348 108.711 53.3176 108.08 65.0423C108.08 65.0423 100.086 70.3182 105.939 80.4657C105.939 80.4657 82.1803 71.2745 71.8296 92.1326C61.4777 112.991 70.9934 124.468 80.9682 127.457C80.9682 127.457 72.8864 131.521 76.7122 140.698C80.538 149.874 99.9098 156.343 111.354 145.184C111.354 145.184 143.916 149.493 143.264 126.456C143.264 126.456 158.409 116.661 142.503 97.6218C126.595 78.583 141.691 71.7755 141.691 71.7755V71.7744Z" fill="#D9BE70"/>
<path d="M143.094 123.558C137.959 122.016 123.011 119.17 108.792 132.313C106.38 134.542 105.396 137.929 106.255 141.101C110.074 155.183 120.15 196.79 111.315 214.793C111.315 214.793 126.884 231.984 143.871 218.129C143.871 218.129 151.493 184.86 161.474 170.255C168.366 160.172 150.485 132.391 145.961 125.678C145.276 124.662 144.267 123.91 143.095 123.558H143.094Z" fill="white"/>
<path d="M128.918 95.5792C128.918 95.5792 121.325 117.091 120.754 126.581C120.754 126.581 129.147 130.403 137.053 123.952C137.053 123.952 137.883 102.466 139.081 98.6181L128.918 95.5792Z" fill="url(#paint1_linear_72_339)"/>
<path d="M138.256 66.0245C138.256 66.0245 159.849 92.5407 148.516 101.365C137.184 110.191 121.815 91.349 121.815 91.349C121.815 91.349 116.245 76.4367 120.725 70.9721C125.204 65.5064 138.256 66.0245 138.256 66.0245Z" fill="url(#paint2_linear_72_339)"/>
<path d="M130.272 59.5965C130.272 59.5965 139.395 61.7613 140.674 65.8965C141.953 70.0316 127.736 73.8658 123.753 74.0524L120.544 90.7376C120.544 90.7376 111.056 75.0421 114.814 65.9775C118.572 56.913 130.272 59.5965 130.272 59.5965Z" fill="#D9BE70"/>
<path d="M125.294 88.4262C125.294 88.4262 117.564 79.4594 114.49 85.3051C111.415 91.1507 121.447 95.5392 124.921 92.6691L125.294 88.4262Z" fill="url(#paint3_linear_72_339)"/>
<path d="M106.757 135.123C106.757 135.123 82.5008 155.313 76.4815 182.904C70.4622 210.494 111.926 213.426 111.926 213.426C111.926 213.426 117.555 207.13 124.237 209.375C130.92 211.62 124.755 198.387 116.936 198.422C109.117 198.457 112.739 204.65 101.679 199.631C90.9042 194.743 84.244 179.624 111.735 156.705C113.329 155.377 114.601 153.683 115.366 151.754C120.707 138.287 116.47 129.46 106.757 135.123Z" fill="url(#paint4_linear_72_339)"/>
<path d="M68.0548 53.4532L73.3421 67.617C74.0596 69.5397 73.9121 71.6789 72.9318 73.4816C70.4689 78.0077 64.209 86.3392 49.8518 91.5651C35.2705 96.8732 26.459 93.4944 22.5844 91.0997C21.1816 90.2323 20.1037 88.9294 19.5126 87.3877L13.7706 72.4009L68.0548 53.4532Z" fill="#BB9252"/>
<path d="M36.0745 39.4637L78.9145 47.5397C81.1202 47.9551 81.9718 50.6664 80.3994 52.2714C72.7289 60.0975 55.3321 78.2843 49.0345 88.514C48.3603 89.608 47.0295 90.1012 45.8053 89.7147L1.965 75.8718C-0.017755 75.2454 -0.657605 72.7529 0.779563 71.2479C8.35907 63.3119 27.6732 43.4101 34.1982 39.7647C34.7681 39.446 35.4324 39.3427 36.0745 39.4637Z" fill="url(#paint5_linear_72_339)"/>
<path d="M37.3874 59.1111C37.3874 59.1111 16.3212 75.1465 14.9029 78.5131C13.4845 81.8797 18.1797 96.209 18.1797 96.209C15.749 108.897 16.4021 122.386 22.9437 128.902C22.9437 128.902 28.8332 111.981 24.9697 105.405C21.1062 98.8281 19.6025 96.1246 19.6025 96.1246C19.6025 96.1246 15.3863 80.7801 16.0961 78.472C16.0961 78.472 39.3569 59.8376 37.3874 59.1111Z" fill="#876B3B"/>
<path d="M72.1478 50.0055L52.5897 73.0217L47.7004 78.7763L46.4784 80.2147L45.8685 80.93C45.6778 81.1533 45.4571 81.3499 45.2231 81.5254C44.2794 82.2262 43.0219 82.4839 41.873 82.1896L27.2042 78.6542C27.0888 78.6264 26.9724 78.6975 26.9436 78.8141C26.9158 78.9296 26.9868 79.0462 27.101 79.074L41.7433 82.7205C43.0352 83.0626 44.479 82.7849 45.5624 81.9907C45.8319 81.7919 46.0858 81.5687 46.3065 81.3143L46.9264 80.599L48.1595 79.1695L53.092 73.4527L72.8232 50.5853C72.984 50.3998 72.9629 50.1177 72.7777 49.9577C72.5925 49.7967 72.3119 49.8178 72.1511 50.0033L72.1489 50.0055H72.1478Z" fill="white"/>
<path d="M20.4674 103.589L20.514 103.63L20.5684 103.684L20.6792 103.794L20.8944 104.037C21.0363 104.202 21.165 104.384 21.3014 104.556L21.6695 105.114C21.786 105.305 21.8902 105.503 22.0022 105.698C22.1186 105.89 22.2096 106.097 22.3049 106.301C22.3981 106.506 22.5001 106.709 22.5866 106.916L22.8261 107.553C22.9037 107.766 22.9936 107.975 23.0501 108.196L23.2409 108.851C23.303 109.07 23.3762 109.287 23.4161 109.512C23.5081 109.959 23.609 110.405 23.6955 110.854L23.8807 112.217C23.8951 112.33 23.914 112.443 23.9251 112.558L23.9472 112.901L23.9916 113.588C24.0792 114.505 24.0337 115.428 24.0393 116.349C24.0448 116.58 24.0271 116.809 24.0093 117.039L23.9617 117.73C23.9273 118.19 23.9029 118.652 23.8619 119.112C23.7377 120.027 23.6323 120.947 23.4926 121.862L22.9758 124.592V124.6C22.9581 124.684 23.0135 124.766 23.0967 124.781C23.1788 124.797 23.2586 124.743 23.2763 124.662L23.8685 121.929C24.0337 121.011 24.1646 120.086 24.3132 119.164C24.3675 118.7 24.4041 118.235 24.4507 117.769L24.5172 117.07C24.5405 116.837 24.5638 116.605 24.5649 116.371C24.5838 115.434 24.6536 114.498 24.5893 113.56L24.5627 112.855L24.5494 112.503C24.5416 112.385 24.525 112.269 24.5139 112.152L24.3598 110.748C24.2821 110.283 24.1912 109.82 24.1069 109.354C24.0714 109.12 24.0016 108.893 23.9428 108.665L23.7621 107.977C23.7088 107.746 23.6212 107.524 23.5458 107.298L23.3118 106.624C23.2253 106.402 23.1244 106.185 23.0313 105.966C22.937 105.747 22.845 105.526 22.7263 105.316C22.6132 105.105 22.5068 104.889 22.387 104.68L22.0033 104.066C21.8569 103.871 21.7227 103.669 21.5664 103.478L21.3269 103.193L21.1949 103.054L21.1273 102.984L21.0452 102.908C20.8655 102.74 20.585 102.75 20.4175 102.93C20.2501 103.11 20.2601 103.391 20.4397 103.559L20.4453 103.563L20.4708 103.586L20.4674 103.589Z" fill="white"/>
<path d="M20.2889 109.411L20.3654 110.282L20.443 111.265L20.5894 113.235L20.8655 117.18L21.3945 125.074C21.4034 125.208 21.5176 125.309 21.6507 125.3C21.7815 125.291 21.8813 125.179 21.8769 125.049L21.5508 117.142L21.3756 113.187L21.2803 111.209L21.227 110.218L21.196 109.72L21.1794 109.469C21.1694 109.361 21.1505 109.234 21.1295 109.12C21.0862 108.884 20.8622 108.729 20.6271 108.771C20.4064 108.811 20.2545 109.013 20.2734 109.233L20.2889 109.408V109.411Z" fill="white"/>
<path d="M291.869 216.481C291.869 216.481 303.651 223.019 304.627 234.083C305.601 245.148 304.708 291.071 281.082 302.374C257.456 313.677 226.182 311.072 214.21 309.837C202.24 308.601 195.603 300.453 194.12 294.841C192.637 289.231 190.243 268.331 202.835 261.589C215.428 254.847 228.655 244.519 241.871 234.462C255.088 224.405 277.738 207.987 291.869 216.482V216.481Z" fill="#586168"/>
<path d="M206.548 265.402C206.548 265.402 209.728 265.57 210.118 272.124C210.118 272.124 202.744 278.745 192.783 280.321C192.036 280.439 193.829 275.207 194.098 274.499C195.38 271.128 199.421 268.956 206.548 265.402Z" fill="#41484D"/>
<path d="M242.362 257.698H235.651C235.651 257.698 215.054 234.914 201.545 232.615C201.545 232.615 192.142 244.637 202.046 267.102C202.843 268.909 205.072 269.712 206.734 268.648C207.231 268.33 207.588 267.904 207.805 267.37L207.009 248.189C207.009 248.189 224.578 263.579 227.632 266.55C230.686 269.52 246.208 267.71 242.363 257.697L242.362 257.698Z" fill="#928691"/>
<path d="M177.484 305.533C180.297 303.065 184.777 300.296 191.245 299.502L193.433 300.842C193.433 300.842 192.038 302.904 189.489 305.08C187.147 306.443 183.531 308.288 180.532 308.688C177.617 309.076 177.187 307.312 177.484 305.534V305.533Z" fill="#41484D"/>
<path d="M194.098 274.499C195.83 275.06 196.593 277.519 200.988 275.893C205.241 274.319 208.403 272.292 210.03 271.122C210.066 271.439 210.097 271.77 210.118 272.123C210.118 272.123 202.343 279.53 192.382 281.105C191.634 281.224 191.041 280.476 191.311 279.768C191.794 278.496 192.666 276.568 194.097 274.498L194.098 274.499Z" fill="white"/>
<path d="M175.366 307.641C175.921 307.01 176.628 306.286 177.485 305.533C177.189 307.312 177.619 309.077 180.533 308.687C183.532 308.287 187.148 306.441 189.491 305.079C186.555 307.587 182.088 310.248 176.452 310.092C175.201 310.057 174.54 308.583 175.367 307.641H175.366Z" fill="white"/>
<path d="M242.116 262.56L210.691 262.901C210.691 262.901 192.745 277.774 189.489 300.451C189.489 300.451 188.949 302.119 192.192 302.403C192.192 302.403 203.043 295.306 210.117 282.757C218.791 267.37 235.977 274.296 235.977 274.296C241.623 270.218 249.603 269.388 255.614 268.029L242.115 262.56H242.116Z" fill="#928691"/>
<path d="M241.374 237.205C241.374 237.205 237.991 254.186 221.415 260.904L215.52 260.209L214.128 262.43L227.959 262.872C227.959 262.872 239.782 258.182 246.045 245.402C246.251 244.98 249.701 237.847 241.374 237.205Z" fill="url(#paint6_linear_72_339)"/>
<path d="M239.562 262.283C239.562 262.283 243.408 251.81 244.236 241.632C244.236 241.632 241.421 239.209 239.662 238.164C239.093 237.825 238.877 237.109 239.165 236.512C240.458 233.828 248.28 223.291 248.865 223.145C252.05 222.349 265.109 216.13 274.308 228.732C278.256 234.14 273.524 250.789 255.615 268.03L251.921 268.739L239.562 262.285V262.283Z" fill="#E8DCB0"/>
<path d="M254.385 243.927C254.385 243.927 243.697 256.603 230.032 258.456C230.032 258.456 226.5 255.231 223.875 256.382C221.248 257.533 217.648 262.616 217.648 262.616H235.193C235.193 262.616 251.784 262.031 260.073 251.953C259.406 248.427 257.409 246.321 254.385 243.926V243.927Z" fill="url(#paint7_linear_72_339)"/>
<path d="M260.62 214.254L262.959 222.067C263.066 222.425 262.934 222.812 262.626 223.023C261.501 223.796 258.558 225.332 254.521 223.839C254.059 223.668 253.742 223.236 253.703 222.745L253.148 215.939L260.62 214.254Z" fill="url(#paint8_linear_72_339)"/>
<path d="M250.768 201.223C250.768 201.223 246.56 208.234 247.401 212.128C248.244 216.023 254.12 218.391 259.551 214.945L262.965 204.271L250.768 201.223Z" fill="url(#paint9_linear_72_339)"/>
<path d="M259.066 209.802C258.835 209.712 258.738 209.439 258.864 209.224C259.248 208.574 259.963 207.249 260.158 206.108C260.158 206.108 261.057 205.471 257.736 204.835C254.414 204.199 249.459 203.204 248.301 200.451C247.171 197.768 249.492 190.779 253.952 196.055C254.121 196.256 254.436 196.246 254.586 196.03C255.234 195.1 256.962 193.149 259.532 194.163C261.937 195.113 262.282 196.83 262.29 197.703C262.292 197.96 262.53 198.149 262.78 198.09C263.96 197.807 266.81 197.478 268.28 200.354C269.492 202.723 268.84 204.126 268.221 204.826C268.02 205.053 268.129 205.405 268.421 205.481C269.215 205.684 270.257 206.303 270.24 208.145C270.218 210.692 267.372 210.6 266.56 210.521C266.427 210.508 266.296 210.559 266.21 210.663C265.554 211.463 262.585 214.864 259.229 215.413C258.938 215.46 258.699 215.181 258.781 214.899L260.045 210.578C260.104 210.377 260 210.165 259.805 210.089L259.065 209.801L259.066 209.802Z" fill="#41484D"/>
<path d="M258.507 210.434C258.507 210.434 262.06 207.742 262.427 209.853C262.793 211.964 259.264 213.083 257.458 212.372L258.508 210.433L258.507 210.434Z" fill="url(#paint10_linear_72_339)"/>
<path d="M218.531 263.599L210.653 237.284C210.331 236.211 209.379 235.449 208.263 235.373L197.627 234.645C196.545 234.57 195.741 235.629 196.1 236.653L204.907 261.783C205.191 262.593 205.916 263.165 206.769 263.252L217.243 264.416L218.531 263.601V263.599Z" fill="#41484D"/>
<path d="M204.002 246.203C204.59 247.392 205.605 248.089 206.27 247.759C206.936 247.429 206.998 246.198 206.409 245.009C205.82 243.82 204.806 243.123 204.14 243.452C203.476 243.782 203.413 245.013 204.002 246.203Z" fill="white"/>
<path d="M217.243 264.415C217.26 264.415 217.277 264.415 217.295 264.414L239.613 263.284C240.164 263.256 240.589 262.786 240.561 262.233C240.533 261.68 240.061 261.245 239.511 261.283L217.193 262.412C216.642 262.44 216.217 262.91 216.245 263.464C216.272 263.999 216.714 264.415 217.243 264.415Z" fill="#41484D"/>
<path d="M244.235 241.879C244.098 241.879 243.989 241.769 243.988 241.633C243.972 236.9 245.789 230.643 245.807 230.581C245.845 230.45 245.983 230.374 246.114 230.412C246.244 230.451 246.319 230.589 246.281 230.72C246.262 230.782 244.466 236.972 244.481 241.632C244.481 241.768 244.371 241.879 244.235 241.879Z" fill="#C4B853"/>
<path d="M254.385 244.174C254.332 244.174 254.278 244.157 254.233 244.121C254.126 244.037 254.108 243.881 254.192 243.774C254.241 243.712 259.084 237.546 260.74 233.345C260.789 233.217 260.934 233.156 261.06 233.206C261.186 233.255 261.249 233.4 261.199 233.527C259.516 237.796 254.629 244.018 254.58 244.081C254.532 244.143 254.46 244.174 254.386 244.174H254.385Z" fill="#C4B853"/>
<path d="M261.229 253.692L260.303 252.381C260.224 252.269 260.251 252.116 260.362 252.037C260.472 251.958 260.627 251.985 260.706 252.095L261.401 253.079C268.212 250.045 272.431 241.881 272.474 241.798C272.536 241.676 272.684 241.627 272.806 241.69C272.928 241.752 272.975 241.902 272.913 242.022C272.87 242.107 268.497 250.575 261.412 253.613L261.228 253.692H261.229Z" fill="#C4B853"/>
<path d="M171.889 54.4528L169.983 70.7825C169.833 72.0631 171.392 72.8029 172.286 71.8754L189.097 54.4528H171.889Z" fill="#D9BE70"/>
<path d="M262.496 58.9389H160.128C157.372 58.9389 155.139 56.702 155.139 53.9418V16.563C155.139 13.7529 157.452 11.4948 160.258 11.5681L262.626 14.2316C265.329 14.3015 267.485 16.5174 267.485 19.2265V53.9429C267.485 56.7031 265.252 58.94 262.496 58.94V58.9389Z" fill="#D9BE70"/>
<path opacity="0.66" d="M259.248 56.5986H162.763C160.166 56.5986 158.061 54.6393 158.061 52.2224V19.483C158.061 17.0217 160.241 15.0435 162.885 15.1079L259.37 17.4404C261.918 17.5015 263.95 19.443 263.95 21.8155V52.2213C263.95 54.6382 261.845 56.5975 259.248 56.5975V56.5986Z" fill="#E5CC7B"/>
<path opacity="0.66" d="M254.848 22.7763H201.152C201.068 22.7763 201 22.8882 201 23.0262V25.1566C201 25.2946 201.068 25.4065 201.152 25.4065H254.848C254.932 25.4065 255 25.2946 255 25.1566V23.0262C255 22.8882 254.932 22.7763 254.848 22.7763Z" fill="white"/>
<path opacity="0.66" d="M195.918 22.7763H167.082C167.037 22.7763 167 22.8882 167 23.0262V25.1566C167 25.2946 167.037 25.4065 167.082 25.4065H195.918C195.963 25.4065 196 25.2946 196 25.1566V23.0262C196 22.8882 195.963 22.7763 195.918 22.7763Z" fill="white"/>
<path opacity="0.66" d="M254.314 48.1373H166.81C166.673 48.1373 166.562 48.2492 166.562 48.3872V50.5175C166.562 50.6556 166.673 50.7674 166.81 50.7674H254.314C254.451 50.7674 254.562 50.6556 254.562 50.5175V48.3872C254.562 48.2492 254.451 48.1373 254.314 48.1373Z" fill="white"/>
<path opacity="0.66" d="M230.297 39.9435H166.827C166.681 39.9435 166.562 40.0554 166.562 40.1934V42.3237C166.562 42.4618 166.681 42.5737 166.827 42.5737H230.297C230.443 42.5737 230.562 42.4618 230.562 42.3237V40.1934C230.562 40.0554 230.443 39.9435 230.297 39.9435Z" fill="white"/>
<path opacity="0.66" d="M254.788 39.9435H234.212C234.095 39.9435 234 40.0554 234 40.1934V42.3237C234 42.4618 234.095 42.5737 234.212 42.5737H254.788C254.905 42.5737 255 42.4618 255 42.3237V40.1934C255 40.0554 254.905 39.9435 254.788 39.9435Z" fill="white"/>
<path opacity="0.66" d="M193.852 31H167.148C167.066 31 167 31.1276 167 31.2851V33.7149C167 33.8724 167.066 34 167.148 34H193.852C193.934 34 194 33.8724 194 33.7149V31.2851C194 31.1276 193.934 31 193.852 31Z" fill="white"/>
<path opacity="0.66" d="M254.688 31H198.312C198.14 31 198 31.1276 198 31.2851V33.7149C198 33.8724 198.14 34 198.312 34H254.688C254.86 34 255 33.8724 255 33.7149V31.2851C255 31.1276 254.86 31 254.688 31Z" fill="white"/>
<defs>
<linearGradient id="paint0_linear_72_339" x1="212.948" y1="142.691" x2="143.645" y2="130.824" gradientUnits="userSpaceOnUse">
<stop stop-color="#FEBBBA"/>
<stop offset="1" stop-color="#FFD2D1"/>
</linearGradient>
<linearGradient id="paint1_linear_72_339" x1="139.081" y1="111.642" x2="120.753" y2="111.642" gradientUnits="userSpaceOnUse">
<stop stop-color="#FEBBBA"/>
<stop offset="1" stop-color="#FFD2D1"/>
</linearGradient>
<linearGradient id="paint2_linear_72_339" x1="151.203" y1="84.0893" x2="119.488" y2="86.1136" gradientUnits="userSpaceOnUse">
<stop stop-color="#FEBBBA"/>
<stop offset="1" stop-color="#FFD2D1"/>
</linearGradient>
<linearGradient id="paint3_linear_72_339" x1="125.294" y1="88.4487" x2="113.912" y2="88.4487" gradientUnits="userSpaceOnUse">
<stop stop-color="#FEBBBA"/>
<stop offset="1" stop-color="#FFD2D1"/>
</linearGradient>
<linearGradient id="paint4_linear_72_339" x1="127.083" y1="173.403" x2="75.882" y2="173.403" gradientUnits="userSpaceOnUse">
<stop stop-color="#FEBBBA"/>
<stop offset="1" stop-color="#FFD2D1"/>
</linearGradient>
<linearGradient id="paint5_linear_72_339" x1="40.6028" y1="39.4146" x2="40.6028" y2="89.8452" gradientUnits="userSpaceOnUse">
<stop stop-color="#E8CB44"/>
<stop offset="1" stop-color="#C79A56"/>
</linearGradient>
<linearGradient id="paint6_linear_72_339" x1="223.272" y1="242.657" x2="238.105" y2="260.266" gradientUnits="userSpaceOnUse">
<stop stop-color="#F5B3B2"/>
<stop offset="1" stop-color="#F38885"/>
</linearGradient>
<linearGradient id="paint7_linear_72_339" x1="240.534" y1="258.701" x2="210.881" y2="218.2" gradientUnits="userSpaceOnUse">
<stop stop-color="#F5B3B2"/>
<stop offset="1" stop-color="#F38885"/>
</linearGradient>
<linearGradient id="paint8_linear_72_339" x1="258.635" y1="225.099" x2="257.543" y2="215.274" gradientUnits="userSpaceOnUse">
<stop stop-color="#F5B3B2"/>
<stop offset="1" stop-color="#F38885"/>
</linearGradient>
<linearGradient id="paint9_linear_72_339" x1="249.879" y1="211.657" x2="263.615" y2="202.399" gradientUnits="userSpaceOnUse">
<stop stop-color="#F5B3B2"/>
<stop offset="1" stop-color="#F38885"/>
</linearGradient>
<linearGradient id="paint10_linear_72_339" x1="252.789" y1="215.974" x2="266.525" y2="206.715" gradientUnits="userSpaceOnUse">
<stop stop-color="#F5B3B2"/>
<stop offset="1" stop-color="#F38885"/>
</linearGradient>
</defs>
</svg>
