<svg width="325" height="325" viewBox="0 0 325 325" fill="none" xmlns="http://www.w3.org/2000/svg">
<path d="M285.055 278.476C278.434 285.449 272.17 289.946 267.22 293.499C209.04 335.259 140.196 323.086 125.566 320.113C103.96 315.723 62.1969 307.238 32.0036 271.717C-13.6774 217.977 -6.56463 133.312 28.8683 77.4221C35.3494 67.1992 69.5861 10.4588 139.17 1.35969C181.282 -4.14699 230.371 6.95896 265.92 36.7538C340.54 99.2937 335.227 225.636 285.055 278.476Z" fill="#FFFCE3"/>
<path d="M292.308 33.9459C292.991 32.4321 291.305 30.9391 289.873 31.7782C275.331 40.3021 238.876 67.4455 232.641 127.974C224.818 203.916 203.294 227.372 180.397 239.455C180.397 239.455 208.46 237.713 231.238 214.125C287.161 156.21 280.166 60.8532 292.309 33.9459H292.308Z" fill="#D9BE70"/>
<g style="mix-blend-mode:soft-light">
<path d="M277.938 54.9484C274.567 62.8334 271.353 70.7798 268.433 78.8327C265.472 86.8693 262.756 94.9916 260.296 103.187C257.869 111.391 255.595 119.64 253.676 127.973C251.72 136.296 250.122 144.695 248.548 153.132C246.927 161.557 245.343 170.052 242.883 178.411C240.438 186.756 236.956 194.942 232.083 202.248C230.866 204.069 229.612 205.874 228.263 207.588C226.946 209.328 225.551 211.009 224.127 212.664C221.262 215.963 218.173 219.076 214.866 221.945C208.238 227.669 200.745 232.379 192.843 236.009C192.011 236.391 191.028 236.027 190.646 235.194C190.271 234.377 190.616 233.414 191.415 233.017L191.421 233.015C193.317 232.078 195.202 231.119 197.036 230.081C197.961 229.577 198.863 229.032 199.774 228.504C200.664 227.942 201.577 227.415 202.449 226.827C205.975 224.533 209.336 221.994 212.493 219.218C218.827 213.706 224.37 207.217 229.037 200.245C231.333 196.731 233.364 193.054 235.108 189.234C236.848 185.412 238.296 181.45 239.52 177.402C241.969 169.303 243.608 160.906 245.289 152.495C246.981 144.083 248.738 135.641 250.842 127.286C251.882 123.106 252.997 118.945 254.185 114.807C254.767 112.734 255.391 110.673 256.009 108.611C256.647 106.556 257.297 104.503 257.963 102.457C260.643 94.2752 263.572 86.1795 266.753 78.188C269.971 70.2115 273.4 62.323 277.128 54.5803C277.235 54.3593 277.501 54.2655 277.722 54.3732C277.937 54.4762 278.029 54.7319 277.938 54.9484Z" fill="white"/>
</g>
<path d="M241.408 245.582C241.679 248.215 244.549 249.716 246.88 248.466C259.748 241.567 294.365 218.771 303.905 169.266C311.961 127.461 320.3 105.56 324.775 95.8782C325.721 93.8309 323.504 91.7662 321.528 92.8506C299.723 104.819 231.616 150.175 241.408 245.582Z" fill="#D9BE70"/>
<g style="mix-blend-mode:soft-light">
<path d="M244.878 246.472C244.922 246.52 244.971 246.566 245.026 246.606C245.484 246.946 246.131 246.85 246.471 246.392C246.856 245.872 285.155 193.767 298.98 136.147C299.113 135.593 298.772 135.035 298.216 134.901C297.661 134.768 297.105 135.109 296.97 135.665C283.246 192.866 245.194 244.644 244.811 245.161C244.511 245.564 244.55 246.114 244.877 246.472H244.878Z" fill="white"/>
</g>
<path d="M115.384 239.05L108.883 297.382H184.313L174.489 239.05H115.384Z" fill="#41484D"/>
<path d="M200.561 309.316H90.163C87.1643 309.316 84.9117 307.181 85.4914 304.886L86.9074 299.282C87.3332 297.597 89.1866 296.36 91.3882 296.29L197.815 292.967C200.115 292.896 202.152 294.117 202.653 295.869L205.206 304.795C205.869 307.115 203.606 309.316 200.559 309.316H200.561Z" fill="#41484D"/>
<path d="M20.7582 113.219V246.813C20.7582 257.804 29.5126 266.79 40.4941 267.074C89.271 268.332 214.901 271.383 261.334 270.699C269.314 270.581 275.779 264.192 276.009 256.211C276.905 225.175 278.359 150.545 272.977 115.897C271.843 108.601 265.687 103.144 258.31 102.908C217.44 101.6 81.5636 97.4477 35.1526 98.4893C27.1479 98.6687 20.7571 105.21 20.7571 113.219H20.7582Z" fill="#41484D"/>
<path d="M29.1378 112.568V239.492C29.1378 245.908 34.2861 251.137 40.7001 251.232L254.655 254.432C261.013 254.527 266.225 249.409 266.25 243.048L266.682 117.259C266.7 112.711 263.077 108.984 258.531 108.873L38.4106 103.516C33.3271 103.392 29.1378 107.481 29.1378 112.568Z" fill="#EBEBEB"/>
<path d="M268.197 259.697H268.187L29.1274 254.856C28.8949 254.851 28.7098 254.659 28.7144 254.426C28.719 254.194 28.9226 254.004 29.1436 254.014L268.204 258.856C268.436 258.86 268.621 259.052 268.617 259.285C268.612 259.514 268.425 259.697 268.195 259.697H268.197Z" fill="white"/>
<path d="M49.3492 251.362L241.066 254.433C241.066 254.433 239.356 93.4328 236.971 42.2628C236.779 38.1415 233.333 34.9321 229.211 35.0328L51.147 39.3856C46.6582 39.4956 43.1169 43.2373 43.2511 47.7267L49.3503 251.362H49.3492Z" fill="#E9D88A"/>
<path opacity="0.88" d="M53.6946 251.431L232.191 254.291L228.461 54.3086C228.394 50.6999 225.415 47.8297 221.808 47.898L54.3239 51.0633C50.5998 51.1339 47.6497 54.2345 47.7642 57.9589L53.6946 251.43V251.431Z" fill="#FCFFEB"/>
<path opacity="0.6" d="M202.491 43.1367C202.491 44.5834 201.016 45.6111 199.569 45.6111C198.123 45.6111 196.659 44.4387 196.659 42.992C196.659 41.5453 198.123 40.3729 199.569 40.3729C201.016 40.3729 202.491 41.6912 202.491 43.1378V43.1367Z" fill="white"/>
<path opacity="0.6" d="M210.528 42.9585C210.528 44.4052 209.053 45.4329 207.605 45.4329C206.158 45.4329 204.694 44.2605 204.694 42.8138C204.694 41.3671 206.159 40.1947 207.605 40.1947C209.051 40.1947 210.528 41.5129 210.528 42.9596V42.9585Z" fill="white"/>
<path opacity="0.6" d="M219.695 42.7443C219.695 44.191 218.22 45.2188 216.774 45.2188C215.328 45.2188 213.863 44.0464 213.863 42.5997C213.863 41.153 215.327 39.9806 216.774 39.9806C218.221 39.9806 219.695 41.2988 219.695 42.7455V42.7443Z" fill="white"/>
<path d="M149.593 297.869C149.363 297.869 149.175 297.684 149.172 297.453C149.168 297.221 149.354 297.03 149.587 297.026L154.148 296.959C154.385 296.954 154.571 297.142 154.574 297.375C154.578 297.607 154.392 297.798 154.159 297.802L149.599 297.869H149.592H149.593Z" fill="white"/>
<path d="M89.5787 306.287C89.5568 306.287 89.5336 306.286 89.5117 306.282C89.2826 306.245 89.1252 306.029 89.1623 305.799L89.8124 301.723C90.1665 299.502 92.0546 297.868 94.3013 297.835L142.672 297.128H142.679C142.908 297.128 143.097 297.313 143.1 297.544C143.104 297.776 142.917 297.967 142.685 297.971L94.314 298.678C92.4768 298.704 90.9335 300.041 90.6443 301.856L89.9941 305.932C89.9605 306.139 89.7824 306.287 89.5787 306.287Z" fill="white"/>
<path d="M169.182 53.3455H11.489C10.8309 53.3455 10.2974 53.8792 10.2974 54.5376V160.597C10.2974 161.256 10.8309 161.789 11.489 161.789H169.182C169.84 161.789 170.373 161.256 170.373 160.597V54.5376C170.373 53.8792 169.84 53.3455 169.182 53.3455Z" fill="url(#paint0_linear_72_292)"/>
<path d="M79.9301 124.027V85.9862C79.9301 82.1172 84.3125 79.8777 87.4454 82.145L111.727 99.7078C115.335 102.318 115.335 107.696 111.727 110.641L87.4454 128.204C84.3113 130.136 79.9301 127.896 79.9301 124.027Z" fill="white"/>
<path d="M203.391 201.109H104.916C101.644 201.109 98.9926 198.887 98.9926 196.144V178.34C98.9926 175.648 101.553 173.445 104.764 173.377L203.239 171.268C206.569 171.196 209.314 173.439 209.314 176.231V196.144C209.314 198.886 206.662 201.109 203.391 201.109Z" fill="#E9D88A"/>
<path d="M203.391 202.123H104.916C101.091 202.123 97.9792 199.442 97.9792 196.144V178.34C97.9792 175.069 100.95 172.444 104.744 172.363L203.217 170.253C205.279 170.198 207.241 170.948 208.601 172.279C209.714 173.368 210.328 174.772 210.328 176.23V196.143C210.328 199.439 207.215 202.122 203.391 202.122V202.123ZM203.394 172.281C203.35 172.281 203.306 172.281 203.261 172.282L104.786 174.392C102.151 174.449 100.006 176.221 100.006 178.341V196.146C100.006 198.324 102.209 200.096 104.916 200.096H203.391C206.098 200.096 208.301 198.324 208.301 196.146V176.232C208.301 175.068 207.693 174.229 207.184 173.73C206.24 172.805 204.865 172.281 203.394 172.281Z" fill="white"/>
<path d="M156.1 234.747L150.567 193.23C150.419 192.115 151.828 190.987 152.883 191.377L192.154 205.903C193.05 206.234 193.015 207.455 192.088 208.196L186.619 212.571C185.915 213.133 185.691 214.022 186.118 214.556L210.2 244.679C210.627 245.213 210.403 246.102 209.699 246.664L191.994 260.829C191.29 261.391 190.375 261.416 189.948 260.882L165.866 230.759C165.44 230.225 164.524 230.249 163.821 230.812L158.352 235.188C157.425 235.93 156.228 235.696 156.102 234.748L156.1 234.747Z" fill="white"/>
<path d="M188.683 261.895L164.841 232.072C164.841 232.072 164.836 232.075 164.834 232.077L159.364 236.453C158.39 237.231 157.142 237.457 156.106 237.04C155.224 236.686 154.621 235.907 154.495 234.96L148.961 193.443C148.815 192.35 149.302 191.239 150.263 190.471C151.223 189.702 152.413 189.473 153.448 189.854L192.717 204.38C193.614 204.711 194.241 205.47 194.392 206.41C194.57 207.513 194.076 208.682 193.102 209.462L187.633 213.837C187.633 213.837 187.629 213.84 187.627 213.843L211.468 243.665C211.991 244.319 212.166 245.192 211.947 246.057C211.767 246.773 211.328 247.438 210.714 247.93L193.008 262.095C192.34 262.63 191.566 262.895 190.829 262.895C189.998 262.895 189.215 262.558 188.684 261.895H188.683ZM184.852 215.568C183.851 214.316 184.184 212.443 185.607 211.303L190.815 207.137L152.409 192.93C152.334 192.96 152.233 193.04 152.187 193.107L157.599 233.712L162.807 229.544C164.231 228.405 166.131 228.493 167.132 229.746L190.973 259.568C190.973 259.568 190.978 259.565 190.98 259.563L208.686 245.398C208.686 245.398 208.691 245.394 208.693 245.393L184.851 215.57L184.852 215.568Z" fill="#41484D"/>
<path d="M70.0361 162.016C70.0361 162.016 85.4138 181.712 67.8691 201.745L61.2735 201.13C61.2735 201.13 73.9707 180.734 68.3157 164.476L58.9724 165.159L53.8056 161.79L70.0372 162.016H70.0361Z" fill="url(#paint1_linear_72_292)"/>
<path d="M61.6137 258.448C61.6137 258.448 49.1548 285.614 42.6171 296.865C42.6171 296.865 41.319 303.945 42.6171 306.172L43.7231 306.664L38.5586 306.51C38.5586 306.51 38.0993 296.986 38.4579 296.455C38.8166 295.922 39.5327 295.957 39.5327 295.957C39.5327 295.957 41.7471 278.408 48.1599 274.663L54.3748 253.249L61.6125 258.447L61.6137 258.448Z" fill="url(#paint2_linear_72_292)"/>
<path d="M45.9293 307.998C45.9374 308.123 41.8975 308.065 39.7028 308.026C38.893 308.011 38.2011 307.441 38.0287 306.649L36.3709 297.938C36.2135 297.111 36.7388 296.306 37.5602 296.119L38.4857 295.907C38.4857 295.907 39.8058 297.718 39.3904 299.423C38.9751 301.128 38.6049 305.544 39.6554 306.059C40.7047 306.574 43.7254 306.664 43.7254 306.664C43.7254 306.664 45.8622 306.875 45.9305 307.997L45.9293 307.998Z" fill="#BB9252"/>
<path d="M73.4224 308.157C73.8308 308.389 73.663 309.014 73.1921 309.008C69.5201 308.971 61.2897 308.856 60.5586 308.551C59.6145 308.159 60.9022 304.764 62.2581 303.616L69.7434 306.061L73.4212 308.157H73.4224Z" fill="#BB9252"/>
<path d="M75.7466 256.716C75.7466 256.716 67.6956 295.681 65.4176 303.282L70.8054 306.665C70.8054 306.665 68.1052 306.205 66.1025 306.061C64.0999 305.916 62.2581 303.616 62.2581 303.616L62.9036 302.586C62.9036 302.586 64.9225 263.833 64.4308 259.433L75.7454 256.717L75.7466 256.716Z" fill="url(#paint3_linear_72_292)"/>
<path d="M95.7275 164.1C95.7275 164.1 96.8632 185.434 78 196.335L82.5416 207C82.5416 207 99.6197 196.363 98.9879 167.355C98.9702 166.523 99.2612 165.714 99.79 165.083L103.42 160.748C104.802 159.096 105.319 156.855 104.805 154.739L104.327 152.773C104.167 152.115 103.438 151.797 102.869 152.139L102.49 152.365C101.282 153.087 100.325 154.184 99.7534 155.497L97.9706 159.599C97.3045 161.132 95.7701 162.063 94.1459 161.918L93.0433 161.82L95.7264 164.102L95.7275 164.1Z" fill="url(#paint4_linear_72_292)"/>
<path d="M79.0392 194.937C75.9525 195.794 65.4975 198.545 58.9701 198.433L62.9777 221.057L62.6584 224.746L75.7246 224.687C75.7246 224.687 79.4025 216.141 82.3052 211.881C83.1428 210.651 82.5192 209.183 82.0449 207.771L82.6974 207.336C83.3615 206.894 83.6495 206.063 83.4019 205.304L80.2204 195.565C80.055 195.074 79.539 194.797 79.0392 194.935V194.937Z" fill="white"/>
<path d="M76.7716 222.757L76.5148 224.993C76.5148 224.993 80.2077 236.055 74.6683 261.893C74.6683 261.893 62.6723 265.292 52.813 257.158C52.813 257.158 55.5942 232.771 56.3543 231.635C60.1374 225.976 62.6584 224.747 62.6584 224.747L62.7718 222.305C62.7718 222.305 73.3171 224.213 76.7716 222.758V222.757Z" fill="white"/>
<path d="M71.6569 196.761C71.7032 196.701 68.9289 188.384 68.9289 188.384L64.956 188.745L63.4034 198.18C63.4034 198.18 69.63 199.437 71.6569 196.762V196.761Z" fill="url(#paint5_linear_72_292)"/>
<path d="M65.907 175.268C66.172 175.434 74.3965 178.834 72.6299 187.376C72.5258 187.881 72.1891 188.309 71.7182 188.519C70.5116 189.057 67.9131 189.979 64.8045 189.663C60.4961 189.225 57.6721 181.703 57.7924 179.514C57.9127 177.326 63.2808 173.633 65.907 175.268Z" fill="url(#paint6_linear_72_292)"/>
<path d="M63.4046 171.946C65.0498 172.163 66.7354 173.845 66.4948 175.568C66.2645 177.225 64.4875 177.585 63.6904 178.784C61.8463 181.559 63.5238 186.303 65.2372 188.78C70.3924 196.23 78.8495 205.277 73.0499 214.986C69.2852 221.289 60.8906 224.863 53.749 224.066C49.952 223.641 46.2718 219.688 44.4809 216.517C41.9634 212.06 41.5018 206.46 42.8531 201.553C44.1604 196.805 48.382 193.058 51.1575 189.104C52.1605 187.676 53.1323 186.088 53.108 184.343C53.093 183.253 52.6858 182.208 52.5643 181.124C51.9384 175.598 58.5074 171.304 63.4046 171.948V171.946Z" fill="#D9BE70"/>
<path d="M51.2512 217.004L51.3773 216.802C48.7384 215.16 47.0979 211.871 47.0955 208.219C47.0932 205.319 48.0003 202.282 49.9497 198.663C50.6762 197.313 51.4872 195.981 52.2728 194.694C53.218 193.144 54.1956 191.541 55.0332 189.893C55.7863 188.41 56.5001 186.664 56.0802 184.953C55.8708 184.1 55.3907 183.3 54.9267 182.527C54.2002 181.317 53.513 180.173 53.8739 178.923L53.646 178.857C53.2573 180.207 54.0023 181.448 54.7243 182.65C55.1801 183.408 55.651 184.191 55.8511 185.01C56.2514 186.646 55.5561 188.342 54.8226 189.786C53.9896 191.426 53.0143 193.025 52.0715 194.572C51.2847 195.862 50.4714 197.197 49.7414 198.551C47.7723 202.207 46.8561 205.28 46.8584 208.22C46.8607 211.953 48.5452 215.32 51.2524 217.005L51.2512 217.004Z" fill="white"/>
<path d="M53.0791 216.492L53.2723 216.354C51.2026 213.431 50.4448 209.344 51.1933 205.142C51.9361 200.978 53.9827 197.185 55.681 194.345L55.4774 194.223C53.7675 197.08 51.7082 200.898 50.9585 205.101C50.1984 209.365 50.9701 213.516 53.078 216.492H53.0791Z" fill="white"/>
<defs>
<linearGradient id="paint0_linear_72_292" x1="90.3354" y1="53.3455" x2="90.3354" y2="161.789" gradientUnits="userSpaceOnUse">
<stop stop-color="#E8CB44"/>
<stop offset="1" stop-color="#C79A56"/>
</linearGradient>
<linearGradient id="paint1_linear_72_292" x1="59.2732" y1="159.51" x2="70.3339" y2="193.403" gradientUnits="userSpaceOnUse">
<stop stop-color="#FEBBBA"/>
<stop offset="1" stop-color="#FFD2D1"/>
</linearGradient>
<linearGradient id="paint2_linear_72_292" x1="115.224" y1="240.457" x2="20.4388" y2="296.993" gradientUnits="userSpaceOnUse">
<stop stop-color="#FEBBBA"/>
<stop offset="1" stop-color="#FFDFDE"/>
</linearGradient>
<linearGradient id="paint3_linear_72_292" x1="109.818" y1="251.204" x2="34.1417" y2="308.268" gradientUnits="userSpaceOnUse">
<stop stop-color="#FFD2D1"/>
<stop offset="1" stop-color="#FFD0CF"/>
</linearGradient>
<linearGradient id="paint4_linear_72_292" x1="104.999" y1="179.5" x2="77.9988" y2="179.5" gradientUnits="userSpaceOnUse">
<stop stop-color="#FEBBBA"/>
<stop offset="1" stop-color="#FFD2D1"/>
</linearGradient>
<linearGradient id="paint5_linear_72_292" x1="71.6569" y1="193.429" x2="63.4034" y2="193.429" gradientUnits="userSpaceOnUse">
<stop stop-color="#FEBBBA"/>
<stop offset="1" stop-color="#FF928E"/>
</linearGradient>
<linearGradient id="paint6_linear_72_292" x1="58.5398" y1="182.759" x2="-1.53577" y2="186.842" gradientUnits="userSpaceOnUse">
<stop stop-color="#FEBBBA"/>
<stop offset="1" stop-color="#FF928E"/>
</linearGradient>
</defs>
</svg>
