<svg width="180" height="53" viewBox="0 0 180 53" fill="none" xmlns="http://www.w3.org/2000/svg">
<path d="M167.555 37.3297C167.71 37.8382 166.949 37.8763 167.323 38.423C167.826 38.3594 167.581 37.7365 167.981 37.6094C167.903 37.2915 168.148 37.2025 168.122 36.9229C167.89 37.0246 167.736 37.1898 167.555 37.3297Z" fill="white"/>
<path d="M169.747 34.5837C169.476 34.5582 169.438 34.8633 169.567 34.9905C169.76 34.9523 169.812 34.8125 169.747 34.5837Z" fill="white"/>
<path d="M167.039 39.8087C167.052 39.8723 167.026 39.9104 167.013 39.9613C167.117 40.0503 167.22 39.9359 167.233 39.8342C167.168 39.8214 167.129 39.7706 167.039 39.8087Z" fill="white"/>
<path d="M168.097 36.3889C168.006 36.5288 168.032 36.7067 168.161 36.8085C168.471 36.783 168.587 36.6178 168.587 36.3635C168.471 36.2491 168.355 36.3889 168.097 36.3889Z" fill="white"/>
<path d="M172.288 22.0739C172.894 22.0485 172.211 21.5399 172.288 22.0739V22.0739Z" fill="white"/>
<path d="M168.651 36.1219C168.896 36.1219 169.012 36.0202 168.948 35.7914C168.741 35.7278 168.548 35.855 168.651 36.1219Z" fill="white"/>
<path d="M176.582 29.2949C176.169 29.867 176.015 30.6425 175.589 31.2146C175.189 32.8928 174.209 34.1387 173.655 35.7151C173.577 35.766 173.487 35.8168 173.384 35.855C173.036 36.7195 172.417 37.3806 172.12 38.2832C171.05 39.7198 170.392 41.3852 169.425 42.8854C169.206 43.2287 168.935 43.4956 168.729 43.8516C168.097 44.9449 167.4 46.1527 166.627 47.2206C165.698 48.5047 165.195 49.3056 164.138 50.3735C163.854 50.6659 163.557 50.9965 163.196 51.2761C163.183 50.9583 163.506 50.8947 163.596 50.6405C163.544 50.043 164.241 49.8141 164.022 49.2293C164.421 48.7716 164.034 48.6572 164.421 48.1995C164.524 48.0851 164.628 47.6656 164.705 47.5893C165.182 47.3096 165.453 47.1825 165.26 46.5468C165.685 46.4705 165.582 45.873 165.672 45.6696C165.969 45.3645 166.059 44.9195 166.51 44.7288C166.536 44.5127 166.394 44.5 166.356 44.3601C166.781 43.8516 167.207 43.3304 167.374 42.6311C168.135 42.2497 168.045 41.2454 168.664 40.775C168.703 39.8342 169.605 39.5418 169.567 38.5375C169.696 38.4612 169.825 38.3976 169.979 38.3341C170.031 38.2705 169.992 38.1179 169.979 38.0035C170.341 37.8001 170.302 37.317 170.689 37.139C171.192 35.7406 172.249 34.7616 172.675 33.3123C172.817 33.2488 172.881 33.1216 173.036 33.0708C173.062 32.9309 173.049 32.7784 173.074 32.6385C173.5 32.1554 173.874 31.6342 174.003 30.9222C174.803 30.223 175.022 29.1042 175.834 28.405C175.834 28.2525 175.95 28.1762 175.924 28.0109C176.518 27.4769 176.801 26.7269 177.15 26.0149C177.266 25.8751 177.446 25.7861 177.536 25.6208C177.588 25.6081 177.627 25.6208 177.64 25.6589C177.459 27.0066 176.685 27.8965 176.582 29.2949ZM164.602 45.5806C164.55 44.9195 165.092 44.3474 165.156 43.6355C165.247 43.4448 165.427 43.3304 165.466 43.1142C165.685 43.966 164.821 44.7542 164.602 45.5806ZM165.995 42.0718C165.943 42.4277 165.801 42.7074 165.582 42.949C165.479 42.682 165.724 42.2879 165.84 42.0463C165.917 42.0209 165.93 42.0718 165.995 42.0718ZM166.136 41.3725C166.24 41.4488 166.201 41.7794 165.995 41.7794C165.84 41.5886 165.995 41.4615 166.136 41.3725ZM163.041 45.8857C162.706 45.695 163.003 45.1865 163.261 45.0339C163.351 44.4237 163.777 44.0423 163.854 43.4194C164.383 43.1142 164.254 42.3133 164.769 41.9955C164.86 41.4488 165.311 41.1564 165.285 40.5334C165.724 40.241 165.608 39.5291 166.085 39.2748C165.917 38.7917 166.407 38.779 166.394 38.4103C166.562 38.4231 166.394 38.7917 166.652 38.8044C166.253 39.0079 166.265 39.5037 165.904 39.7198C165.943 40.3809 165.711 40.8386 165.221 41.1055C165.234 41.4107 165.105 41.6141 164.924 41.7666C164.937 41.9573 165.066 41.9828 165.079 42.1735C164.602 42.4913 164.15 43.0507 164.331 43.7245C163.931 43.9915 163.583 44.2966 163.673 44.9195C163.261 45.0975 163.183 45.5298 163.041 45.8857ZM162.784 43.8135C162.603 43.4575 162.745 43.1905 162.912 42.9744C162.938 42.7837 162.745 42.8473 162.771 42.6566C163.106 42.2116 163.622 41.8811 163.789 41.309L164.073 41.2708C163.57 42.0718 163.338 43.0507 162.784 43.8135ZM166.072 36.5288C166.124 36.4398 166.149 36.3254 166.278 36.3127C166.317 36.4525 166.188 36.4906 166.072 36.5288ZM162.358 38.4866C162.616 36.8593 163.725 35.855 164.047 34.2658C164.628 33.6937 164.718 32.7784 165.208 32.13C165.221 31.9393 165.195 31.9647 165.156 31.7486C166.175 30.3628 166.717 28.6084 167.826 27.2862L167.968 27.2608C168.058 27.6931 167.619 27.7312 167.813 28.2397C167.284 28.8881 166.962 29.6763 166.73 30.5535C165.853 31.6469 165.698 33.2996 164.847 34.4184C164.821 35.2829 164.06 35.8168 164.086 36.5923C163.686 37.0373 163.338 37.5204 162.861 37.9145C162.822 38.1815 162.861 38.512 162.513 38.5375C162.487 38.512 162.448 38.4739 162.358 38.4866ZM161.778 35.0667C161.584 34.7108 162.242 34.4565 161.829 34.0497C162.216 33.2106 162.59 32.3715 162.758 31.3799C163.338 30.4391 163.918 29.4856 164.602 28.6211C164.808 28.8245 164.331 29.1932 164.228 29.4348C164.318 29.7653 164.15 29.9052 164.138 30.1721C163.725 30.312 163.854 30.8587 163.48 31.0367C163.454 31.9266 162.771 32.3334 162.771 33.2488C162.358 33.7827 162.306 34.5964 161.778 35.0667ZM161.855 45.8094C161.649 45.6187 161.571 45.2628 161.597 45.0339L161.791 45.0085C161.881 45.1992 161.868 45.5806 161.855 45.8094ZM161.223 50.2718C161.094 50.0302 160.939 49.8141 160.914 49.4454C161.107 49.2675 161.468 48.9369 161.752 49.1785C161.52 49.509 161.507 49.9921 161.223 50.2718ZM160.681 34.4947C160.772 34.2277 161.03 33.9353 160.952 33.6937C161.288 33.3886 161.094 32.9691 161.262 32.4987C161.326 32.3334 161.584 32.1554 161.674 31.9647C161.829 31.6087 161.932 31.3163 161.855 30.9095C162.435 29.8797 162.061 29.8162 162.719 28.8373L162.758 29.0788C162.822 28.8754 163.106 28.8245 163.016 28.5194C162.951 28.3923 162.861 28.5703 162.784 28.5576C162.796 28.3542 162.848 28.1889 162.951 28.049C163.054 28.0236 163.003 28.2143 163.029 28.2779C163.235 28.2906 163.17 28.0999 163.403 28.1253C163.428 28.4177 163.17 28.5194 163.261 28.8627C163.751 28.7991 163.622 28.2906 163.931 28.0999C163.957 27.9219 163.789 27.9855 163.789 27.8329C164.022 27.8329 164.073 27.3625 163.854 27.299C164.009 27.1464 164.202 26.9557 164.009 26.6506C164.06 26.676 164.125 26.6887 164.202 26.676C164.034 26.3709 164.176 26.409 164.163 26.0531C163.725 26.2692 163.648 26.7396 163.441 27.121C163.467 27.2735 163.622 27.2608 163.789 27.21C163.777 27.4134 163.609 27.4897 163.57 27.6676C163.312 27.4388 163.183 27.7948 162.964 27.8456C162.745 27.5278 163.235 27.4897 163.016 27.1718C163.17 27.1718 163.235 27.1083 163.338 27.0828C163.441 26.4345 163.777 25.9514 164.073 25.4428C164.215 25.392 164.189 25.5572 164.331 25.5064C164.486 25.4428 164.537 25.125 164.396 24.9724C164.215 25.0106 164.241 25.2013 164.15 25.2903C163.983 25.2903 164.022 25.0106 163.867 24.9979C163.351 25.3538 163.132 25.9386 163.029 26.5997C162.835 26.6379 162.809 26.8031 162.68 26.8921C162.01 29.0025 161.7 29.778 161.043 31.9012C160.914 31.9266 160.939 32.0791 160.836 32.1173C160.81 32.6767 160.23 33.5666 160.14 34.0751C159.663 33.948 160.204 32.397 159.714 32.1808C159.315 30.9095 160.191 30.7315 160.269 29.5492C160.733 28.8627 160.888 28.8118 161.081 27.9346C161.881 26.6633 162.345 25.1504 163.183 23.8918C163.158 23.6757 163.261 23.5613 163.196 23.3197C163.377 23.1672 163.506 22.9892 163.66 22.8239C163.583 22.5696 163.802 22.5315 163.789 22.3281C164.396 21.6543 164.834 20.8661 165.053 19.8998C165.44 19.5184 165.724 18.7684 166.072 18.1708C166.253 17.8657 166.562 17.7767 166.485 17.2936C166.627 17.2809 166.652 17.1665 166.755 17.1156C167.117 16.1876 167.594 15.3485 168.2 14.6111C168.2 14.0772 168.819 14.0009 168.703 13.3907C169.115 12.8059 169.515 12.1956 169.902 11.5854C169.863 11.4201 169.915 11.3184 169.941 11.1913C170.431 10.9243 170.611 10.4285 170.779 9.91995C172.404 9.66568 171.836 11.2167 171.836 12.221C171.695 12.1956 171.72 12.31 171.604 12.2973C171.72 12.9966 171.024 13.3144 171.256 13.9755C171.011 14.1916 170.663 14.4967 170.908 14.9417C170.715 15.0688 170.611 15.2595 170.431 15.3866L170.482 15.7172C169.941 16.4546 169.657 17.3699 169.231 18.1963C169.244 18.2725 169.231 18.3743 169.309 18.3743C169.167 18.6158 168.948 18.8065 168.767 19.0226C168.729 19.8109 168.122 20.1795 167.955 20.8661C167.968 21.222 167.929 21.5144 167.839 21.7941C167.542 21.8323 167.194 21.578 166.975 21.8704C167.039 22.023 167.22 22.0102 167.349 22.0611C167.117 23.4087 166.42 24.4003 165.891 25.5318C165.556 25.2394 165.93 24.6038 165.466 24.2986C165.092 24.4258 164.847 24.6546 164.731 24.9724C164.769 25.1504 164.976 25.0614 164.873 25.2903C165.015 25.2648 165.156 25.3411 165.324 25.4174C165.492 25.9132 165.066 26.1293 165.35 26.5743C165.04 27.0955 164.937 27.7821 164.357 28.1126C164.073 28.7101 163.622 29.1932 163.325 29.7908C163.183 29.8416 163.145 29.7653 163.029 29.778C163.08 30.4137 161.997 30.5281 162.448 31.2019C161.61 32.8038 161.481 33.0835 161.004 34.9523C160.836 34.9015 160.81 34.6345 160.681 34.4947ZM159.585 38.2832C159.057 38.8045 158.399 39.0714 157.638 39.0714C156.89 39.0714 156.245 38.8044 155.704 38.2705C155.162 37.7365 154.891 37.1009 154.891 36.3635C154.891 35.6134 155.162 34.965 155.691 34.4438C156.22 33.9226 156.877 33.6556 157.638 33.6556C158.399 33.6556 159.057 33.9226 159.585 34.4438C160.114 34.965 160.385 35.6134 160.385 36.3635C160.385 37.1263 160.127 37.762 159.585 38.2832ZM156.065 29.6128C156.194 29.8543 155.987 30.1213 155.923 30.3501C155.846 30.223 155.729 30.1467 155.639 30.0577C155.652 29.8289 155.742 29.4729 156.065 29.6128ZM157.574 30.5663L157.548 30.3756C157.715 30.312 157.754 30.5663 157.574 30.5663ZM163.145 21.9085C163.132 21.9975 162.822 22.1501 162.848 21.8958C162.964 21.8704 163.08 21.8577 163.145 21.9085ZM157.844 28.7864C157.896 27.8202 158.812 27.3371 158.605 26.32C159.353 25.57 159.392 24.2859 160.153 23.5613C160.527 22.7603 161.03 22.0484 161.262 21.1457C161.907 20.6372 161.958 19.6964 162.59 19.1879C163.531 17.3445 164.873 15.8062 166.008 14.1026C166.175 14.0899 166.162 13.9373 166.317 13.9119C166.936 12.844 167.89 12.0176 168.741 11.1277C168.909 11.1531 168.78 11.2167 168.819 11.3565C168.019 11.7379 168.058 12.7296 167.426 13.2381L167.478 13.5686C167.065 13.8992 166.639 14.4331 166.704 14.9798C166.459 14.9798 166.394 15.1069 166.253 15.1832C166.162 16.0604 165.272 16.3401 165.285 17.2936C164.847 17.5098 164.55 17.8149 164.666 18.4378C164.318 18.6539 164.37 19.1752 163.918 19.315C163.88 19.4676 163.931 19.4803 163.97 19.6456C163.274 20.4465 162.796 21.4127 162.255 22.3281C162.371 22.7985 162.539 23.3578 162.319 23.7647C162.139 23.7774 162.165 23.5231 161.907 23.6248C161.842 23.6503 161.842 23.7138 161.778 23.7392C162.448 24.6927 160.798 24.8453 160.901 25.7861C160.849 25.8878 160.681 25.9005 160.591 25.9768C160.604 26.0912 160.694 26.1039 160.681 26.2565C160.179 26.4599 160.179 26.9938 160.282 27.5659C159.934 27.7948 159.547 27.9728 159.637 28.5194C159.495 28.5703 159.521 28.405 159.379 28.4559C159.25 28.7483 159.508 28.939 159.611 29.0915C159.418 29.1424 159.379 29.3458 159.147 29.2568C159.121 29.4602 159.186 29.6255 159.198 29.9179C159.031 30.0959 158.683 30.1213 158.631 30.3756C158.657 30.5154 158.773 30.5154 158.812 30.6425C158.618 30.8332 158.631 31.1892 158.205 31.2019C158.309 30.5027 157.883 29.9815 157.612 29.4602C157.703 29.2187 157.625 28.8881 157.844 28.7864ZM165.891 28.1507C165.904 28.3542 165.737 28.5703 165.608 28.5321C165.595 28.3287 165.762 28.0999 165.891 28.1507ZM165.879 28.0109C165.891 27.5532 165.969 27.1464 166.369 26.9811C166.588 26.2056 167.129 25.6589 167.607 25.0741C167.684 25.0487 167.697 25.0996 167.723 25.1504C167.478 25.8751 166.794 26.2565 166.678 27.0701C166.33 27.3371 166.24 27.7693 165.879 28.0109ZM172.443 7.59342L172.404 7.31373C172.649 7.2883 172.636 7.08489 172.739 6.98318C172.726 6.83063 172.584 6.84334 172.597 6.66535C172.778 6.62721 172.894 6.81791 173.036 6.65264C173.203 6.53822 173.113 6.46194 173.074 6.25853C173.59 6.10597 173.526 5.52116 174.016 5.35589C173.964 5.21604 174.08 5.1779 174.016 5.02534C174.351 4.7965 174.635 4.52953 174.661 4.07185C174.983 3.95743 175.164 3.74131 175.305 3.49975C175.28 3.29634 175.138 3.20735 175.189 3.02936C175.267 2.90223 175.434 3.08022 175.512 2.94037C175.602 2.86409 175.589 2.71153 175.602 2.5844C175.873 2.45727 176.066 2.27928 176.105 1.98688C176.595 1.77075 176.879 1.41478 177.137 1.02067C177.614 1.00796 177.678 0.58842 178.13 0.791832C178.014 1.13509 177.794 1.59277 177.962 2.0123C177.549 2.30471 177.291 2.90223 177.446 3.47433C176.866 4.16084 176.711 5.1779 176.247 5.95341C176.234 6.10597 176.35 6.08054 176.337 6.2331C175.937 6.51279 176.002 7.13574 175.899 7.64427C175.383 7.94939 175.293 8.57234 175.189 9.18258C174.97 9.27157 175.073 9.46227 174.97 9.64025C174.919 9.71653 174.751 9.75467 174.712 9.86909C174.609 10.1361 174.648 10.5048 174.545 10.759C174.48 10.9243 174.274 11.026 174.222 11.1913C174.119 11.4837 174.132 11.6871 173.99 11.9922C173.706 12.6279 173.397 13.3525 173.319 14.1535C173.139 14.217 173.049 14.3442 172.984 14.484C172.894 15.9969 171.733 16.7215 171.733 18.3107C171.011 19.0226 171.101 20.3448 170.212 20.9296C170.186 21.1585 170.366 21.0949 170.366 21.2983C170.237 21.3619 170.237 21.2475 170.121 21.2856C169.67 22.0102 168.948 22.5188 168.612 23.3197C168.419 23.396 168.29 23.5358 168.071 23.5867C168.032 24.1588 167.658 24.4893 167.22 24.769C167.207 24.5275 167.4 24.4258 167.542 24.2859C167.439 23.6248 168.058 23.4977 167.916 22.7985C168.148 22.684 168.213 22.4552 168.484 22.3789C168.496 21.8068 168.832 21.4509 168.651 20.8661L168.896 20.8279C169.167 20.3702 169.567 20.0016 169.618 19.3786C169.734 19.3659 169.76 19.2896 169.85 19.2515C169.67 18.4632 170.637 17.9674 170.482 17.1919C171.308 16.8232 170.663 15.5392 171.617 15.2087C171.437 14.2933 172.094 13.9882 172.056 13.1745C172.198 12.933 172.494 12.5897 172.546 12.1448C172.584 11.7634 172.443 11.3184 172.468 10.9497C172.481 10.759 172.688 10.4793 172.662 10.3013C172.623 9.80553 172.056 9.84367 172.043 9.37327C171.914 9.208 171.72 9.11901 171.475 9.11901C171.759 8.59777 171.914 7.94939 172.443 7.59342ZM170.25 27.2481C170.431 27.1973 170.534 27.2481 170.65 27.2862C170.547 27.6804 170.147 27.8711 169.954 28.2016C169.992 28.2652 170.044 28.316 170.083 28.3796C169.773 28.9771 169.36 29.4983 169.064 30.1086C168.935 30.1594 168.948 30.0323 168.857 30.045C169.038 29.7526 169.064 29.2187 168.909 29.028C169.064 29.0788 169.154 29.0025 169.283 28.9263C169.489 28.2906 170.031 27.8965 170.25 27.2481ZM167.4 33.8463C167.413 33.7064 167.413 33.5793 167.607 33.5793L167.632 33.77C167.581 33.8209 167.503 33.8463 167.4 33.8463ZM171.527 28.6593C172.352 28.1762 172.894 27.4897 173.448 26.8031C174.493 26.1293 175.202 25.214 176.672 24.858C176.672 24.9216 176.685 24.9979 176.737 24.9979C176.505 25.6208 175.886 25.9641 175.808 26.7141C175.189 27.5914 174.467 28.3796 174.055 29.4094C173.964 29.4602 173.848 29.5111 173.784 29.5873C173.771 29.7908 173.822 29.778 173.797 29.9687C172.946 30.5535 172.829 31.6977 172.198 32.4478C172.03 32.486 172.004 32.3334 171.849 32.3588C171.643 32.4351 171.72 32.7148 171.398 32.6131C171.011 33.1979 170.392 33.6047 169.902 34.1133C169.915 34.2531 169.979 34.3421 170.083 34.3802C170.469 34.2023 170.663 33.8844 171.114 33.7573C170.353 35.6897 169.141 37.2916 168.29 39.1477C168.122 39.3003 168.019 39.5037 167.929 39.7198C167.813 39.7834 167.774 39.9105 167.619 39.9486C167.594 40.3936 167.426 40.7369 167.078 40.9403C167.065 40.8513 166.936 40.9021 166.949 40.7623C167 40.5462 167.374 40.5716 167.374 40.3173C167.336 40.1775 167.258 40.1012 167.142 40.0631C166.743 40.4317 166.627 40.9911 166.201 41.3471C166.175 41.0547 166.523 40.8894 166.278 40.5716C166.691 40.3173 166.794 39.8342 166.988 39.4147C167.194 39.3511 167.117 39.6562 167.31 39.6054C167.4 39.4147 167.619 39.3257 167.736 39.1604C167.736 39.0079 167.645 38.9697 167.555 38.9443C167.297 38.9316 167.387 39.1858 167.207 39.2367C166.988 38.9951 167.374 38.9062 167.258 38.601C167.104 38.4739 167.026 38.7663 166.781 38.7155C166.82 38.3722 167 38.1434 166.988 37.7747C166.988 37.5967 166.755 37.7111 166.678 37.6221C166.652 37.3679 166.833 37.5331 166.962 37.5331C167.155 37.3043 167.284 37.0119 167.22 36.5796C167.581 36.2364 167.594 35.6516 167.697 35.1176C168.316 34.2912 168.522 33.1471 168.986 32.1936C169.206 32.0156 169.309 31.7613 169.309 31.4308C169.825 30.3501 171.037 29.7653 171.527 28.6593ZM153.924 38.4866C153.602 38.0162 153.189 37.6603 152.944 37.0882C152.377 36.694 152.622 36.3508 152.015 36.0075C151.396 34.5074 150.146 33.8336 149.617 32.2063C149.565 32.1046 149.449 32.0791 149.346 32.0537C149.243 30.846 148.83 30.0069 148.134 29.3458C148.585 28.6338 147.437 28.3669 147.708 27.7185C147.463 27.5151 147.296 27.2862 147.399 26.9048C147.334 26.7141 147.192 26.6252 147.012 26.5743C147.025 25.9768 146.599 25.5827 146.522 25.1504C147.257 25.5191 147.708 26.2438 148.392 26.6633L148.43 26.9048C149.978 28.1507 150.945 30.1722 152.157 31.863C152.273 32.4097 152.544 32.7275 152.854 33.0199L152.905 33.3505C153.421 33.7954 153.124 34.1895 153.537 34.7616C153.563 35.677 154.401 37.0119 153.937 37.8764C154.053 38.0798 154.001 38.2959 153.924 38.4866ZM151.732 37.4696C151.345 36.9737 150.932 36.4271 150.507 35.766C150.378 35.5753 150.391 35.3846 150.416 35.1049C151.267 35.8677 151.758 37.1136 152.57 37.9272C152.583 38.0798 152.686 38.1179 152.673 38.2959C152.918 38.5629 153.189 38.8044 153.253 39.313C152.634 38.9062 152.26 38.1561 151.732 37.4696ZM153.047 47.958C152.751 47.9198 152.583 47.7164 152.48 47.4113C152.828 47.3859 152.983 47.6147 153.047 47.958ZM153.563 49.598C153.627 49.9285 153.692 49.9285 153.653 50.2464C153.021 50.1065 152.673 49.598 152.248 49.2039C152.751 48.9369 153.021 49.6616 153.563 49.598ZM149.539 36.8975C150.816 37.762 151.435 39.4783 152.054 41.2073C151.113 39.9105 150.274 38.4612 149.539 36.8975ZM148.972 41.9446C149.436 41.8938 149.552 41.5886 149.707 41.309C149.539 41.0801 149.398 41.4615 149.217 41.3344C149.178 41.1691 149.423 41.2072 149.372 41.0293C149.114 40.7496 148.856 40.3046 148.405 40.4445C148.534 39.9105 148.031 39.1731 147.592 38.8807C147.541 38.7027 147.695 38.6773 147.631 38.4866C147.553 38.3341 147.244 38.4739 147.089 38.423C146.96 38.2578 147.167 37.9145 146.831 37.9781C146.87 37.6348 146.689 37.2407 146.38 37.1772C145.658 35.499 144.755 34.0497 144.072 32.308C144.652 32.5368 144.858 33.2488 145.374 33.5666C145.838 34.8252 146.702 35.5626 147.399 36.5033C147.579 37.2153 147.966 37.673 148.405 38.0417C148.843 39.224 149.733 39.8215 150.029 41.1818C150.21 41.4234 150.416 41.8048 150.21 42.1226C150.61 42.415 150.997 43.0125 151.1 43.5338C150.984 43.6609 150.894 43.4194 150.752 43.4448C150.661 43.5592 150.623 43.7372 150.713 43.877C150.919 43.966 150.997 43.8008 151.126 43.7245C151.293 44.2076 151.667 44.6653 151.835 45.3009C150.674 44.4491 149.617 43.4702 148.972 41.9446ZM148.817 41.5378C148.585 41.5251 148.469 41.3598 148.456 41.0547C148.663 41.0038 148.727 41.1564 148.908 41.131C148.946 41.3217 148.843 41.3979 148.817 41.5378ZM146.277 41.1691C146.432 41.1437 146.599 41.1183 146.586 41.3217C146.432 41.3344 146.277 41.3598 146.277 41.1691ZM145.206 39.7834C144.936 39.7834 145.245 39.3638 145.039 39.2748C145.155 39.1223 145.4 39.6562 145.206 39.7834ZM144.549 39.0079C144.562 38.9316 144.6 38.8807 144.613 38.8044C144.781 38.8044 144.755 39.0333 144.549 39.0079ZM146.818 34.4184C146.664 34.4057 146.56 34.3421 146.535 34.1641C146.689 34.1768 146.793 34.2404 146.818 34.4184ZM147.979 36.0838C147.682 35.6134 147.283 35.2829 147.051 34.7235C147.541 34.9015 147.889 35.5626 147.979 36.0838ZM143.285 29.8162C143.22 29.2949 142.846 29.1932 142.614 28.9008C142.692 28.6847 142.46 28.4559 142.627 28.2779C142.356 28.0618 142.111 27.5659 142.382 27.2608C142.086 26.676 141.815 25.8242 141.931 25.1631C141.673 24.4385 141.454 23.7774 141.338 23.04C141.26 22.5951 140.796 22.1628 141.093 21.6797C141.093 21.4 140.951 21.2983 140.912 21.0822C141.093 20.7643 140.835 20.3702 140.822 20.0905C141.067 19.2388 142.111 19.5184 142.808 19.671C142.859 19.8236 142.988 19.8744 143.091 19.9634C143.001 20.5736 143.427 20.9932 143.272 21.5653C142.988 21.7178 142.705 22.0102 142.447 22.3027C143.014 24.3241 143.852 26.0022 144.587 27.6676C144.742 27.8838 145.039 27.8965 145.271 28.0109C145.232 28.1635 145.206 28.3287 145.09 28.4177C145.684 29.3331 146.122 30.3756 146.419 31.2528C146.277 31.7486 146.56 32.3715 146.857 32.6385C146.909 33.3123 147.321 33.4903 147.36 34.0624C147.115 33.9353 146.857 33.7954 146.922 33.4013C146.805 33.0835 146.354 33.2106 146.135 33.0326C146.019 32.8038 146.07 32.3715 145.748 32.4097C145.774 32.308 145.877 32.2444 145.851 32.1046C145.748 31.9647 145.503 32.0029 145.387 31.8757C145.516 31.3926 144.987 31.4816 144.768 31.2909C144.703 31.1384 144.807 31.1002 144.768 30.9604C144.665 30.8078 144.471 30.7824 144.252 30.7951C144.072 30.2611 143.594 30.1594 143.285 29.8162ZM143.117 34.1133C143.091 34.0751 143.053 34.0497 143.053 33.9734C143.091 33.9353 143.156 33.9098 143.233 33.8971C143.272 34.0243 143.246 34.1133 143.117 34.1133ZM142.627 32.7402C142.524 32.7148 142.408 32.6258 142.498 32.5241C142.601 32.5495 142.692 32.6639 142.627 32.7402ZM142.163 31.8503C142.06 31.7105 141.97 31.5706 141.776 31.5706C141.634 30.8587 141.041 30.7442 140.964 29.956C140.358 29.7272 140.37 28.672 139.855 28.3287L139.519 28.3796C139.545 27.9982 139.416 27.4642 139.081 27.3879C139.158 26.9811 138.836 26.6887 138.488 26.6506C138.397 26.498 138.668 26.3963 138.488 26.32C138.591 26.1548 138.746 26.3963 138.887 26.3582C139.029 26.8413 139.339 27.1083 139.79 27.1973C140.319 28.0618 141.028 28.7101 141.712 29.3839C141.686 30.401 142.485 31.4943 142.498 32.486C142.421 32.4224 142.356 32.3334 142.227 32.3334L142.163 31.8503ZM144.665 23.8155C145.026 23.9681 145.052 24.5783 145.219 24.9851C145.052 24.6037 144.562 24.1842 144.665 23.8155ZM145.245 25.125C145.322 25.1886 145.374 25.2903 145.387 25.4428C145.271 25.4174 145.155 25.2394 145.245 25.125ZM146.07 23.129C145.89 22.9383 145.58 22.9129 145.426 22.6968C145.542 22.2899 145.271 22.0865 144.987 22.0357C145 21.8577 145.219 21.6161 145.052 21.4509C145.219 21.3492 145.503 21.5653 145.709 21.6034C145.813 22.0738 146.303 22.2264 146.573 22.5442C146.922 22.9383 147.063 23.574 147.67 23.6884C148.121 24.2859 148.559 24.9089 149.088 25.4174C149.14 25.481 149.217 25.5064 149.346 25.481C149.385 25.6462 149.385 25.7861 149.359 25.9132C148.675 25.8369 148.598 24.9851 147.94 24.858C147.747 24.2859 147.27 24.0952 146.818 23.8664C146.664 23.5485 146.393 23.3833 146.019 23.3578C146.07 23.2943 145.993 23.1544 146.07 23.129ZM140.654 19.3278C140.577 18.8828 140.757 18.1327 140.448 17.9166C140.641 17.6877 140.474 17.4589 140.474 17.1029C140.461 16.8995 140.19 17.0267 140.19 16.8105C140.422 16.7851 140.499 16.2257 140.164 16.2893C140.37 16.0477 140.461 15.5519 140.203 15.2214C140.151 15.0434 140.332 15.0307 140.358 14.9163C139.971 14.1789 140.615 13.6831 140.254 12.8694C140.422 12.7296 140.487 12.5007 140.564 12.2973C140.551 12.1575 140.538 12.0431 140.383 12.0812C140.744 11.2421 141.557 11.9922 142.227 12.0176C142.408 12.5134 142.846 12.6533 143.027 13.1491C143.917 13.7085 144.213 15.0561 145.129 15.5901C145.142 15.7172 145.129 15.8189 145.077 15.8825C145.361 16.1113 145.825 16.5054 145.671 16.9504C146.599 17.6242 146.677 19.0099 147.566 19.6583C147.541 19.7727 147.45 19.8617 147.412 19.9634C147.463 20.1287 147.605 20.1923 147.708 20.3067C148.224 21.6543 149.14 22.9383 149.668 24.4512C149.127 24.4512 149.294 23.5231 148.585 23.7392C148.598 23.1799 148.276 22.773 147.721 22.7985C147.566 22.6078 147.76 22.5569 147.695 22.3154C147.45 21.9213 147.115 21.6543 146.664 21.5526C146.535 21.1712 146.303 20.9423 145.851 20.9932C145.709 20.8915 145.89 20.8406 145.864 20.7008C145.645 20.5101 145.464 20.2558 145.116 20.2304C145.013 19.8236 144.652 19.76 144.304 19.671C144.084 19.2133 143.646 19.0481 143.169 18.9209C142.988 18.9209 142.963 19.0481 142.911 19.1498C142.292 18.8192 141.325 18.9336 140.654 19.3278ZM150.055 26.8031C149.901 26.7396 149.668 26.7777 149.668 26.5235C149.888 26.5107 150.055 26.5489 150.055 26.8031ZM150.3 27.1591C150.365 27.3625 150.068 27.3625 150.107 27.1337C150.197 27.121 150.223 27.1845 150.3 27.1591ZM138.178 38.0289C138.139 37.8891 138.191 37.8128 138.346 37.8128L138.372 38.0035L138.178 38.0289ZM140.822 37.0754C140.77 36.9992 140.667 36.9737 140.68 36.8085L141.067 36.7576C141.131 36.9737 141.002 37.05 140.822 37.0754ZM178.594 0.918965C178.375 0.906252 178.233 0.804546 178.194 0.537567C178.388 0.575707 178.62 0.779119 178.594 0.918965ZM178.194 20.1922C178.026 20.1414 177.82 20.1287 177.678 20.027C177.781 19.9507 177.91 19.8871 177.82 19.671C177.343 19.493 176.672 19.582 176.26 19.315C175.795 19.6202 175.073 19.5184 174.493 19.6074C174.467 20.1668 173.797 20.2431 173.629 20.6881C173.59 20.6245 173.513 20.6118 173.423 20.6245C173.358 20.6881 173.436 20.8533 173.307 20.8788C173.126 20.9042 173.139 20.7008 172.907 20.7898C172.804 21.1076 172.455 21.2347 172.443 21.6288C172.907 21.7814 173.139 21.0949 173.719 21.0695C173.784 20.9805 173.797 20.8406 173.874 20.7643C174.545 20.4974 175.009 20.0905 175.757 19.9761C178.078 19.5947 178.259 22.1501 177.846 24.0062C177.64 23.3578 176.853 23.3833 176.569 23.9427C176.402 23.8918 176.221 23.8664 176.028 23.8791C175.744 24.1842 175.189 24.2986 175.073 24.7309C174.441 24.9343 174.222 25.4555 173.758 25.7734C173.603 25.8115 173.487 25.7988 173.371 25.7861C173.062 26.3963 172.455 26.7904 172.081 27.3625C172.017 27.3117 171.901 27.3371 171.785 27.3498C171.733 27.7566 171.334 27.9092 171.127 28.2143C170.998 28.1635 170.831 28.1635 170.753 28.0236C170.998 27.7566 170.908 27.2354 171.14 26.9557C171.153 26.7777 171.011 26.7904 170.998 26.6379C171.192 26.3073 171.437 25.9132 171.14 25.5572C170.495 25.57 170.611 26.142 170.237 26.3582C170.237 26.6379 170.534 26.5234 170.547 26.7904C170.341 26.7777 170.366 26.6252 170.147 26.7523C170.108 27.032 170.108 27.3371 169.747 27.3879C169.644 27.3879 169.631 27.2735 169.58 27.2227C169.618 26.7777 170.031 26.5997 169.838 25.9895C170.457 25.0996 170.689 23.9299 171.321 23.04C171.785 22.9129 171.785 22.4298 172.185 22.2518C172.172 22.023 171.991 22.023 171.978 21.8068C172.236 21.0186 172.817 20.4719 172.92 19.5566C173.062 19.5184 173.178 19.4676 173.294 19.404C173.255 19.2388 173.203 19.2388 173.242 19.0735C173.81 18.6285 174.222 17.8657 174.067 17.0394C173.513 17.0139 173.397 17.3826 172.894 17.3445C172.907 17.1792 172.997 17.0775 172.92 16.8614C173.165 16.5944 173.319 16.2639 173.358 15.8443C173.964 14.573 174.338 13.111 175.035 11.9159C175.073 11.1023 175.396 10.5048 175.77 9.94537C175.77 9.38599 176.144 9.09358 176.311 8.67405C176.195 8.21637 176.376 8.00024 176.621 7.80955C176.634 7.69513 176.66 7.58071 176.608 7.42815C177.15 6.93233 177.021 5.9407 177.485 5.38131C177.459 4.72023 177.833 4.35154 178.104 3.90658C178.065 3.71588 178.13 3.58875 178.13 3.42347C178.297 3.33448 178.4 3.19464 178.517 3.08022C178.568 2.02502 179.213 1.41478 179.136 0.257875C179.097 0.257875 179.071 0.219736 179.071 0.168883C178.246 -0.110809 177.562 -0.0599559 177.021 0.448574C176.853 0.613846 176.801 0.868111 176.621 1.03338C176.311 1.31307 175.924 1.44021 175.641 1.69447C175.628 1.78347 175.641 1.89788 175.576 1.94874C175.422 2.02502 175.28 2.11401 175.125 2.203C174.996 2.73696 174.622 3.09293 174.287 3.47433C174.312 4.26255 173.539 4.46596 173.126 4.93635L173.165 5.1779C172.443 5.90256 171.707 6.83063 171.127 7.61885C170.908 7.92396 170.805 8.17823 170.727 8.5342C170.341 8.66133 170.328 9.18258 170.173 9.38599C169.915 9.71653 169.193 9.90723 168.986 10.2759C168.561 10.3395 168.342 10.5556 168.019 10.6955C167.993 10.8353 167.942 10.9497 167.929 11.0896C167.748 11.204 167.594 11.3438 167.503 11.5345C166.833 11.7761 166.91 12.5516 166.162 12.7296C165.672 13.4415 165.221 14.1916 164.396 14.662C164.408 14.8145 164.318 14.8908 164.357 15.0561C163.48 15.768 163.222 16.9377 162.397 17.6877C162.139 18.6285 161.391 19.2133 160.875 19.9634C160.617 21.0568 159.74 21.7051 159.315 22.684L159.366 23.0146C159.173 23.3451 158.76 23.5104 158.773 24.0062C158.476 24.2096 158.36 24.5402 158.322 24.9343C157.793 25.4555 157.509 26.1548 157.393 26.9811C157.019 27.1845 157.032 27.6676 156.748 27.9346C156.735 28.1126 156.929 28.2016 156.748 28.2652C156.258 28.1253 156.22 27.388 155.562 27.4769C155.407 27.5151 155.42 27.6804 155.252 27.7058C155.11 27.6931 155.098 27.5024 154.891 27.5659C154.401 28.0363 154.698 28.7228 154.762 29.3585C154.814 29.9306 154.711 30.6171 154.736 31.2401C154.762 31.6723 154.994 32.0791 154.762 32.4351C153.821 30.9222 152.918 29.1932 152.003 27.8202C151.951 26.854 151.087 26.0149 150.971 25.036C150.881 24.9216 150.558 25.1123 150.532 25.0487C150.571 24.8962 150.803 24.8834 150.777 24.68C150.545 24.5656 150.661 24.3495 150.584 24.0317C150.326 23.841 150.171 23.5231 149.991 23.2561C150.004 23.1417 150.158 23.129 150.094 22.951C149.746 22.6459 149.772 22.0738 149.269 21.9085C149.307 21.3746 149.127 20.7008 148.637 20.5609C148.663 20.4211 148.74 20.294 148.663 20.0778C148.598 19.9888 148.469 19.9888 148.392 19.9253C148.327 19.7727 148.43 19.7346 148.392 19.5947C147.682 18.7429 147.373 17.3953 146.56 16.6834C146.548 16.569 146.625 16.5308 146.573 16.391C146.122 15.9587 146.006 15.4248 145.709 14.8273C145.503 14.751 145.322 14.662 145.142 14.573C144.742 13.3271 143.904 12.6533 143.349 11.6108C143.066 11.6235 142.975 11.3565 142.769 11.2548C142.666 11.1404 142.563 11.382 142.395 11.3565C142.331 11.2294 142.447 11.2294 142.408 11.115C142.176 11.0133 141.892 10.9751 141.608 10.937C141.363 11.1913 140.964 11.3693 140.499 11.3311C140.332 11.7125 139.829 11.8396 139.816 12.3355C139.919 12.488 140.048 12.2846 140.164 12.3863C140.074 12.5389 140.113 12.8059 139.996 12.933C139.958 12.7804 139.893 12.6533 139.713 12.6787C139.506 12.844 139.674 13.0347 139.829 13.1491C139.713 13.4161 139.893 13.8992 139.506 13.9628C139.61 14.3569 139.197 14.4713 139.365 15.0434C139.429 15.1832 139.622 15.1451 139.687 15.2849C139.545 15.3994 139.326 15.4756 139.365 15.7172C139.494 15.7808 139.558 15.9079 139.61 16.0732C139.597 16.2003 139.403 16.2003 139.352 16.302C139.274 16.8105 139.532 17.497 139.287 17.8912C139.713 18.209 139.932 19.226 139.635 19.671C139.984 20.0524 139.481 20.5864 139.945 20.8279C139.635 21.0695 139.713 21.578 139.571 21.934C140.241 22.6078 139.945 24.5402 140.487 25.5954C140.37 25.9641 140.68 26.5234 140.68 26.9176C140.345 26.7523 140.125 26.4472 139.893 26.1675C139.713 26.1548 139.584 26.409 139.416 26.2819C139.442 26.1039 139.61 26.0403 139.597 25.8242C138.965 24.68 137.83 24.1969 137.237 22.9892C136.837 22.8875 136.669 22.5061 136.527 22.0738C136.282 22.023 136.128 21.845 135.986 21.667C135.676 21.7814 135.599 21.7178 135.354 21.6543C134.658 22.6205 136.205 23.2943 136.205 24.2224C136.308 24.2859 136.45 24.3241 136.489 24.4766C136.94 25.4937 137.559 26.2946 138.01 27.2862C138.101 27.3752 138.204 27.4388 138.294 27.5405C138.372 28.1889 138.887 28.2652 138.939 28.939C139.455 29.3077 139.571 30.1976 140.1 30.5535C140.293 31.3418 140.835 31.685 141.015 32.486C141.428 32.7148 141.583 33.2615 141.866 33.6683C141.918 34.5074 142.692 34.7108 142.705 35.4227C142.434 35.232 142.124 35.1049 141.97 34.7616C141.312 34.8888 141.157 34.3802 140.719 34.215C140.719 33.2869 139.532 33.6429 138.913 33.8844C138.991 34.1768 139.197 34.2912 139.429 34.393C139.597 34.393 139.416 34.1387 139.532 34.0878C139.842 34.2531 140.164 34.3548 140.512 34.4819C141.273 34.7489 142.021 35.5626 142.666 35.8677C142.756 35.9185 142.885 35.8677 142.963 35.9185C143.001 35.944 143.014 36.1092 143.104 36.1855C143.401 36.4525 143.788 36.3889 143.633 36.8339C143.968 37.317 144.484 37.851 144.6 38.4358C143.801 38.3722 143.672 37.6475 143.169 37.2916C142.95 37.3551 143.285 37.584 143.079 37.6348C143.027 37.317 142.705 37.3424 142.73 36.9102C142.653 36.8593 142.511 36.8975 142.382 36.9102C142.369 36.8212 142.498 36.8339 142.447 36.7068C141.97 36.5796 141.866 35.9694 141.273 36.0075C141.26 35.766 141.08 35.7406 141.015 35.5626C140.744 35.6897 140.474 35.5499 140.422 35.8423C140.241 35.8168 140.216 35.588 140.125 35.4482C140.203 35.3846 140.345 35.3592 140.28 35.1812C139.945 35.1176 139.751 34.6854 139.726 34.393C139.39 34.5328 139.261 34.6091 138.823 34.5709C138.733 34.6854 138.939 34.8125 138.771 34.9142C138.591 34.7489 138.513 34.4565 138.475 34.2404C138.423 34.2404 138.346 34.2658 138.32 34.215C138.049 34.3294 138.101 34.5836 137.946 34.6981C138.178 35.0795 138.733 35.0413 138.849 35.5753C139.287 35.7406 139.648 36.0075 139.984 36.3254C139.906 36.6305 140.177 36.8212 140.37 36.9483C140.358 37.05 140.267 37.1009 140.319 37.2407C140.499 37.3806 140.577 37.6475 140.615 37.9654C140.732 38.0925 140.86 38.2069 140.964 38.3468L141.002 38.6265C141.428 38.868 141.66 39.8596 142.215 39.5672C141.957 39.1986 141.467 39.0206 141.557 38.3595C141.415 38.2832 141.209 38.2959 141.131 38.1306C141.144 37.8382 141.557 38.1179 141.57 37.8255C141.222 37.7747 140.977 37.5967 140.809 37.3043C141.673 37.05 142.215 37.6984 142.679 38.1434C142.834 38.1434 143.079 38.0289 143.117 38.1815C143.156 38.3722 143.066 38.4612 143.182 38.601C143.362 38.6138 143.53 38.6646 143.723 38.6646C143.891 38.9189 143.917 39.0587 143.981 39.402C144.033 39.5291 144.239 39.4783 144.304 39.5927C144.471 40.1012 144.91 40.2538 145.271 40.5207C145.194 40.6224 145.284 40.6352 145.31 40.7496C145.658 40.9148 145.851 41.2708 146.148 41.4997C146.496 42.4659 147.618 42.8854 148.056 43.9279C148.843 44.6017 149.346 45.6315 150.068 46.3815C150.094 46.5722 150.339 46.7757 150.249 46.9282C149.385 46.5468 148.469 46.2417 147.85 45.5298C147.682 44.9195 147.141 44.7797 146.728 44.4873C146.444 43.9533 146.045 43.5973 145.619 43.2541C145.271 42.0209 144.239 41.6649 143.736 40.6352C143.517 40.5589 143.311 40.4826 143.195 40.2792C143.233 40.1902 143.44 40.2156 143.349 40.0122C143.349 39.8724 143.091 40.0885 143.091 39.9486C143.182 39.6435 142.963 39.313 142.576 39.4401C142.614 39.6944 142.279 39.8215 142.279 40.0631C142.279 40.6097 142.73 40.5335 142.975 40.8259C143.066 40.9403 143.053 41.1055 143.13 41.2327C143.504 41.8048 144.201 42.1735 144.265 42.6566C144.446 42.7074 144.703 42.9363 144.587 43.1905C143.478 42.6057 142.769 41.4997 141.673 40.9021C140.938 40.0758 140.229 39.2113 139.3 38.6392C138.939 37.6857 137.985 37.5204 137.598 36.6178C137.508 36.5542 137.366 36.5415 137.288 36.4652C136.85 35.855 136.36 35.2956 135.754 34.9015C135.689 34.5328 135.522 34.304 135.225 34.2531C135.07 34.3548 135.225 34.6726 135.057 34.7616C134.799 34.5328 135.006 34.2531 135.044 33.9988C135.367 33.948 135.599 34.0116 135.934 34.0624C136.398 34.5836 137.172 34.5709 137.753 34.8125C137.998 34.4565 137.688 34.0624 137.546 33.7319C137.121 33.7954 137.03 33.4395 136.798 33.2615C136.282 33.2996 135.715 32.7911 135.096 32.9691C134.877 32.7784 134.567 32.7021 134.309 32.5495C133.91 32.7275 133.458 32.7657 133.02 33.0708C132.942 33.1852 133.033 33.414 133.046 33.592C133.394 33.7319 133.549 34.1133 134 34.126C134.245 34.2531 133.884 34.4057 134.064 34.5964C134.103 34.7362 134.322 34.6218 134.374 34.7489C134.284 35.1049 134.696 35.1939 134.941 35.2956C135.006 35.4863 134.903 35.5499 134.954 35.7278C135.289 35.8168 135.418 36.1728 135.676 36.3508C135.831 36.3762 135.754 36.2109 135.844 36.1855C135.883 36.0075 135.56 36.0075 135.702 35.8677C136.063 36.122 136.373 36.4525 136.463 37.0627C136.669 37.1772 136.966 37.1899 137.172 37.3043C137.134 37.4568 136.979 37.5331 137.043 37.7492C137.404 37.8764 137.546 38.4358 138.075 38.1815C138.139 38.4358 138.256 38.6138 138.397 38.7663C138.333 39.2113 138.565 39.4401 139.055 39.3003C139.455 39.4655 139.61 39.9486 139.996 40.1266L140.035 40.4063C140.164 40.4699 140.37 40.4445 140.409 40.6479C140.396 40.8386 140.19 40.953 140.332 41.1437C140.538 41.2073 140.68 41.042 140.873 41.1691C140.719 41.6522 141.338 41.8938 141.621 41.6395C141.931 41.7031 142.034 42.0463 141.918 42.3642C142.047 42.682 142.485 42.5803 142.55 42.9998C142.988 43.1651 143.517 43.2287 143.646 43.8135L144.033 43.7626C144.162 44.0169 144.342 44.2076 144.523 44.411C144.794 44.4237 144.781 44.2076 144.987 44.2966C145.155 44.4873 144.858 44.7034 145.077 44.9068C145.31 44.9322 145.258 44.7288 145.49 44.7542C145.258 45.3009 145.89 45.6187 146.315 45.4535C147.089 46.4578 148.16 47.0681 149.101 47.8563C149.165 47.9071 149.178 48.0088 149.191 48.136C150.352 49.2039 151.783 49.9285 153.047 50.8693L153.099 51.1999C153.318 51.3524 153.46 51.6194 153.602 51.861H154.827C155.265 51.861 155.626 51.505 155.626 51.0727V44.7542C155.626 44.322 155.265 43.966 154.827 43.966H153.279C152.841 43.966 152.48 43.6101 152.48 43.1778V40.953C152.48 40.5207 152.841 40.1648 153.279 40.1648H159.34C159.779 40.1648 160.14 40.5207 160.14 40.953V51.0727C160.14 51.505 160.501 51.861 160.939 51.861H162.268C162.706 51.861 163.067 52.2169 163.067 52.6492V52.9162C163.299 52.7382 163.377 52.4458 163.609 52.2296C163.725 52.2169 163.738 52.1279 163.893 52.1406C164.873 51.0727 165.659 49.8523 166.627 48.7843C166.846 48.7843 166.897 48.6445 167.039 48.5809C167.181 48.1233 167.426 47.7419 167.581 47.3096C168.496 47.1443 168.264 46.1273 168.922 45.784C169.077 45.0467 169.567 44.5508 169.979 44.0042C169.967 43.5465 170.328 43.0761 170.792 42.8345C170.715 42.2752 171.475 42.0718 171.308 41.3217C171.591 41.1945 171.669 40.9148 171.965 40.8004C171.953 40.3428 172.185 40.0631 172.455 39.8215C172.262 39.4147 172.597 39.2876 172.842 39.0969C172.907 38.5629 173.307 38.2959 173.281 37.6857C174.351 37.3297 174.055 36.1219 174.931 35.6261C175.035 34.9015 175.37 34.3421 175.692 33.7954C175.667 33.681 175.589 33.6302 175.602 33.4776C175.899 33.0199 176.169 32.5495 176.427 32.0664C176.402 31.9139 176.26 31.9012 176.273 31.6977C176.44 31.6342 176.492 31.7486 176.66 31.6977C176.763 31.3163 176.827 30.9222 177.098 30.6807C177.085 30.4518 176.763 30.6425 176.801 30.3374C176.956 30.2993 177.021 30.3883 177.188 30.3247C177.291 29.9306 177.407 29.5619 177.562 29.2187C177.536 29.0534 177.395 29.028 177.369 28.8627C177.433 28.6974 177.549 28.5703 177.756 28.5194L177.704 28.138C178.181 27.3625 178.375 26.3963 178.581 25.4174C178.388 25.1377 178.71 24.9216 178.517 24.6546C178.813 24.3622 179.11 23.9427 178.774 23.4214C179.045 23.307 178.839 22.8493 178.955 22.6332C178.787 21.7178 178.375 21.0695 178.194 20.1922Z" fill="white"/>
<path d="M164.473 24.3622C164.886 24.2732 165.092 23.4468 164.615 23.3324C164.383 23.6248 164.499 23.9426 164.473 24.3622Z" fill="white"/>
<path d="M150.12 42.504C150.236 41.9955 149.527 42.4659 150.12 42.504V42.504Z" fill="white"/>
<path d="M164.434 24.413C164.318 24.4638 164.37 24.6418 164.396 24.8071C164.653 24.8325 164.666 24.4003 164.434 24.413Z" fill="white"/>
<path d="M166.291 22.4298C166.227 22.4043 166.149 22.3916 166.046 22.4171L166.085 22.6586C166.265 22.6586 166.253 22.5188 166.291 22.4298Z" fill="white"/>
<path d="M164.55 25.5953L164.408 25.6208C164.37 25.6843 164.37 25.7606 164.396 25.8623C164.576 25.875 164.602 25.7606 164.55 25.5953Z" fill="white"/>
<path d="M150.146 42.6947C150.068 42.9109 150.171 43.3177 150.429 43.2796C150.558 43.1524 150.597 42.949 150.597 42.7329C150.507 42.6439 150.339 42.6566 150.146 42.6947Z" fill="white"/>
<path d="M163.261 29.4729C163.428 29.4094 163.299 29.1424 163.17 29.1551C163.08 29.2187 163.029 29.5365 163.261 29.4729Z" fill="white"/>
<path d="M4 9H0V31H4V9Z" fill="white"/>
<path d="M19.609 31L13.4427 20.4825L11.2404 16.462V31H8V9H10.6427L16.6517 19.6784L18.7596 23.731V9H22V31H19.609Z" fill="white"/>
<path d="M36.9528 15.7399C36.9528 13.4509 35.8241 12.0838 33.341 12.0838H29.9226V27.6301H33.341C35.8241 27.6301 36.9528 26.263 36.9528 24.0058V15.7399ZM33.6312 30.7457H26.4075V9H33.6312C38.3395 9 40.4679 11.8613 40.4679 15.3902V24.3237C40.4357 27.8526 38.3395 30.7457 33.6312 30.7457Z" fill="white"/>
<path d="M48 9H44V31H48V9Z" fill="white"/>
<path d="M52 31V9H64V12.1199H55.5447V17.9094H61.626V20.8684H55.5447V27.848H64V31H52Z" fill="white"/>
<path d="M54.206 45.5608C54.206 43.6851 53.2708 42.7631 51.4648 42.7631H47.7562V49.503H51.8518C53.6255 49.503 54.206 48.4539 54.206 47.1186V45.5608ZM54.0125 35.9597C54.0125 34.5926 53.4965 33.5435 51.6583 33.5435H47.7562V40.0608H51.2713C53.0773 40.0608 54.0125 39.107 54.0125 37.2949V35.9597ZM51.8196 52.3961H44.2089V30.6504H51.6261C55.9797 30.6504 57.4631 32.7804 57.4631 35.9914V36.818C57.4631 39.3932 56.3344 40.7602 54.1737 41.1735C56.6569 41.5868 57.7533 43.2082 57.7533 45.5926V47.055C57.7533 50.266 56.1732 52.3961 51.8196 52.3961Z" fill="white"/>
<path d="M71.6203 36.9134C71.6203 34.6879 70.4916 33.1301 68.0085 33.1301C65.5576 33.1301 64.4289 34.6879 64.4289 36.9134V46.133C64.4289 48.3585 65.5576 49.9163 68.0085 49.9163C70.4916 49.9163 71.6203 48.3585 71.6203 46.133V36.9134ZM68.0407 52.9365C63.1067 52.9365 60.9138 49.9163 60.9138 45.8787V37.1359C60.9138 33.1619 63.1067 30.1099 68.0407 30.1099C73.007 30.1099 75.1677 33.1301 75.1677 37.1359V45.8787C75.1355 49.9163 73.007 52.9365 68.0407 52.9365Z" fill="white"/>
<path d="M86.0032 52.9366C81.8431 52.9366 78.8763 50.6475 78.8763 46.6418V30.6504H82.4236V46.5782C82.4236 48.8036 83.5523 50.0117 86.0032 50.0117C88.4864 50.0117 89.6151 48.8036 89.6151 46.5782V30.6504H93.1302V46.6418C93.1302 50.6475 90.2278 52.9366 86.0032 52.9366Z" fill="white"/>
<path d="M109.438 52L102.831 41.9605L100.472 38.1228V52H97V31H99.8652L106.303 41.2237L108.528 45.0614V31H112V52H109.438Z" fill="white"/>
<path d="M126.185 37.4221C126.185 35.1331 125.056 33.766 122.573 33.766H119.155V49.3123H122.573C125.056 49.3123 126.185 47.9452 126.185 45.688V37.4221ZM122.863 52.3961H115.64V30.6504H122.863C127.572 30.6504 129.7 33.5117 129.7 37.0406V45.9741C129.7 49.5348 127.572 52.3961 122.863 52.3961Z" fill="white"/>
</svg>
