<svg width="180" height="54" viewBox="0 0 180 54" fill="none" xmlns="http://www.w3.org/2000/svg">
<path d="M167.555 38.2662C167.71 38.7747 166.949 38.8129 167.323 39.3595C167.826 39.296 167.581 38.673 167.981 38.5459C167.903 38.2281 168.148 38.1391 168.122 37.8594C167.89 37.9611 167.736 38.1264 167.555 38.2662Z" fill="#E5CC7B"/>
<path d="M169.747 35.5202C169.476 35.4947 169.438 35.7999 169.567 35.927C169.76 35.8889 169.812 35.749 169.747 35.5202Z" fill="#E5CC7B"/>
<path d="M167.039 40.7453C167.052 40.8088 167.026 40.847 167.013 40.8978C167.117 40.9868 167.22 40.8724 167.233 40.7707C167.168 40.758 167.129 40.7071 167.039 40.7453Z" fill="#E5CC7B"/>
<path d="M168.097 37.3254C168.006 37.4653 168.032 37.6433 168.161 37.745C168.471 37.7195 168.587 37.5543 168.587 37.3C168.471 37.1856 168.355 37.3254 168.097 37.3254Z" fill="#E5CC7B"/>
<path d="M172.288 23.0104C172.894 22.985 172.211 22.4764 172.288 23.0104V23.0104Z" fill="#E5CC7B"/>
<path d="M168.651 37.0585C168.896 37.0585 169.012 36.9568 168.948 36.7279C168.741 36.6644 168.548 36.7915 168.651 37.0585Z" fill="#E5CC7B"/>
<path d="M176.582 30.2315C176.169 30.8036 176.015 31.5791 175.589 32.1512C175.189 33.8293 174.209 35.0752 173.655 36.6516C173.577 36.7025 173.487 36.7534 173.384 36.7915C173.036 37.656 172.417 38.3171 172.12 39.2197C171.05 40.6563 170.392 42.3218 169.425 43.8219C169.206 44.1652 168.935 44.4322 168.729 44.7881C168.097 45.8815 167.4 47.0892 166.627 48.1571C165.698 49.4412 165.195 50.2421 164.138 51.31C163.854 51.6024 163.557 51.933 163.196 52.2127C163.183 51.8948 163.506 51.8313 163.596 51.577C163.544 50.9795 164.241 50.7506 164.022 50.1658C164.421 49.7082 164.034 49.5937 164.421 49.1361C164.524 49.0216 164.628 48.6021 164.705 48.5258C165.182 48.2461 165.453 48.119 165.26 47.4833C165.685 47.4071 165.582 46.8095 165.672 46.6061C165.969 46.301 166.059 45.856 166.51 45.6653C166.536 45.4492 166.394 45.4365 166.356 45.2967C166.781 44.7881 167.207 44.2669 167.374 43.5677C168.135 43.1863 168.045 42.1819 168.664 41.7115C168.703 40.7707 169.605 40.4783 169.567 39.474C169.696 39.3977 169.825 39.3341 169.979 39.2706C170.031 39.207 169.992 39.0545 169.979 38.94C170.341 38.7366 170.302 38.2535 170.689 38.0755C171.192 36.6771 172.249 35.6982 172.675 34.2488C172.817 34.1853 172.881 34.0582 173.036 34.0073C173.062 33.8675 173.049 33.7149 173.074 33.575C173.5 33.0919 173.874 32.5707 174.003 31.8588C174.803 31.1595 175.022 30.0408 175.834 29.3415C175.834 29.189 175.95 29.1127 175.924 28.9474C176.518 28.4135 176.801 27.6634 177.15 26.9514C177.266 26.8116 177.446 26.7226 177.536 26.5573C177.588 26.5446 177.627 26.5573 177.64 26.5955C177.459 27.9431 176.685 28.833 176.582 30.2315ZM164.602 46.5171C164.55 45.856 165.092 45.2839 165.156 44.572C165.247 44.3813 165.427 44.2669 165.466 44.0508C165.685 44.9025 164.821 45.6908 164.602 46.5171ZM165.995 43.0083C165.943 43.3642 165.801 43.6439 165.582 43.8855C165.479 43.6185 165.724 43.2244 165.84 42.9828C165.917 42.9574 165.93 43.0083 165.995 43.0083ZM166.136 42.309C166.24 42.3853 166.201 42.7159 165.995 42.7159C165.84 42.5252 165.995 42.398 166.136 42.309ZM163.041 46.8223C162.706 46.6315 163.003 46.123 163.261 45.9705C163.351 45.3602 163.777 44.9788 163.854 44.3559C164.383 44.0508 164.254 43.2498 164.769 42.932C164.86 42.3853 165.311 42.0929 165.285 41.47C165.724 41.1776 165.608 40.4656 166.085 40.2114C165.917 39.7283 166.407 39.7155 166.394 39.3469C166.562 39.3596 166.394 39.7283 166.652 39.741C166.253 39.9444 166.265 40.4402 165.904 40.6563C165.943 41.3174 165.711 41.7751 165.221 42.0421C165.234 42.3472 165.105 42.5506 164.924 42.7032C164.937 42.8939 165.066 42.9193 165.079 43.11C164.602 43.4278 164.15 43.9872 164.331 44.661C163.931 44.928 163.583 45.2331 163.673 45.856C163.261 46.034 163.183 46.4663 163.041 46.8223ZM162.784 44.75C162.603 44.394 162.745 44.127 162.912 43.9109C162.938 43.7202 162.745 43.7838 162.771 43.5931C163.106 43.1481 163.622 42.8176 163.789 42.2455L164.073 42.2073C163.57 43.0083 163.338 43.9872 162.784 44.75ZM166.072 37.4653C166.124 37.3763 166.149 37.2619 166.278 37.2492C166.317 37.389 166.188 37.4272 166.072 37.4653ZM162.358 39.4231C162.616 37.7958 163.725 36.7915 164.047 35.2023C164.628 34.6302 164.718 33.7149 165.208 33.0665C165.221 32.8758 165.195 32.9012 165.156 32.6851C166.175 31.2994 166.717 29.5449 167.826 28.2228L167.968 28.1973C168.058 28.6296 167.619 28.6677 167.813 29.1763C167.284 29.8246 166.962 30.6129 166.73 31.4901C165.853 32.5834 165.698 34.2361 164.847 35.3549C164.821 36.2194 164.06 36.7534 164.086 37.5289C163.686 37.9738 163.338 38.4569 162.861 38.851C162.822 39.118 162.861 39.4486 162.513 39.474C162.487 39.4486 162.448 39.4104 162.358 39.4231ZM161.778 36.0033C161.584 35.6473 162.242 35.393 161.829 34.9862C162.216 34.1471 162.59 33.3081 162.758 32.3164C163.338 31.3757 163.918 30.4222 164.602 29.5577C164.808 29.7611 164.331 30.1298 164.228 30.3713C164.318 30.7019 164.15 30.8417 164.138 31.1087C163.725 31.2485 163.854 31.7952 163.48 31.9732C163.454 32.8631 162.771 33.2699 162.771 34.1853C162.358 34.7192 162.306 35.5329 161.778 36.0033ZM161.855 46.746C161.649 46.5553 161.571 46.1993 161.597 45.9705L161.791 45.945C161.881 46.1357 161.868 46.5171 161.855 46.746ZM161.223 51.2083C161.094 50.9668 160.939 50.7506 160.914 50.382C161.107 50.204 161.468 49.8734 161.752 50.115C161.52 50.4455 161.507 50.9286 161.223 51.2083ZM160.681 35.4312C160.772 35.1642 161.03 34.8718 160.952 34.6302C161.288 34.3251 161.094 33.9056 161.262 33.4352C161.326 33.2699 161.584 33.0919 161.674 32.9012C161.829 32.5453 161.932 32.2529 161.855 31.846C162.435 30.8163 162.061 30.7527 162.719 29.7738L162.758 30.0153C162.822 29.8119 163.106 29.7611 163.016 29.456C162.951 29.3288 162.861 29.5068 162.784 29.4941C162.796 29.2907 162.848 29.1254 162.951 28.9856C163.054 28.9601 163.003 29.1508 163.029 29.2144C163.235 29.2271 163.17 29.0364 163.403 29.0618C163.428 29.3542 163.17 29.456 163.261 29.7992C163.751 29.7356 163.622 29.2271 163.931 29.0364C163.957 28.8584 163.789 28.922 163.789 28.7694C164.022 28.7694 164.073 28.299 163.854 28.2355C164.009 28.0829 164.202 27.8922 164.009 27.5871C164.06 27.6125 164.125 27.6252 164.202 27.6125C164.034 27.3074 164.176 27.3456 164.163 26.9896C163.725 27.2057 163.648 27.6761 163.441 28.0575C163.467 28.2101 163.622 28.1973 163.789 28.1465C163.777 28.3499 163.609 28.4262 163.57 28.6042C163.312 28.3753 163.183 28.7313 162.964 28.7822C162.745 28.4643 163.235 28.4262 163.016 28.1083C163.17 28.1083 163.235 28.0448 163.338 28.0194C163.441 27.371 163.777 26.8879 164.073 26.3793C164.215 26.3285 164.189 26.4938 164.331 26.4429C164.486 26.3793 164.537 26.0615 164.396 25.909C164.215 25.9471 164.241 26.1378 164.15 26.2268C163.983 26.2268 164.022 25.9471 163.867 25.9344C163.351 26.2904 163.132 26.8752 163.029 27.5363C162.835 27.5744 162.809 27.7397 162.68 27.8287C162.01 29.9391 161.7 30.7146 161.043 32.8377C160.914 32.8631 160.939 33.0157 160.836 33.0538C160.81 33.6132 160.23 34.5031 160.14 35.0116C159.663 34.8845 160.204 33.3335 159.714 33.1174C159.315 31.846 160.191 31.6681 160.269 30.4857C160.733 29.7992 160.888 29.7484 161.081 28.8711C161.881 27.5998 162.345 26.0869 163.183 24.8283C163.158 24.6122 163.261 24.4978 163.196 24.2562C163.377 24.1037 163.506 23.9257 163.66 23.7604C163.583 23.5062 163.802 23.468 163.789 23.2646C164.396 22.5908 164.834 21.8026 165.053 20.8364C165.44 20.455 165.724 19.7049 166.072 19.1074C166.253 18.8022 166.562 18.7133 166.485 18.2302C166.627 18.2174 166.652 18.103 166.755 18.0522C167.117 17.1241 167.594 16.285 168.2 15.5477C168.2 15.0137 168.819 14.9374 168.703 14.3272C169.115 13.7424 169.515 13.1321 169.902 12.5219C169.863 12.3566 169.915 12.2549 169.941 12.1278C170.431 11.8608 170.611 11.365 170.779 10.8565C172.404 10.6022 171.836 12.1532 171.836 13.1576C171.695 13.1321 171.72 13.2466 171.604 13.2338C171.72 13.9331 171.024 14.2509 171.256 14.912C171.011 15.1281 170.663 15.4332 170.908 15.8782C170.715 16.0053 170.611 16.196 170.431 16.3232L170.482 16.6537C169.941 17.3911 169.657 18.3064 169.231 19.1328C169.244 19.2091 169.231 19.3108 169.309 19.3108C169.167 19.5523 168.948 19.743 168.767 19.9592C168.729 20.7474 168.122 21.1161 167.955 21.8026C167.968 22.1585 167.929 22.451 167.839 22.7306C167.542 22.7688 167.194 22.5145 166.975 22.8069C167.039 22.9595 167.22 22.9468 167.349 22.9976C167.117 24.3452 166.42 25.3369 165.891 26.4683C165.556 26.1759 165.93 25.5403 165.466 25.2352C165.092 25.3623 164.847 25.5911 164.731 25.909C164.769 26.0869 164.976 25.9979 164.873 26.2268C165.015 26.2014 165.156 26.2776 165.324 26.3539C165.492 26.8497 165.066 27.0659 165.35 27.5108C165.04 28.0321 164.937 28.7186 164.357 29.0491C164.073 29.6467 163.622 30.1298 163.325 30.7273C163.183 30.7781 163.145 30.7018 163.029 30.7146C163.08 31.3502 161.997 31.4646 162.448 32.1384C161.61 33.7403 161.481 34.02 161.004 35.8889C160.836 35.838 160.81 35.571 160.681 35.4312ZM159.585 39.2197C159.057 39.741 158.399 40.0079 157.638 40.0079C156.89 40.0079 156.245 39.741 155.704 39.207C155.162 38.6731 154.891 38.0374 154.891 37.3C154.891 36.5499 155.162 35.9016 155.691 35.3803C156.22 34.8591 156.877 34.5921 157.638 34.5921C158.399 34.5921 159.057 34.8591 159.585 35.3803C160.114 35.9016 160.385 36.5499 160.385 37.3C160.385 38.0628 160.127 38.6985 159.585 39.2197ZM156.065 30.5493C156.194 30.7908 155.987 31.0578 155.923 31.2867C155.846 31.1595 155.729 31.0832 155.639 30.9943C155.652 30.7654 155.742 30.4094 156.065 30.5493ZM157.574 31.5028L157.548 31.3121C157.715 31.2485 157.754 31.5028 157.574 31.5028ZM163.145 22.8451C163.132 22.9341 162.822 23.0866 162.848 22.8323C162.964 22.8069 163.08 22.7942 163.145 22.8451ZM157.844 29.7229C157.896 28.7567 158.812 28.2736 158.605 27.2566C159.353 26.5065 159.392 25.2224 160.153 24.4978C160.527 23.6968 161.03 22.9849 161.262 22.0823C161.907 21.5737 161.958 20.633 162.59 20.1244C163.531 18.281 164.873 16.7427 166.008 15.0391C166.175 15.0264 166.162 14.8739 166.317 14.8484C166.936 13.7805 167.89 12.9542 168.741 12.0642C168.909 12.0897 168.78 12.1532 168.819 12.2931C168.019 12.6745 168.058 13.6661 167.426 14.1746L167.478 14.5052C167.065 14.8357 166.639 15.3697 166.704 15.9163C166.459 15.9163 166.394 16.0435 166.253 16.1198C166.162 16.997 165.272 17.2767 165.285 18.2302C164.847 18.4463 164.55 18.7514 164.666 19.3743C164.318 19.5905 164.37 20.1117 163.918 20.2516C163.88 20.4041 163.931 20.4168 163.97 20.5821C163.274 21.383 162.796 22.3492 162.255 23.2646C162.371 23.735 162.539 24.2944 162.319 24.7012C162.139 24.7139 162.165 24.4596 161.907 24.5613C161.842 24.5868 161.842 24.6503 161.778 24.6758C162.448 25.6293 160.798 25.7818 160.901 26.7226C160.849 26.8243 160.681 26.837 160.591 26.9133C160.604 27.0277 160.694 27.0404 160.681 27.193C160.179 27.3964 160.179 27.9304 160.282 28.5025C159.934 28.7313 159.547 28.9093 159.637 29.456C159.495 29.5068 159.521 29.3415 159.379 29.3924C159.25 29.6848 159.508 29.8755 159.611 30.028C159.418 30.0789 159.379 30.2823 159.147 30.1933C159.121 30.3967 159.186 30.562 159.198 30.8544C159.031 31.0324 158.683 31.0578 158.631 31.3121C158.657 31.4519 158.773 31.4519 158.812 31.5791C158.618 31.7698 158.631 32.1257 158.205 32.1384C158.309 31.4392 157.883 30.918 157.612 30.3967C157.703 30.1552 157.625 29.8246 157.844 29.7229ZM165.891 29.0873C165.904 29.2907 165.737 29.5068 165.608 29.4687C165.595 29.2653 165.762 29.0364 165.891 29.0873ZM165.879 28.9474C165.891 28.4897 165.969 28.0829 166.369 27.9176C166.588 27.1421 167.129 26.5955 167.607 26.0107C167.684 25.9852 167.697 26.0361 167.723 26.0869C167.478 26.8116 166.794 27.193 166.678 28.0066C166.33 28.2736 166.24 28.7059 165.879 28.9474ZM172.443 8.52994L172.404 8.25025C172.649 8.22483 172.636 8.02141 172.739 7.91971C172.726 7.76715 172.584 7.77986 172.597 7.60188C172.778 7.56374 172.894 7.75443 173.036 7.58916C173.203 7.47474 173.113 7.39846 173.074 7.19505C173.59 7.04249 173.526 6.45768 174.016 6.29241C173.964 6.15257 174.08 6.11443 174.016 5.96187C174.351 5.73303 174.635 5.46605 174.661 5.00837C174.983 4.89395 175.164 4.67783 175.305 4.43628C175.28 4.23287 175.138 4.14387 175.189 3.96589C175.267 3.83876 175.434 4.01674 175.512 3.87689C175.602 3.80061 175.589 3.64806 175.602 3.52092C175.873 3.39379 176.066 3.21581 176.105 2.9234C176.595 2.70728 176.879 2.3513 177.137 1.95719C177.614 1.94448 177.678 1.52494 178.13 1.72836C178.014 2.07161 177.794 2.52929 177.962 2.94883C177.549 3.24123 177.291 3.83876 177.446 4.41085C176.866 5.09737 176.711 6.11443 176.247 6.88993C176.234 7.04249 176.35 7.01707 176.337 7.16963C175.937 7.44932 176.002 8.07227 175.899 8.5808C175.383 8.88591 175.293 9.50886 175.189 10.1191C174.97 10.2081 175.073 10.3988 174.97 10.5768C174.919 10.6531 174.751 10.6912 174.712 10.8056C174.609 11.0726 174.648 11.4413 174.545 11.6955C174.48 11.8608 174.274 11.9625 174.222 12.1278C174.119 12.4202 174.132 12.6236 173.99 12.9287C173.706 13.5644 173.397 14.289 173.319 15.09C173.139 15.1535 173.049 15.2807 172.984 15.4205C172.894 16.9334 171.733 17.6581 171.733 19.2472C171.011 19.9592 171.101 21.2813 170.212 21.8661C170.186 22.095 170.366 22.0314 170.366 22.2348C170.237 22.2984 170.237 22.184 170.121 22.2221C169.67 22.9468 168.948 23.4553 168.612 24.2562C168.419 24.3325 168.29 24.4724 168.071 24.5232C168.032 25.0953 167.658 25.4259 167.22 25.7055C167.207 25.464 167.4 25.3623 167.542 25.2224C167.439 24.5614 168.058 24.4342 167.916 23.735C168.148 23.6206 168.213 23.3917 168.484 23.3155C168.496 22.7434 168.832 22.3874 168.651 21.8026L168.896 21.7644C169.167 21.3068 169.567 20.9381 169.618 20.3151C169.734 20.3024 169.76 20.2261 169.85 20.188C169.67 19.3998 170.637 18.904 170.482 18.1284C171.308 17.7598 170.663 16.4757 171.617 16.1452C171.437 15.2298 172.094 14.9247 172.056 14.1111C172.198 13.8695 172.494 13.5263 172.546 13.0813C172.584 12.6999 172.443 12.2549 172.468 11.8862C172.481 11.6955 172.688 11.4159 172.662 11.2379C172.623 10.742 172.056 10.7802 172.043 10.3098C171.914 10.1445 171.72 10.0555 171.475 10.0555C171.759 9.53429 171.914 8.88591 172.443 8.52994ZM170.25 28.1846C170.431 28.1338 170.534 28.1846 170.65 28.2228C170.547 28.6169 170.147 28.8076 169.954 29.1381C169.992 29.2017 170.044 29.2525 170.083 29.3161C169.773 29.9136 169.36 30.4349 169.064 31.0451C168.935 31.096 168.948 30.9688 168.857 30.9815C169.038 30.6891 169.064 30.1552 168.909 29.9645C169.064 30.0153 169.154 29.9391 169.283 29.8628C169.489 29.2271 170.031 28.833 170.25 28.1846ZM167.4 34.7828C167.413 34.643 167.413 34.5158 167.607 34.5158L167.632 34.7065C167.581 34.7574 167.503 34.7828 167.4 34.7828ZM171.527 29.5958C172.352 29.1127 172.894 28.4262 173.448 27.7397C174.493 27.0659 175.202 26.1505 176.672 25.7945C176.672 25.8581 176.685 25.9344 176.737 25.9344C176.505 26.5573 175.886 26.9006 175.808 27.6507C175.189 28.5279 174.467 29.3161 174.055 30.3459C173.964 30.3967 173.848 30.4476 173.784 30.5239C173.771 30.7273 173.822 30.7146 173.797 30.9053C172.946 31.4901 172.829 32.6343 172.198 33.3843C172.03 33.4225 172.004 33.2699 171.849 33.2954C171.643 33.3716 171.72 33.6513 171.398 33.5496C171.011 34.1344 170.392 34.5413 169.902 35.0498C169.915 35.1896 169.979 35.2786 170.083 35.3168C170.469 35.1388 170.663 34.8209 171.114 34.6938C170.353 36.6262 169.141 38.2281 168.29 40.0842C168.122 40.2368 168.019 40.4402 167.929 40.6563C167.813 40.7199 167.774 40.847 167.619 40.8852C167.594 41.3301 167.426 41.6734 167.078 41.8768C167.065 41.7878 166.936 41.8387 166.949 41.6988C167 41.4827 167.374 41.5081 167.374 41.2538C167.336 41.114 167.258 41.0377 167.142 40.9996C166.743 41.3683 166.627 41.9276 166.201 42.2836C166.175 41.9912 166.523 41.8259 166.278 41.5081C166.691 41.2538 166.794 40.7707 166.988 40.3512C167.194 40.2876 167.117 40.5928 167.31 40.5419C167.4 40.3512 167.619 40.2622 167.736 40.0969C167.736 39.9444 167.645 39.9062 167.555 39.8808C167.297 39.8681 167.387 40.1224 167.207 40.1732C166.988 39.9317 167.374 39.8427 167.258 39.5376C167.104 39.4104 167.026 39.7028 166.781 39.652C166.82 39.3087 167 39.0799 166.988 38.7112C166.988 38.5332 166.755 38.6476 166.678 38.5586C166.652 38.3044 166.833 38.4696 166.962 38.4696C167.155 38.2408 167.284 37.9484 167.22 37.5162C167.581 37.1729 167.594 36.5881 167.697 36.0541C168.316 35.2278 168.522 34.0836 168.986 33.1301C169.206 32.9521 169.309 32.6978 169.309 32.3673C169.825 31.2867 171.037 30.7019 171.527 29.5958ZM153.924 39.4231C153.602 38.9527 153.189 38.5968 152.944 38.0247C152.377 37.6306 152.622 37.2873 152.015 36.9441C151.396 35.4439 150.146 34.7701 149.617 33.1428C149.565 33.0411 149.449 33.0157 149.346 32.9902C149.243 31.7825 148.83 30.9434 148.134 30.2823C148.585 29.5704 147.437 29.3034 147.708 28.655C147.463 28.4516 147.296 28.2228 147.399 27.8414C147.334 27.6507 147.192 27.5617 147.012 27.5108C147.025 26.9133 146.599 26.5192 146.522 26.0869C147.257 26.4556 147.708 27.1803 148.392 27.5998L148.43 27.8414C149.978 29.0873 150.945 31.1087 152.157 32.7995C152.273 33.3462 152.544 33.664 152.854 33.9564L152.905 34.287C153.421 34.732 153.124 35.1261 153.537 35.6982C153.563 36.6135 154.401 37.9484 153.937 38.8129C154.053 39.0163 154.001 39.2324 153.924 39.4231ZM151.732 38.4061C151.345 37.9103 150.932 37.3636 150.507 36.7025C150.378 36.5118 150.391 36.3211 150.416 36.0414C151.267 36.8042 151.758 38.0501 152.57 38.8638C152.583 39.0163 152.686 39.0545 152.673 39.2324C152.918 39.4994 153.189 39.741 153.253 40.2495C152.634 39.8427 152.26 39.0926 151.732 38.4061ZM153.047 48.8945C152.751 48.8564 152.583 48.653 152.48 48.3478C152.828 48.3224 152.983 48.5513 153.047 48.8945ZM153.563 50.5345C153.627 50.8651 153.692 50.8651 153.653 51.1829C153.021 51.043 152.673 50.5345 152.248 50.1404C152.751 49.8734 153.021 50.5981 153.563 50.5345ZM149.539 37.834C150.816 38.6985 151.435 40.4148 152.054 42.1438C151.113 40.847 150.274 39.3977 149.539 37.834ZM148.972 42.8811C149.436 42.8303 149.552 42.5252 149.707 42.2455C149.539 42.0166 149.398 42.398 149.217 42.2709C149.178 42.1056 149.423 42.1438 149.372 41.9658C149.114 41.6861 148.856 41.2411 148.405 41.381C148.534 40.847 148.031 40.1097 147.592 39.8172C147.541 39.6393 147.695 39.6138 147.631 39.4231C147.553 39.2706 147.244 39.4104 147.089 39.3596C146.96 39.1943 147.167 38.851 146.831 38.9146C146.87 38.5714 146.689 38.1772 146.38 38.1137C145.658 36.4355 144.755 34.9862 144.072 33.2445C144.652 33.4733 144.858 34.1853 145.374 34.5031C145.838 35.7617 146.702 36.4991 147.399 37.4399C147.579 38.1518 147.966 38.6095 148.405 38.9782C148.843 40.1605 149.733 40.758 150.029 42.1183C150.21 42.3599 150.416 42.7413 150.21 43.0591C150.61 43.3515 150.997 43.9491 151.1 44.4703C150.984 44.5974 150.894 44.3559 150.752 44.3813C150.661 44.4957 150.623 44.6737 150.713 44.8136C150.919 44.9026 150.997 44.7373 151.126 44.661C151.293 45.1441 151.667 45.6018 151.835 46.2374C150.674 45.3857 149.617 44.4067 148.972 42.8811ZM148.817 42.4743C148.585 42.4616 148.469 42.2963 148.456 41.9912C148.663 41.9404 148.727 42.0929 148.908 42.0675C148.946 42.2582 148.843 42.3345 148.817 42.4743ZM146.277 42.1056C146.432 42.0802 146.599 42.0548 146.586 42.2582C146.432 42.2709 146.277 42.2963 146.277 42.1056ZM145.206 40.7199C144.936 40.7199 145.245 40.3004 145.039 40.2114C145.155 40.0588 145.4 40.5928 145.206 40.7199ZM144.549 39.9444C144.562 39.8681 144.6 39.8172 144.613 39.741C144.781 39.741 144.755 39.9698 144.549 39.9444ZM146.818 35.3549C146.664 35.3422 146.56 35.2786 146.535 35.1006C146.689 35.1133 146.793 35.1769 146.818 35.3549ZM147.979 37.0203C147.682 36.5499 147.283 36.2194 147.051 35.66C147.541 35.838 147.889 36.4991 147.979 37.0203ZM143.285 30.7527C143.22 30.2315 142.846 30.1298 142.614 29.8373C142.692 29.6212 142.46 29.3924 142.627 29.2144C142.356 28.9983 142.111 28.5025 142.382 28.1973C142.086 27.6125 141.815 26.7607 141.931 26.0997C141.673 25.375 141.454 24.7139 141.338 23.9765C141.26 23.5316 140.796 23.0993 141.093 22.6162C141.093 22.3365 140.951 22.2348 140.912 22.0187C141.093 21.7009 140.835 21.3068 140.822 21.0271C141.067 20.1753 142.111 20.455 142.808 20.6075C142.859 20.7601 142.988 20.8109 143.091 20.8999C143.001 21.5102 143.427 21.9297 143.272 22.5018C142.988 22.6544 142.705 22.9468 142.447 23.2392C143.014 25.2606 143.852 26.9387 144.587 28.6042C144.742 28.8203 145.039 28.833 145.271 28.9474C145.232 29.1 145.206 29.2653 145.09 29.3542C145.684 30.2696 146.122 31.3121 146.419 32.1893C146.277 32.6851 146.56 33.3081 146.857 33.575C146.909 34.2488 147.321 34.4268 147.36 34.9989C147.115 34.8718 146.857 34.7319 146.922 34.3378C146.805 34.02 146.354 34.1471 146.135 33.9692C146.019 33.7403 146.07 33.3081 145.748 33.3462C145.774 33.2445 145.877 33.1809 145.851 33.0411C145.748 32.9012 145.503 32.9394 145.387 32.8122C145.516 32.3291 144.987 32.4181 144.768 32.2274C144.703 32.0749 144.807 32.0367 144.768 31.8969C144.665 31.7443 144.471 31.7189 144.252 31.7316C144.072 31.1977 143.594 31.096 143.285 30.7527ZM143.117 35.0498C143.091 35.0116 143.053 34.9862 143.053 34.9099C143.091 34.8718 143.156 34.8464 143.233 34.8337C143.272 34.9608 143.246 35.0498 143.117 35.0498ZM142.627 33.6768C142.524 33.6513 142.408 33.5623 142.498 33.4606C142.601 33.486 142.692 33.6005 142.627 33.6768ZM142.163 32.7868C142.06 32.647 141.97 32.5071 141.776 32.5071C141.634 31.7952 141.041 31.6808 140.964 30.8926C140.358 30.6637 140.37 29.6085 139.855 29.2653L139.519 29.3161C139.545 28.9347 139.416 28.4008 139.081 28.3245C139.158 27.9176 138.836 27.6252 138.488 27.5871C138.397 27.4345 138.668 27.3328 138.488 27.2566C138.591 27.0913 138.746 27.3328 138.887 27.2947C139.029 27.7778 139.339 28.0448 139.79 28.1338C140.319 28.9983 141.028 29.6467 141.712 30.3205C141.686 31.3375 142.485 32.4309 142.498 33.4225C142.421 33.3589 142.356 33.2699 142.227 33.2699L142.163 32.7868ZM144.665 24.752C145.026 24.9046 145.052 25.5148 145.219 25.9217C145.052 25.5403 144.562 25.1207 144.665 24.752ZM145.245 26.0615C145.322 26.1251 145.374 26.2268 145.387 26.3793C145.271 26.3539 145.155 26.1759 145.245 26.0615ZM146.07 24.0655C145.89 23.8748 145.58 23.8494 145.426 23.6333C145.542 23.2265 145.271 23.023 144.987 22.9722C145 22.7942 145.219 22.5527 145.052 22.3874C145.219 22.2857 145.503 22.5018 145.709 22.5399C145.813 23.0103 146.303 23.1629 146.573 23.4807C146.922 23.8748 147.063 24.5105 147.67 24.6249C148.121 25.2224 148.559 25.8454 149.088 26.3539C149.14 26.4175 149.217 26.4429 149.346 26.4175C149.385 26.5828 149.385 26.7226 149.359 26.8497C148.675 26.7735 148.598 25.9217 147.94 25.7945C147.747 25.2224 147.27 25.0317 146.818 24.8029C146.664 24.4851 146.393 24.3198 146.019 24.2944C146.07 24.2308 145.993 24.091 146.07 24.0655ZM140.654 20.2643C140.577 19.8193 140.757 19.0692 140.448 18.8531C140.641 18.6243 140.474 18.3954 140.474 18.0395C140.461 17.836 140.19 17.9632 140.19 17.7471C140.422 17.7216 140.499 17.1622 140.164 17.2258C140.37 16.9843 140.461 16.4884 140.203 16.1579C140.151 15.9799 140.332 15.9672 140.358 15.8528C139.971 15.1154 140.615 14.6196 140.254 13.8059C140.422 13.6661 140.487 13.4373 140.564 13.2338C140.551 13.094 140.538 12.9796 140.383 13.0177C140.744 12.1786 141.557 12.9287 142.227 12.9542C142.408 13.45 142.846 13.5898 143.027 14.0856C143.917 14.645 144.213 15.9926 145.129 16.5266C145.142 16.6537 145.129 16.7554 145.077 16.819C145.361 17.0478 145.825 17.4419 145.671 17.8869C146.599 18.5607 146.677 19.9464 147.566 20.5948C147.541 20.7092 147.45 20.7982 147.412 20.8999C147.463 21.0652 147.605 21.1288 147.708 21.2432C148.224 22.5908 149.14 23.8748 149.668 25.3877C149.127 25.3877 149.294 24.4596 148.585 24.6758C148.598 24.1164 148.276 23.7096 147.721 23.735C147.566 23.5443 147.76 23.4934 147.695 23.2519C147.45 22.8578 147.115 22.5908 146.664 22.4891C146.535 22.1077 146.303 21.8789 145.851 21.9297C145.709 21.828 145.89 21.7771 145.864 21.6373C145.645 21.4466 145.464 21.1923 145.116 21.1669C145.013 20.7601 144.652 20.6965 144.304 20.6075C144.084 20.1499 143.646 19.9846 143.169 19.8574C142.988 19.8574 142.963 19.9846 142.911 20.0863C142.292 19.7557 141.325 19.8702 140.654 20.2643ZM150.055 27.7397C149.901 27.6761 149.668 27.7142 149.668 27.46C149.888 27.4473 150.055 27.4854 150.055 27.7397ZM150.3 28.0956C150.365 28.299 150.068 28.299 150.107 28.0702C150.197 28.0575 150.223 28.1211 150.3 28.0956ZM138.178 38.9655C138.139 38.8256 138.191 38.7493 138.346 38.7493L138.372 38.94L138.178 38.9655ZM140.822 38.012C140.77 37.9357 140.667 37.9103 140.68 37.745L141.067 37.6941C141.131 37.9103 141.002 37.9865 140.822 38.012ZM178.594 1.85549C178.375 1.84278 178.233 1.74107 178.194 1.47409C178.388 1.51223 178.62 1.71564 178.594 1.85549ZM178.194 21.1288C178.026 21.0779 177.82 21.0652 177.678 20.9635C177.781 20.8872 177.91 20.8237 177.82 20.6075C177.343 20.4295 176.672 20.5185 176.26 20.2516C175.795 20.5567 175.073 20.455 174.493 20.544C174.467 21.1033 173.797 21.1796 173.629 21.6246C173.59 21.561 173.513 21.5483 173.423 21.561C173.358 21.6246 173.436 21.7899 173.307 21.8153C173.126 21.8407 173.139 21.6373 172.907 21.7263C172.804 22.0441 172.455 22.1713 172.443 22.5654C172.907 22.7179 173.139 22.0314 173.719 22.006C173.784 21.917 173.797 21.7771 173.874 21.7009C174.545 21.4339 175.009 21.0271 175.757 20.9126C178.078 20.5313 178.259 23.0866 177.846 24.9427C177.64 24.2944 176.853 24.3198 176.569 24.8792C176.402 24.8283 176.221 24.8029 176.028 24.8156C175.744 25.1207 175.189 25.2352 175.073 25.6674C174.441 25.8708 174.222 26.3921 173.758 26.7099C173.603 26.748 173.487 26.7353 173.371 26.7226C173.062 27.3328 172.455 27.7269 172.081 28.299C172.017 28.2482 171.901 28.2736 171.785 28.2863C171.733 28.6932 171.334 28.8457 171.127 29.1508C170.998 29.1 170.831 29.1 170.753 28.9601C170.998 28.6932 170.908 28.1719 171.14 27.8922C171.153 27.7142 171.011 27.727 170.998 27.5744C171.192 27.2438 171.437 26.8497 171.14 26.4938C170.495 26.5065 170.611 27.0786 170.237 27.2947C170.237 27.5744 170.534 27.46 170.547 27.7269C170.341 27.7142 170.366 27.5617 170.147 27.6888C170.108 27.9685 170.108 28.2736 169.747 28.3245C169.644 28.3245 169.631 28.2101 169.58 28.1592C169.618 27.7142 170.031 27.5363 169.838 26.926C170.457 26.0361 170.689 24.8665 171.321 23.9765C171.785 23.8494 171.785 23.3663 172.185 23.1883C172.172 22.9595 171.991 22.9595 171.978 22.7434C172.236 21.9551 172.817 21.4085 172.92 20.4931C173.062 20.455 173.178 20.4041 173.294 20.3406C173.255 20.1753 173.203 20.1753 173.242 20.01C173.81 19.565 174.222 18.8022 174.067 17.9759C173.513 17.9505 173.397 18.3191 172.894 18.281C172.907 18.1157 172.997 18.014 172.92 17.7979C173.165 17.5309 173.319 17.2004 173.358 16.7808C173.964 15.5095 174.338 14.0475 175.035 12.8524C175.073 12.0388 175.396 11.4413 175.77 10.8819C175.77 10.3225 176.144 10.0301 176.311 9.61057C176.195 9.15289 176.376 8.93677 176.621 8.74607C176.634 8.63165 176.66 8.51723 176.608 8.36467C177.15 7.86885 177.021 6.87722 177.485 6.31784C177.459 5.65675 177.833 5.28807 178.104 4.8431C178.065 4.6524 178.13 4.52527 178.13 4.36C178.297 4.27101 178.4 4.13116 178.517 4.01674C178.568 2.96154 179.213 2.3513 179.136 1.1944C179.097 1.1944 179.071 1.15626 179.071 1.10541C178.246 0.825715 177.562 0.876568 177.021 1.3851C176.853 1.55037 176.801 1.80463 176.621 1.96991C176.311 2.2496 175.924 2.37673 175.641 2.631C175.628 2.71999 175.641 2.83441 175.576 2.88526C175.422 2.96154 175.28 3.05053 175.125 3.13953C174.996 3.67348 174.622 4.02945 174.287 4.41085C174.312 5.19907 173.539 5.40248 173.126 5.87287L173.165 6.11443C172.443 6.83908 171.707 7.76715 171.127 8.55537C170.908 8.86049 170.805 9.11475 170.727 9.47072C170.341 9.59786 170.328 10.1191 170.173 10.3225C169.915 10.6531 169.193 10.8438 168.986 11.2124C168.561 11.276 168.342 11.4921 168.019 11.632C167.993 11.7718 167.942 11.8862 167.929 12.0261C167.748 12.1405 167.594 12.2804 167.503 12.4711C166.833 12.7126 166.91 13.4881 166.162 13.6661C165.672 14.378 165.221 15.1281 164.396 15.5985C164.408 15.7511 164.318 15.8273 164.357 15.9926C163.48 16.7046 163.222 17.8742 162.397 18.6243C162.139 19.565 161.391 20.1499 160.875 20.8999C160.617 21.9933 159.74 22.6417 159.315 23.6206L159.366 23.9511C159.173 24.2817 158.76 24.4469 158.773 24.9427C158.476 25.1462 158.36 25.4767 158.322 25.8708C157.793 26.3921 157.509 27.0913 157.393 27.9176C157.019 28.1211 157.032 28.6042 156.748 28.8711C156.735 29.0491 156.929 29.1381 156.748 29.2017C156.258 29.0618 156.22 28.3245 155.562 28.4135C155.407 28.4516 155.42 28.6169 155.252 28.6423C155.11 28.6296 155.098 28.4389 154.891 28.5025C154.401 28.9728 154.698 29.6594 154.762 30.295C154.814 30.8671 154.711 31.5536 154.736 32.1766C154.762 32.6088 154.994 33.0157 154.762 33.3716C153.821 31.8588 152.918 30.1298 152.003 28.7567C151.951 27.7905 151.087 26.9514 150.971 25.9725C150.881 25.8581 150.558 26.0488 150.532 25.9852C150.571 25.8327 150.803 25.82 150.777 25.6166C150.545 25.5021 150.661 25.286 150.584 24.9682C150.326 24.7775 150.171 24.4596 149.991 24.1927C150.004 24.0782 150.158 24.0655 150.094 23.8876C149.746 23.5824 149.772 23.0103 149.269 22.8451C149.307 22.3111 149.127 21.6373 148.637 21.4975C148.663 21.3576 148.74 21.2305 148.663 21.0144C148.598 20.9254 148.469 20.9254 148.392 20.8618C148.327 20.7092 148.43 20.6711 148.392 20.5313C147.682 19.6795 147.373 18.3319 146.56 17.6199C146.548 17.5055 146.625 17.4674 146.573 17.3275C146.122 16.8953 146.006 16.3613 145.709 15.7638C145.503 15.6875 145.322 15.5985 145.142 15.5095C144.742 14.2636 143.904 13.5898 143.349 12.5473C143.066 12.56 142.975 12.2931 142.769 12.1914C142.666 12.0769 142.563 12.3185 142.395 12.2931C142.331 12.1659 142.447 12.1659 142.408 12.0515C142.176 11.9498 141.892 11.9117 141.608 11.8735C141.363 12.1278 140.964 12.3058 140.499 12.2676C140.332 12.649 139.829 12.7762 139.816 13.272C139.919 13.4245 140.048 13.2211 140.164 13.3228C140.074 13.4754 140.113 13.7424 139.996 13.8695C139.958 13.7169 139.893 13.5898 139.713 13.6152C139.506 13.7805 139.674 13.9712 139.829 14.0856C139.713 14.3526 139.893 14.8357 139.506 14.8993C139.61 15.2934 139.197 15.4078 139.365 15.9799C139.429 16.1198 139.622 16.0816 139.687 16.2215C139.545 16.3359 139.326 16.4122 139.365 16.6537C139.494 16.7173 139.558 16.8444 139.61 17.0097C139.597 17.1368 139.403 17.1368 139.352 17.2385C139.274 17.747 139.532 18.4336 139.287 18.8277C139.713 19.1455 139.932 20.1626 139.635 20.6075C139.984 20.9889 139.481 21.5229 139.945 21.7644C139.635 22.006 139.713 22.5145 139.571 22.8705C140.241 23.5443 139.945 25.4767 140.487 26.5319C140.37 26.9006 140.68 27.46 140.68 27.8541C140.345 27.6888 140.125 27.3837 139.893 27.104C139.713 27.0913 139.584 27.3456 139.416 27.2184C139.442 27.0404 139.61 26.9769 139.597 26.7607C138.965 25.6166 137.83 25.1334 137.237 23.9257C136.837 23.824 136.669 23.4426 136.527 23.0103C136.282 22.9595 136.128 22.7815 135.986 22.6035C135.676 22.7179 135.599 22.6544 135.354 22.5908C134.658 23.557 136.205 24.2308 136.205 25.1589C136.308 25.2224 136.45 25.2606 136.489 25.4131C136.94 26.4302 137.559 27.2311 138.01 28.2228C138.101 28.3118 138.204 28.3753 138.294 28.477C138.372 29.1254 138.887 29.2017 138.939 29.8755C139.455 30.2442 139.571 31.1341 140.1 31.4901C140.293 32.2783 140.835 32.6216 141.015 33.4225C141.428 33.6513 141.583 34.198 141.866 34.6048C141.918 35.4439 142.692 35.6473 142.705 36.3592C142.434 36.1685 142.124 36.0414 141.97 35.6982C141.312 35.8253 141.157 35.3168 140.719 35.1515C140.719 34.2234 139.532 34.5794 138.913 34.8209C138.991 35.1133 139.197 35.2278 139.429 35.3295C139.597 35.3295 139.416 35.0752 139.532 35.0244C139.842 35.1896 140.164 35.2913 140.512 35.4185C141.273 35.6854 142.021 36.4991 142.666 36.8042C142.756 36.8551 142.885 36.8042 142.963 36.8551C143.001 36.8805 143.014 37.0458 143.104 37.122C143.401 37.389 143.788 37.3255 143.633 37.7704C143.968 38.2535 144.484 38.7875 144.6 39.3723C143.801 39.3087 143.672 38.5841 143.169 38.2281C142.95 38.2917 143.285 38.5205 143.079 38.5714C143.027 38.2535 142.705 38.2789 142.73 37.8467C142.653 37.7958 142.511 37.834 142.382 37.8467C142.369 37.7577 142.498 37.7704 142.447 37.6433C141.97 37.5162 141.866 36.9059 141.273 36.9441C141.26 36.7025 141.08 36.6771 141.015 36.4991C140.744 36.6262 140.474 36.4864 140.422 36.7788C140.241 36.7534 140.216 36.5245 140.125 36.3847C140.203 36.3211 140.345 36.2957 140.28 36.1177C139.945 36.0541 139.751 35.6219 139.726 35.3295C139.39 35.4693 139.261 35.5456 138.823 35.5075C138.733 35.6219 138.939 35.749 138.771 35.8507C138.591 35.6854 138.513 35.393 138.475 35.1769C138.423 35.1769 138.346 35.2023 138.32 35.1515C138.049 35.2659 138.101 35.5202 137.946 35.6346C138.178 36.016 138.733 35.9779 138.849 36.5118C139.287 36.6771 139.648 36.9441 139.984 37.2619C139.906 37.567 140.177 37.7577 140.37 37.8848C140.358 37.9865 140.267 38.0374 140.319 38.1772C140.499 38.3171 140.577 38.5841 140.615 38.9019C140.732 39.029 140.86 39.1434 140.964 39.2833L141.002 39.563C141.428 39.8045 141.66 40.7962 142.215 40.5038C141.957 40.1351 141.467 39.9571 141.557 39.296C141.415 39.2197 141.209 39.2324 141.131 39.0672C141.144 38.7748 141.557 39.0545 141.57 38.7621C141.222 38.7112 140.977 38.5332 140.809 38.2408C141.673 37.9865 142.215 38.6349 142.679 39.0799C142.834 39.0799 143.079 38.9655 143.117 39.118C143.156 39.3087 143.066 39.3977 143.182 39.5376C143.362 39.5503 143.53 39.6011 143.723 39.6011C143.891 39.8554 143.917 39.9952 143.981 40.3385C144.033 40.4656 144.239 40.4148 144.304 40.5292C144.471 41.0377 144.91 41.1903 145.271 41.4573C145.194 41.559 145.284 41.5717 145.31 41.6861C145.658 41.8514 145.851 42.2073 146.148 42.4362C146.496 43.4024 147.618 43.8219 148.056 44.8644C148.843 45.5382 149.346 46.568 150.068 47.3181C150.094 47.5088 150.339 47.7122 150.249 47.8647C149.385 47.4833 148.469 47.1782 147.85 46.4663C147.682 45.856 147.141 45.7162 146.728 45.4238C146.444 44.8898 146.045 44.5339 145.619 44.1906C145.271 42.9574 144.239 42.6015 143.736 41.5717C143.517 41.4954 143.311 41.4191 143.195 41.2157C143.233 41.1267 143.44 41.1521 143.349 40.9487C143.349 40.8089 143.091 41.025 143.091 40.8852C143.182 40.58 142.963 40.2495 142.576 40.3766C142.614 40.6309 142.279 40.758 142.279 40.9996C142.279 41.5463 142.73 41.47 142.975 41.7624C143.066 41.8768 143.053 42.0421 143.13 42.1692C143.504 42.7413 144.201 43.11 144.265 43.5931C144.446 43.6439 144.703 43.8728 144.587 44.127C143.478 43.5422 142.769 42.4362 141.673 41.8387C140.938 41.0123 140.229 40.1478 139.3 39.5757C138.939 38.6222 137.985 38.4569 137.598 37.5543C137.508 37.4907 137.366 37.478 137.288 37.4017C136.85 36.7915 136.36 36.2321 135.754 35.838C135.689 35.4693 135.522 35.2405 135.225 35.1896C135.07 35.2913 135.225 35.6092 135.057 35.6982C134.799 35.4693 135.006 35.1896 135.044 34.9354C135.367 34.8845 135.599 34.9481 135.934 34.9989C136.398 35.5202 137.172 35.5075 137.753 35.749C137.998 35.393 137.688 34.9989 137.546 34.6684C137.121 34.732 137.03 34.376 136.798 34.198C136.282 34.2361 135.715 33.7276 135.096 33.9056C134.877 33.7149 134.567 33.6386 134.309 33.4861C133.91 33.664 133.458 33.7022 133.02 34.0073C132.942 34.1217 133.033 34.3506 133.046 34.5285C133.394 34.6684 133.549 35.0498 134 35.0625C134.245 35.1896 133.884 35.3422 134.064 35.5329C134.103 35.6727 134.322 35.5583 134.374 35.6854C134.284 36.0414 134.696 36.1304 134.941 36.2321C135.006 36.4228 134.903 36.4864 134.954 36.6644C135.289 36.7534 135.418 37.1093 135.676 37.2873C135.831 37.3127 135.754 37.1475 135.844 37.122C135.883 36.9441 135.56 36.9441 135.702 36.8042C136.063 37.0585 136.373 37.389 136.463 37.9993C136.669 38.1137 136.966 38.1264 137.172 38.2408C137.134 38.3934 136.979 38.4696 137.043 38.6858C137.404 38.8129 137.546 39.3723 138.075 39.118C138.139 39.3723 138.256 39.5503 138.397 39.7028C138.333 40.1478 138.565 40.3766 139.055 40.2368C139.455 40.4021 139.61 40.8852 139.996 41.0631L140.035 41.3428C140.164 41.4064 140.37 41.381 140.409 41.5844C140.396 41.7751 140.19 41.8895 140.332 42.0802C140.538 42.1438 140.68 41.9785 140.873 42.1056C140.719 42.5887 141.338 42.8303 141.621 42.576C141.931 42.6396 142.034 42.9828 141.918 43.3007C142.047 43.6185 142.485 43.5168 142.55 43.9363C142.988 44.1016 143.517 44.1652 143.646 44.75L144.033 44.6991C144.162 44.9534 144.342 45.1441 144.523 45.3475C144.794 45.3602 144.781 45.1441 144.987 45.2331C145.155 45.4238 144.858 45.6399 145.077 45.8433C145.31 45.8688 145.258 45.6653 145.49 45.6908C145.258 46.2374 145.89 46.5553 146.315 46.39C147.089 47.3943 148.16 48.0046 149.101 48.7928C149.165 48.8437 149.178 48.9454 149.191 49.0725C150.352 50.1404 151.783 50.8651 153.047 51.8058L153.099 52.1364C153.318 52.2889 153.46 52.5559 153.602 52.7975H154.827C155.265 52.7975 155.626 52.4415 155.626 52.0093V45.6908C155.626 45.2585 155.265 44.9025 154.827 44.9025H153.279C152.841 44.9025 152.48 44.5466 152.48 44.1143V41.8895C152.48 41.4573 152.841 41.1013 153.279 41.1013H159.34C159.779 41.1013 160.14 41.4573 160.14 41.8895V52.0093C160.14 52.4415 160.501 52.7975 160.939 52.7975H162.268C162.706 52.7975 163.067 53.1535 163.067 53.5857V53.8527C163.299 53.6747 163.377 53.3823 163.609 53.1662C163.725 53.1534 163.738 53.0645 163.893 53.0772C164.873 52.0093 165.659 50.7888 166.627 49.7209C166.846 49.7209 166.897 49.581 167.039 49.5175C167.181 49.0598 167.426 48.6784 167.581 48.2461C168.496 48.0809 168.264 47.0638 168.922 46.7205C169.077 45.9832 169.567 45.4874 169.979 44.9407C169.967 44.483 170.328 44.0126 170.792 43.7711C170.715 43.2117 171.475 43.0083 171.308 42.2582C171.591 42.1311 171.669 41.8514 171.965 41.7369C171.953 41.2793 172.185 40.9996 172.455 40.758C172.262 40.3512 172.597 40.2241 172.842 40.0334C172.907 39.4994 173.307 39.2324 173.281 38.6222C174.351 38.2662 174.055 37.0585 174.931 36.5627C175.035 35.838 175.37 35.2786 175.692 34.7319C175.667 34.6175 175.589 34.5667 175.602 34.4141C175.899 33.9564 176.169 33.4861 176.427 33.0029C176.402 32.8504 176.26 32.8377 176.273 32.6343C176.44 32.5707 176.492 32.6851 176.66 32.6343C176.763 32.2529 176.827 31.8588 177.098 31.6172C177.085 31.3884 176.763 31.5791 176.801 31.2739C176.956 31.2358 177.021 31.3248 177.188 31.2612C177.291 30.8671 177.407 30.4984 177.562 30.1552C177.536 29.9899 177.395 29.9645 177.369 29.7992C177.433 29.6339 177.549 29.5068 177.756 29.456L177.704 29.0746C178.181 28.299 178.375 27.3328 178.581 26.3539C178.388 26.0742 178.71 25.8581 178.517 25.5911C178.813 25.2987 179.11 24.8792 178.774 24.3579C179.045 24.2435 178.839 23.7858 178.955 23.5697C178.787 22.6544 178.375 22.006 178.194 21.1288Z" fill="#E5CC7B"/>
<path d="M164.473 25.2987C164.886 25.2097 165.092 24.3833 164.615 24.2689C164.383 24.5613 164.499 24.8792 164.473 25.2987Z" fill="#E5CC7B"/>
<path d="M150.12 43.4405C150.236 42.932 149.527 43.4024 150.12 43.4405V43.4405Z" fill="#E5CC7B"/>
<path d="M164.434 25.3495C164.318 25.4004 164.37 25.5784 164.396 25.7436C164.653 25.7691 164.666 25.3368 164.434 25.3495Z" fill="#E5CC7B"/>
<path d="M166.291 23.3663C166.227 23.3409 166.149 23.3282 166.046 23.3536L166.085 23.5951C166.265 23.5951 166.253 23.4553 166.291 23.3663Z" fill="#E5CC7B"/>
<path d="M164.55 26.5319L164.408 26.5573C164.37 26.6209 164.37 26.6971 164.396 26.7988C164.576 26.8116 164.602 26.6971 164.55 26.5319Z" fill="#E5CC7B"/>
<path d="M150.146 43.6313C150.068 43.8474 150.171 44.2542 150.429 44.2161C150.558 44.0889 150.597 43.8855 150.597 43.6694C150.507 43.5804 150.339 43.5931 150.146 43.6313Z" fill="#E5CC7B"/>
<path d="M163.261 30.4095C163.428 30.3459 163.299 30.0789 163.17 30.0916C163.08 30.1552 163.029 30.473 163.261 30.4095Z" fill="#E5CC7B"/>
<path d="M4 9.93652H0V31.9365H4V9.93652Z" fill="#E5CC7B"/>
<path d="M19.609 31.9365L13.4427 21.419L11.2404 17.3985V31.9365H8V9.93652H10.6427L16.6517 20.6149L18.7596 24.6675V9.93652H22V31.9365H19.609Z" fill="#E5CC7B"/>
<path d="M36.9528 16.6764C36.9528 14.3874 35.8241 13.0203 33.341 13.0203H29.9226V28.5666H33.341C35.8241 28.5666 36.9528 27.1996 36.9528 24.9423V16.6764ZM33.6312 31.6822H26.4075V9.93652H33.6312C38.3395 9.93652 40.4679 12.7978 40.4679 16.3267V25.2603C40.4357 28.7892 38.3395 31.6822 33.6312 31.6822Z" fill="#E5CC7B"/>
<path d="M48 9.93652H44V31.9365H48V9.93652Z" fill="#E5CC7B"/>
<path d="M52 31.9365V9.93652H64V13.0564H55.5447V18.8459H61.626V21.8049H55.5447V28.7845H64V31.9365H52Z" fill="#E5CC7B"/>
<path d="M54.206 46.4973C54.206 44.6216 53.2708 43.6997 51.4648 43.6997H47.7562V50.4396H51.8518C53.6255 50.4396 54.206 49.3904 54.206 48.0552V46.4973ZM54.0125 36.8962C54.0125 35.5291 53.4965 34.48 51.6583 34.48H47.7562V40.9973H51.2713C53.0773 40.9973 54.0125 40.0436 54.0125 38.2314V36.8962ZM51.8196 53.3326H44.2089V31.5869H51.6261C55.9797 31.5869 57.4631 33.717 57.4631 36.928V37.7545C57.4631 40.3297 56.3344 41.6968 54.1737 42.1101C56.6569 42.5233 57.7533 44.1447 57.7533 46.5291V47.9916C57.7533 51.2026 56.1732 53.3326 51.8196 53.3326Z" fill="#E5CC7B"/>
<path d="M71.6203 37.8499C71.6203 35.6244 70.4916 34.0666 68.0085 34.0666C65.5576 34.0666 64.4289 35.6244 64.4289 37.8499V47.0696C64.4289 49.295 65.5576 50.8528 68.0085 50.8528C70.4916 50.8528 71.6203 49.295 71.6203 47.0696V37.8499ZM68.0407 53.873C63.1067 53.873 60.9138 50.8528 60.9138 46.8152V38.0724C60.9138 34.0984 63.1067 31.0464 68.0407 31.0464C73.007 31.0464 75.1677 34.0666 75.1677 38.0724V46.8152C75.1355 50.8528 73.007 53.873 68.0407 53.873Z" fill="#E5CC7B"/>
<path d="M86.0032 53.8731C81.8431 53.8731 78.8763 51.5841 78.8763 47.5783V31.5869H82.4236V47.5147C82.4236 49.7401 83.5523 50.9482 86.0032 50.9482C88.4864 50.9482 89.6151 49.7401 89.6151 47.5147V31.5869H93.1302V47.5783C93.1302 51.5841 90.2278 53.8731 86.0032 53.8731Z" fill="#E5CC7B"/>
<path d="M109.438 52.9365L102.831 42.8971L100.472 39.0593V52.9365H97V31.9365H99.8652L106.303 42.1602L108.528 45.9979V31.9365H112V52.9365H109.438Z" fill="#E5CC7B"/>
<path d="M126.185 38.3586C126.185 36.0696 125.056 34.7025 122.573 34.7025H119.155V50.2488H122.573C125.056 50.2488 126.185 48.8817 126.185 46.6245V38.3586ZM122.863 53.3326H115.64V31.5869H122.863C127.572 31.5869 129.7 34.4482 129.7 37.9771V46.9107C129.7 50.4714 127.572 53.3326 122.863 53.3326Z" fill="#E5CC7B"/>
</svg>
