<svg width="35" height="41" viewBox="0 0 35 41" fill="none" xmlns="http://www.w3.org/2000/svg">
<path d="M32.3637 10.1011C30.4116 9.67181 28.6456 8.63515 27.3192 7.13988C25.9928 5.6446 25.1742 3.76758 24.9808 1.77817V0.916504H18.2246V27.6869C18.2259 28.8748 17.8535 30.0329 17.1601 30.9974C16.4667 31.9618 15.4874 32.6836 14.3609 33.0605C13.2344 33.4375 12.0179 33.4504 10.8837 33.0976C9.74949 32.7447 8.75505 32.0439 8.04124 31.0944C7.40175 30.254 7.01016 29.2514 6.91076 28.2C6.81135 27.1486 7.00811 26.0904 7.47877 25.145C7.94943 24.1996 8.67522 23.4048 9.57406 22.8503C10.4729 22.2959 11.5089 22.0041 12.565 22.0078C13.149 22.0044 13.7302 22.0903 14.2883 22.2623V15.4082C13.6388 15.3277 12.9843 15.295 12.33 15.3103C9.91989 15.3747 7.58088 16.1405 5.59937 17.5139C3.61786 18.8873 2.07986 20.8088 1.17371 23.043C0.267566 25.2772 0.0325976 27.7272 0.497581 30.0929C0.962565 32.4585 2.10732 34.6373 3.79166 36.3623C5.5179 38.1174 7.72692 39.3197 10.138 39.8164C12.5491 40.3132 15.0535 40.082 17.3329 39.1522C19.6123 38.2224 21.5638 36.6359 22.9395 34.5945C24.3152 32.553 25.053 30.1487 25.0592 27.6869V13.9786C27.7841 15.9251 31.0517 16.9663 34.4004 16.9553V10.2969C33.7426 10.2996 33.0863 10.234 32.4421 10.1011H32.3637Z" fill="white"/>
</svg>
