<svg width="39" height="31" viewBox="0 0 39 31" fill="none" xmlns="http://www.w3.org/2000/svg">
<path d="M34.4351 7.8387C34.459 8.17283 34.459 8.50702 34.459 8.84115C34.459 19.0324 26.7052 30.7751 12.5335 30.7751C8.16752 30.7751 4.1117 29.5101 0.7 27.3144C1.32033 27.386 1.91672 27.4098 2.56091 27.4098C6.1634 27.4098 9.47971 26.1926 12.1279 24.1162C8.74012 24.0446 5.90101 21.8249 4.92282 18.7699C5.40002 18.8415 5.87714 18.8892 6.37821 18.8892C7.07007 18.8892 7.762 18.7937 8.40612 18.6267C4.87516 17.9106 2.22684 14.8079 2.22684 11.0608V10.9654C3.2527 11.5382 4.44569 11.8962 5.71007 11.9439C3.63443 10.5595 2.27458 8.1967 2.27458 5.52356C2.27458 4.09155 2.65624 2.77886 3.3243 1.63323C7.11773 6.31119 12.8198 9.36614 19.2137 9.70034C19.0944 9.12752 19.0228 8.5309 19.0228 7.93421C19.0228 3.6858 22.4584 0.225098 26.7289 0.225098C28.9477 0.225098 30.9517 1.15592 32.3594 2.65955C34.101 2.32543 35.771 1.68098 37.2503 0.797914C36.6776 2.58799 35.4609 4.09163 33.8624 5.04625C35.4132 4.87926 36.9163 4.44956 38.3 3.85294C37.2504 5.38037 35.9382 6.74075 34.4351 7.8387V7.8387Z" fill="#E5CC7B"/>
</svg>
