<svg width="34" height="31" viewBox="0 0 34 31" fill="none" xmlns="http://www.w3.org/2000/svg">
<path d="M13.5 6.5H4.75C2.817 6.5 1.25 8.067 1.25 10V25.75C1.25 27.683 2.817 29.25 4.75 29.25H29.25C31.183 29.25 32.75 27.683 32.75 25.75V10C32.75 8.067 31.183 6.5 29.25 6.5H20.5M13.5 6.5V4.75C13.5 2.817 15.067 1.25 17 1.25C18.933 1.25 20.5 2.817 20.5 4.75V6.5M13.5 6.5C13.5 8.433 15.067 10 17 10C18.933 10 20.5 8.433 20.5 6.5M11.75 20.5C14.0359 20.5 15.9804 21.9609 16.7011 24M11.75 20.5C9.46411 20.5 7.51936 21.9609 6.79864 24M22.25 15.25H27.5M22.25 22.25H25.75M11.75 20.5C13.683 20.5 15.25 18.933 15.25 17C15.25 15.067 13.683 13.5 11.75 13.5C9.817 13.5 8.25 15.067 8.25 17C8.25 18.933 9.817 20.5 11.75 20.5Z" stroke="url(#paint0_linear_103_199)" stroke-width="2" stroke-linecap="round" stroke-linejoin="round"/>
<defs>
<linearGradient id="paint0_linear_103_199" x1="17" y1="1.25" x2="17" y2="29.25" gradientUnits="userSpaceOnUse">
<stop stop-color="#E8CB44"/>
<stop offset="1" stop-color="#C79A56"/>
</linearGradient>
</defs>
</svg>
